<svg xmlns="http://www.w3.org/2000/svg" viewBox="0 0 183.64 135.14"><defs><style>.cls-1{fill:#0c60ff;}.cls-2,.cls-6{fill:#b3cdff;}.cls-3{fill:#8fb5ff;}.cls-4{fill:#fff;}.cls-5{fill:#eff8ff;}.cls-6{opacity:0.5;}.cls-7{fill:#e18c44;}.cls-8{fill:#f2f7fa;}</style></defs><title>secure</title><g id="Capa_2" data-name="Capa 2"><g id="_2" data-name="2"><path class="cls-1" d="M72.6,30.18a.5.5,0,0,1-.37-.84q.86-.92,1.75-1.81a.5.5,0,0,1,.7.71Q73.81,29.11,73,30A.5.5,0,0,1,72.6,30.18Z"/><path class="cls-1" d="M155.73,112.16a.5.5,0,0,1-.35-.86c1.23-1.17,2.41-2.4,3.52-3.67a.5.5,0,1,1,.75.66c-1.13,1.28-2.33,2.54-3.58,3.73A.5.5,0,0,1,155.73,112.16Zm6.77-7.69a.5.5,0,0,1-.4-.8c1-1.36,2-2.78,2.83-4.22a.5.5,0,1,1,.85.52c-.89,1.46-1.86,2.91-2.88,4.3A.5.5,0,0,1,162.49,104.47Zm5.33-8.75a.5.5,0,0,1-.45-.72c.75-1.52,1.44-3.08,2-4.65a.5.5,0,1,1,.93.36c-.62,1.6-1.32,3.19-2.08,4.73A.5.5,0,0,1,167.82,95.72Zm3.71-9.55-.14,0a.5.5,0,0,1-.34-.62c.47-1.62.87-3.28,1.2-4.94a.5.5,0,1,1,1,.19c-.33,1.69-.74,3.38-1.22,5A.5.5,0,0,1,171.53,86.16Zm2-10.06h-.05a.5.5,0,0,1-.44-.55c.18-1.67.28-3.38.31-5.07a.5.5,0,0,1,.5-.49h0a.5.5,0,0,1,.49.51c0,1.72-.14,3.46-.32,5.16A.5.5,0,0,1,173.5,76.11Zm.19-10.24a.5.5,0,0,1-.5-.47c-.11-1.68-.3-3.38-.57-5a.5.5,0,0,1,.42-.57.51.51,0,0,1,.57.42c.27,1.7.46,3.42.58,5.14a.5.5,0,0,1-.46.53ZM172.1,55.75a.5.5,0,0,1-.49-.38c-.4-1.63-.89-3.27-1.44-4.87a.5.5,0,1,1,.95-.33c.56,1.63,1.05,3.3,1.47,5a.5.5,0,0,1-.37.61Zm-3.33-9.68a.5.5,0,0,1-.46-.3c-.69-1.54-1.45-3.07-2.28-4.54a.5.5,0,0,1,.87-.49c.84,1.5,1.62,3.06,2.32,4.62a.5.5,0,0,1-.46.7Zm-5-8.94a.5.5,0,0,1-.41-.22c-.95-1.4-2-2.77-3-4.08a.5.5,0,0,1,.78-.63c1.08,1.33,2.12,2.73,3.09,4.15a.5.5,0,0,1-.41.78Zm-6.47-7.94A.5.5,0,0,1,157,29c-1.18-1.21-2.42-2.38-3.7-3.49a.5.5,0,0,1,.65-.76c1.3,1.12,2.56,2.31,3.76,3.55a.5.5,0,0,1-.36.85ZM78.13,24.94a.5.5,0,0,1-.32-.88c1.32-1.1,2.71-2.15,4.12-3.13a.5.5,0,0,1,.57.82c-1.39,1-2.75,2-4,3.07A.5.5,0,0,1,78.13,24.94Zm71.43-2.45a.5.5,0,0,1-.29-.09c-1.37-1-2.8-1.93-4.25-2.79a.5.5,0,0,1,.51-.86c1.47.88,2.93,1.83,4.32,2.84a.5.5,0,0,1-.29.91Zm-63-3.38a.5.5,0,0,1-.25-.93c1.49-.85,3-1.64,4.6-2.36a.5.5,0,0,1,.42.91c-1.53.7-3.05,1.48-4.52,2.32A.5.5,0,0,1,86.55,19.11Zm54.2-1.86a.5.5,0,0,1-.22,0c-1.52-.73-3.09-1.41-4.67-2a.5.5,0,0,1,.35-.94c1.61.61,3.21,1.29,4.75,2a.5.5,0,0,1-.22,1ZM95.86,14.84a.5.5,0,0,1-.17-1c1.62-.57,3.28-1.08,4.94-1.51a.5.5,0,1,1,.25,1c-1.64.42-3.27.92-4.86,1.49Zm35.31-1.21-.13,0c-1.62-.45-3.29-.84-4.95-1.15a.5.5,0,0,1,.18-1c1.69.32,3.38.71,5,1.17a.5.5,0,0,1-.13,1Zm-25.4-1.36a.5.5,0,0,1-.08-1c1.69-.28,3.42-.49,5.13-.62a.51.51,0,0,1,.54.46.5.5,0,0,1-.46.54c-1.68.13-3.38.34-5,.61Zm15.33-.52h0c-1.68-.16-3.38-.25-5.07-.27a.5.5,0,0,1-.5-.5.47.47,0,0,1,.5-.5c1.72,0,3.46.11,5.16.27a.5.5,0,0,1,0,1Z"/><path class="cls-1" d="M149.82,117.09a.5.5,0,0,1-.29-.9q1-.73,2-1.5a.5.5,0,0,1,.62.78q-1,.79-2,1.53A.5.5,0,0,1,149.82,117.09Z"/><path class="cls-1" d="M140.42,135.14H2.47a.5.5,0,0,1,0-1h138a.5.5,0,0,1,0,1Z"/><rect class="cls-2" x="25.14" y="44.52" width="109" height="89.97" rx="10.51" ry="10.51"/><path class="cls-3" d="M123.63,132.38h-88a10.51,10.51,0,0,1-10.51-10.51V124a10.51,10.51,0,0,0,10.51,10.51h88A10.51,10.51,0,0,0,134.14,124v-2.1A10.51,10.51,0,0,1,123.63,132.38Z"/><path class="cls-3" d="M34.16,94.77C60.05,82.15,64.84,56.69,65.6,44.52h-30A10.51,10.51,0,0,0,25.14,55V89.27A55.76,55.76,0,0,0,34.16,94.77Z"/><path class="cls-4" d="M123.63,44.52h-88A10.51,10.51,0,0,0,25.14,55v2.1A10.51,10.51,0,0,1,35.65,46.62h88a10.51,10.51,0,0,1,10.51,10.51V55A10.51,10.51,0,0,0,123.63,44.52Z"/><path class="cls-3" d="M134.14,82.54H114.47A6.41,6.41,0,0,0,108.06,89v5.29a6.41,6.41,0,0,0,6.41,6.41h19.66Z"/><path class="cls-1" d="M123.63,135h-88a11,11,0,0,1-11-11V55a11,11,0,0,1,11-11H74.58a.5.5,0,0,1,0,1H35.64a10,10,0,0,0-10,10v69a10,10,0,0,0,10,10h88a10,10,0,0,0,10-10V55a10,10,0,0,0-10-10H83.41a.5.5,0,0,1,0-1h40.22a11,11,0,0,1,11,11v69A11,11,0,0,1,123.63,135Z"/><path class="cls-1" d="M123.63,129.73H121.4a.5.5,0,1,1,0-1h2.23a4.87,4.87,0,0,0,.72-.05.5.5,0,1,1,.15,1A5.81,5.81,0,0,1,123.63,129.73Zm-7.27,0h-3a.5.5,0,1,1,0-1h3a.5.5,0,1,1,0,1Zm-8.07,0h-3a.5.5,0,0,1,0-1h3a.5.5,0,1,1,0,1Zm-8.07,0h-3a.5.5,0,0,1,0-1h3a.5.5,0,0,1,0,1Zm-8.07,0h-3a.5.5,0,0,1,0-1h3a.5.5,0,0,1,0,1Zm-8.07,0h-3a.5.5,0,0,1,0-1h3a.5.5,0,0,1,0,1Zm-8.07,0H73a.5.5,0,0,1,0-1h3a.5.5,0,0,1,0,1Zm-8.07,0h-3a.5.5,0,0,1,0-1h3a.5.5,0,0,1,0,1Zm-8.07,0h-3a.5.5,0,0,1,0-1h3a.5.5,0,0,1,0,1Zm-8.07,0h-3a.5.5,0,0,1,0-1h3a.5.5,0,0,1,0,1Zm-8.07,0h-3a.5.5,0,0,1,0-1h3a.5.5,0,0,1,0,1Zm-8.07,0h-.06a5.73,5.73,0,0,1-3.13-.93.5.5,0,0,1,.55-.84,4.73,4.73,0,0,0,2.59.77.53.53,0,0,1,.53.5A.47.47,0,0,1,35.71,129.73Zm92.63-2.92a.5.5,0,0,1-.45-.72,4.7,4.7,0,0,0,.49-2.11v-.61a.5.5,0,0,1,1,0V124a5.7,5.7,0,0,1-.6,2.55A.5.5,0,0,1,128.34,126.8Zm-97.94-2.14a.5.5,0,0,1-.5-.48v-3a.5.5,0,1,1,1,0v3a.5.5,0,0,1-.48.52Zm98.49-5.84a.5.5,0,0,1-.5-.5v-3a.5.5,0,0,1,1,0v3A.5.5,0,0,1,128.88,118.82ZM30.39,116.6a.5.5,0,0,1-.5-.5v-3a.5.5,0,1,1,1,0v3A.5.5,0,0,1,30.39,116.6Zm98.49-5.84a.5.5,0,0,1-.5-.5v-3a.5.5,0,0,1,1,0v3A.5.5,0,0,1,128.88,110.76Zm-98.49-2.23a.5.5,0,0,1-.5-.5v-3a.5.5,0,1,1,1,0v3A.5.5,0,0,1,30.39,108.53Zm98.49-5.84a.5.5,0,0,1-.5-.5v-3a.5.5,0,0,1,1,0v3A.5.5,0,0,1,128.88,102.69Zm-98.49-2.23a.5.5,0,0,1-.5-.5v-3a.5.5,0,1,1,1,0v3A.5.5,0,0,1,30.39,100.46Zm98.49-5.84a.5.5,0,0,1-.5-.5v-3a.5.5,0,0,1,1,0v3A.5.5,0,0,1,128.88,94.63ZM30.39,92.4a.5.5,0,0,1-.5-.5v-3a.5.5,0,1,1,1,0v3A.5.5,0,0,1,30.39,92.4Zm98.49-5.84a.5.5,0,0,1-.5-.5V83a.5.5,0,0,1,1,0v3A.5.5,0,0,1,128.88,86.56ZM30.39,84.33a.5.5,0,0,1-.5-.5v-3a.5.5,0,1,1,1,0v3A.5.5,0,0,1,30.39,84.33Zm98.49-5.84a.5.5,0,0,1-.5-.5V75a.5.5,0,0,1,1,0v3A.5.5,0,0,1,128.88,78.49ZM30.39,76.27a.5.5,0,0,1-.5-.5v-3a.5.5,0,1,1,1,0v3A.5.5,0,0,1,30.39,76.27Zm98.49-5.84a.5.5,0,0,1-.5-.5v-3a.5.5,0,0,1,1,0v3A.5.5,0,0,1,128.88,70.43ZM30.39,68.2a.5.5,0,0,1-.5-.5v-3a.5.5,0,1,1,1,0v3A.5.5,0,0,1,30.39,68.2Zm98.49-5.84a.5.5,0,0,1-.5-.5v-3a.5.5,0,1,1,1,0v3A.5.5,0,0,1,128.88,62.36ZM30.39,60.14a.5.5,0,0,1-.5-.5v-3a.5.5,0,1,1,1,0v3A.5.5,0,0,1,30.39,60.14Zm98.35-5.83a.5.5,0,0,1-.49-.38,4.75,4.75,0,0,0-1.35-2.34.5.5,0,0,1,.69-.72,5.74,5.74,0,0,1,1.63,2.83.5.5,0,0,1-.37.6Zm-97.25-2a.5.5,0,0,1-.39-.81,5.76,5.76,0,0,1,2.64-1.91.5.5,0,0,1,.33.94,4.76,4.76,0,0,0-2.19,1.58A.5.5,0,0,1,31.49,52.32Zm91.1-2h-3a.5.5,0,0,1,0-1h3a.5.5,0,0,1,0,1Zm-8.07,0h-3a.5.5,0,0,1,0-1h3a.5.5,0,0,1,0,1Zm-8.07,0h-3a.5.5,0,0,1,0-1h3a.5.5,0,0,1,0,1Zm-8.07,0h-3a.5.5,0,0,1,0-1h3a.5.5,0,0,1,0,1Zm-8.07,0h-3a.5.5,0,0,1,0-1h3a.5.5,0,0,1,0,1Zm-8.07,0h-3a.5.5,0,0,1,0-1h3a.5.5,0,0,1,0,1Zm-8.07,0h-3a.5.5,0,0,1,0-1h3a.5.5,0,0,1,0,1Zm-8.07,0h-3a.5.5,0,0,1,0-1h3a.5.5,0,0,1,0,1Zm-8.07,0H55a.5.5,0,0,1,0-1h3a.5.5,0,0,1,0,1Zm-8.07,0H47a.5.5,0,0,1,0-1h3a.5.5,0,0,1,0,1Zm-8.07,0h-3a.5.5,0,0,1,0-1h3a.5.5,0,0,1,0,1Z"/><path class="cls-2" d="M137.59,98.56H114.47a6.41,6.41,0,0,1-6.41-6.41V86.85a6.41,6.41,0,0,1,6.41-6.41h23.12Z"/><path class="cls-1" d="M137.59,99.06H114.47a6.92,6.92,0,0,1-6.91-6.91V86.85a6.92,6.92,0,0,1,6.91-6.91h23.12a.5.5,0,0,1,.5.5V98.56A.5.5,0,0,1,137.59,99.06ZM114.47,80.94a5.92,5.92,0,0,0-5.91,5.91v5.29a5.92,5.92,0,0,0,5.91,5.91h22.62V80.94Z"/><path class="cls-4" d="M63.55,35.63c-23.47.89-31.49-13.07-31.49-13.07S24,36.52.57,35.63c0,0-3.27,40.1,31.49,57C66.82,75.73,63.55,35.63,63.55,35.63Z"/><path class="cls-5" d="M63.55,35.63c-23.47.89-31.49-13.07-31.49-13.07S24,36.52.57,35.63c0,0-3.27,40.1,31.49,57C66.82,75.73,63.55,35.63,63.55,35.63Z"/><path class="cls-1" d="M32.06,93.16a.5.5,0,0,1-.22-.05C-2.82,76.23,0,36,.07,35.59a.51.51,0,0,1,.52-.46c22.89.86,31-12.69,31-12.82a.5.5,0,0,1,.43-.25h0a.5.5,0,0,1,.43.25c.07.13,7.67,12.86,28.92,12.86h0c.69,0,1.4,0,2.11,0a.5.5,0,0,1,.52.46c0,.4,2.89,40.64-31.77,57.53A.5.5,0,0,1,32.06,93.16Zm-31-57c-.21,4.55-.77,40.31,31,56,31.79-15.65,31.23-51.42,31-56-20.23.59-29.06-9.93-31-12.69C30.09,26.22,21.23,36.74,1,36.14Z"/><path class="cls-2" d="M32.06,86.75C9.75,74.48,6.24,50.94,5.8,40.84c13.38-.72,21.69-6,26.26-10.27,4.57,4.25,12.89,9.56,26.3,10.27C58,50.95,54.58,74.39,32.06,86.75Z"/><path class="cls-4" d="M32.06,31.62c4.57,4.24,12.87,9.54,26.25,10.26,0-.36,0-.71,0-1-13.4-.71-21.72-6-26.3-10.27C27.49,34.82,19.18,40.12,5.8,40.84c0,.33,0,.68.06,1C19.2,41.15,27.49,35.86,32.06,31.62Z"/><path class="cls-1" d="M32.06,87.25a.5.5,0,0,1-.24-.06C9.17,74.73,5.73,50.64,5.3,40.86a.5.5,0,0,1,.47-.52c13.19-.71,21.39-5.9,25.95-10.13a.5.5,0,0,1,.68,0c4.56,4.24,12.77,9.43,26,10.13a.5.5,0,0,1,.47.52c-.36,9.75-3.67,33.77-26.55,46.33A.5.5,0,0,1,32.06,87.25ZM6.32,41.31c.51,9.87,4.11,32.82,25.74,44.87C53.91,74,57.39,51.14,57.83,41.31c-12.9-.8-21.09-5.83-25.78-10.06C27.38,35.48,19.2,40.5,6.32,41.31Z"/><circle class="cls-6" cx="86.79" cy="19.35" r="14.22"/><circle class="cls-7" cx="85.87" cy="17.51" r="14.22"/><path class="cls-4" d="M85.87,4.33A14.21,14.21,0,0,1,100.07,18c0-.18,0-.35,0-.53a14.22,14.22,0,1,0-28.44,0c0,.18,0,.35,0,.53A14.21,14.21,0,0,1,85.87,4.33Z"/><path class="cls-1" d="M85.87,32.23a14.72,14.72,0,1,1,14.72-14.72A14.74,14.74,0,0,1,85.87,32.23Zm0-28.44A13.72,13.72,0,1,0,99.59,17.51,13.74,13.74,0,0,0,85.87,3.78Z"/><path class="cls-4" d="M85.87,29.26A11.75,11.75,0,1,1,97.62,17.51,11.77,11.77,0,0,1,85.87,29.26Zm0-23A11.25,11.25,0,1,0,97.12,17.51,11.27,11.27,0,0,0,85.87,6.25Z"/><circle class="cls-3" cx="118.14" cy="90.55" r="4.51"/><circle class="cls-8" cx="117.09" cy="89.5" r="4.51"/><path class="cls-1" d="M117.09,94.51a5,5,0,1,1,5-5A5,5,0,0,1,117.09,94.51Zm0-9a4,4,0,1,0,4,4A4,4,0,0,0,117.09,85.49Z"/><path class="cls-5" d="M32.08,35a43.73,43.73,0,0,0,22,7.78c-.69,9.72-4.39,28.79-22,40.25Z"/><rect class="cls-3" x="43.02" y="101.71" width="33.89" height="14.33"/><rect class="cls-5" x="41.97" y="100.66" width="33.89" height="14.33"/><path class="cls-1" d="M83.9,70.84a.5.5,0,0,1-.35-.85L90,63.5a.5.5,0,0,1,.71.71L84.25,70.7A.5.5,0,0,1,83.9,70.84Z"/><path class="cls-1" d="M90.39,68.55A.5.5,0,0,1,90,67.7l3.15-3.15a.5.5,0,1,1,.71.71l-3.15,3.15A.5.5,0,0,1,90.39,68.55Z"/><path class="cls-4" d="M91.19,20.35a4,4,0,0,1-1.27,3.05,5.48,5.48,0,0,1-3.32,1.37l-.1,2.49h-2l.1-2.53a5.61,5.61,0,0,1-2.67-1,4,4,0,0,1-1.37-1.8V20.46H83a2.38,2.38,0,0,0,.6,1A2.49,2.49,0,0,0,84.7,22l.15-3.63-.17,0a6,6,0,0,1-3-1.41,3.59,3.59,0,0,1-1.05-2.73,3.92,3.92,0,0,1,1.25-3.05A5.37,5.37,0,0,1,85.18,9.9l.1-2.14h2L87.19,10a5,5,0,0,1,2.35.95,3.11,3.11,0,0,1,1.17,1.79v1.45H88.2a3.25,3.25,0,0,0-.38-.87,1.59,1.59,0,0,0-.73-.6L87,16.08h0a6.49,6.49,0,0,1,3.08,1.45A3.62,3.62,0,0,1,91.19,20.35ZM83.6,14.07a1.43,1.43,0,0,0,.3.89A2.12,2.12,0,0,0,85,15.6l.11-3.06a1.94,1.94,0,0,0-1.12.54A1.41,1.41,0,0,0,83.6,14.07Zm4.61,6.45a1.57,1.57,0,0,0-.31-1,2.35,2.35,0,0,0-1.05-.69l-.13,3.27a1.94,1.94,0,0,0,1.11-.55A1.5,1.5,0,0,0,88.2,20.52Z"/><circle class="cls-6" cx="171.75" cy="88.06" r="11.88"/><circle class="cls-7" cx="170.98" cy="86.52" r="11.88"/><path class="cls-4" d="M171,75.69A11.87,11.87,0,0,1,182.84,87c0-.18,0-.35,0-.53a11.88,11.88,0,1,0-23.77,0c0,.18,0,.35,0,.53A11.87,11.87,0,0,1,171,75.69Z"/><path class="cls-1" d="M171,98.9a12.38,12.38,0,1,1,12.38-12.38A12.4,12.4,0,0,1,171,98.9Zm0-23.77a11.38,11.38,0,1,0,11.38,11.38A11.4,11.4,0,0,0,171,75.14Z"/><path class="cls-4" d="M171,96.38a9.86,9.86,0,1,1,9.86-9.86A9.87,9.87,0,0,1,171,96.38Zm0-19.22a9.36,9.36,0,1,0,9.36,9.36A9.37,9.37,0,0,0,171,77.16Z"/><circle class="cls-6" cx="153.11" cy="28.2" r="25.7"/><circle class="cls-2" cx="151.11" cy="26.2" r="25.7"/><path class="cls-4" d="M151.11,1.51A25.69,25.69,0,0,1,176.8,26.7c0-.17,0-.33,0-.5a25.7,25.7,0,0,0-51.4,0c0,.17,0,.34,0,.5A25.69,25.69,0,0,1,151.11,1.51Z"/><path class="cls-1" d="M151.11,52.4a26.2,26.2,0,1,1,26.2-26.2A26.23,26.23,0,0,1,151.11,52.4Zm0-51.4a25.2,25.2,0,1,0,25.2,25.2A25.23,25.23,0,0,0,151.11,1Z"/><path class="cls-1" d="M52.78,25.22a.5.5,0,0,1-.5-.5,5,5,0,0,0-5-5,.5.5,0,0,1,0-1,5,5,0,0,0,5-5,.5.5,0,1,1,1,0,5,5,0,0,0,5,5,.5.5,0,0,1,0,1,5,5,0,0,0-5,5A.5.5,0,0,1,52.78,25.22Zm-3.11-6a6,6,0,0,1,3.11,3.11,6,6,0,0,1,3.11-3.11,6,6,0,0,1-3.11-3.11,6,6,0,0,1-3.11,3.11Z"/><path class="cls-1" d="M10.24,28.59h0v-.52l.05.52Zm0,0a4.41,4.41,0,0,1-1.14-.14l.27-1a3.42,3.42,0,0,0,.86.11Zm1.15-.15-.27-1a3.35,3.35,0,0,0,.81-.34l.53.91A4.42,4.42,0,0,1,11.38,28.44ZM8,28a4.42,4.42,0,0,1-.92-.7l.74-.75a3.36,3.36,0,0,0,.7.53Zm5.34-.72-.74-.74a3.38,3.38,0,0,0,.54-.7l.91.53A4.45,4.45,0,0,1,13.36,27.29Zm-7-.89A4.42,4.42,0,0,1,6,25.33l1-.28a3.37,3.37,0,0,0,.34.81Zm8.11-1.09-1-.27a3.41,3.41,0,0,0,.11-.87l1.05,0v0A4.47,4.47,0,0,1,14.51,25.31ZM5.8,24.19v0A4.43,4.43,0,0,1,5.94,23l1,.27a3.34,3.34,0,0,0-.11.85Zm7.68-.93a3.34,3.34,0,0,0-.35-.81l.9-.54A4.41,4.41,0,0,1,14.49,23ZM7.29,22.5,6.38,22a4.47,4.47,0,0,1,.7-.92l.75.74A3.39,3.39,0,0,0,7.29,22.5Zm5.3-.74a3.38,3.38,0,0,0-.7-.53l.52-.91a4.41,4.41,0,0,1,.92.69Zm-4.08-.5L8,20.35A4.42,4.42,0,0,1,9,19.89l.28,1A3.36,3.36,0,0,0,8.52,21.25Zm2.56-.36a3.38,3.38,0,0,0-.85-.11l0-1.05h0a4.46,4.46,0,0,1,1.11.14Z"/><path class="cls-1" d="M28.54,2.79a.5.5,0,0,1-.35-.85L29.61.51a.5.5,0,0,1,.71.71L28.9,2.64A.5.5,0,0,1,28.54,2.79Z"/><path class="cls-1" d="M26.56,2.8a.5.5,0,0,1-.35-.15L24.78,1.23a.5.5,0,0,1,.71-.71l1.42,1.42a.5.5,0,0,1-.35.85Z"/><path class="cls-1" d="M25.15,6.21a.5.5,0,0,1-.35-.85l1.42-1.42a.5.5,0,0,1,.71.71L25.51,6.06A.5.5,0,0,1,25.15,6.21Z"/><path class="cls-1" d="M30,6.19A.5.5,0,0,1,29.63,6L28.2,4.62a.5.5,0,1,1,.71-.71l1.42,1.42a.5.5,0,0,1-.35.85Z"/><rect class="cls-3" x="140.42" y="23.9" width="25.41" height="20.82" rx="2.56" ry="2.56"/><path class="cls-3" d="M153,10.39h-.15a7.29,7.29,0,0,0-7.29,7.29V23.9h2.56V17.68A4.74,4.74,0,0,1,152.84,13H153a4.74,4.74,0,0,1,4.73,4.73V23.9h2.56V17.68A7.29,7.29,0,0,0,153,10.39Z"/><rect class="cls-4" x="138.4" y="21.89" width="25.41" height="20.82" rx="2.56" ry="2.56"/><path class="cls-1" d="M161.25,43.21H141a3.07,3.07,0,0,1-3.06-3.06V24.45A3.07,3.07,0,0,1,141,21.39h20.29a3.07,3.07,0,0,1,3.06,3.06v15.7A3.07,3.07,0,0,1,161.25,43.21ZM141,22.39a2.06,2.06,0,0,0-2.06,2.06v15.7A2.06,2.06,0,0,0,141,42.21h20.29a2.06,2.06,0,0,0,2.06-2.06V24.45a2.06,2.06,0,0,0-2.06-2.06Z"/><path class="cls-2" d="M154,30.71a2.92,2.92,0,1,0-4.2,2.61v5h2.56v-5A2.91,2.91,0,0,0,154,30.71Z"/><path class="cls-1" d="M152.41,38.83h-2.56a.5.5,0,0,1-.5-.5V33.62a3.39,3.39,0,0,1-1.64-2.91,3.42,3.42,0,1,1,5.2,2.91v4.71A.5.5,0,0,1,152.41,38.83Zm-2.06-1h1.56V33.32a.5.5,0,0,1,.28-.45,2.42,2.42,0,1,0-2.12,0,.5.5,0,0,1,.28.45Z"/><path class="cls-4" d="M151,8.37h-.15a7.29,7.29,0,0,0-7.29,7.29v6.22h2.56V15.67a4.74,4.74,0,0,1,4.73-4.73H151a4.74,4.74,0,0,1,4.73,4.73v6.22h2.56V15.67A7.29,7.29,0,0,0,151,8.37Z"/><path class="cls-1" d="M158.26,22.39H155.7a.5.5,0,0,1-.5-.5V15.67A4.24,4.24,0,0,0,151,11.44h-.15a4.24,4.24,0,0,0-4.23,4.23v6.22a.5.5,0,0,1-.5.5h-2.56a.5.5,0,0,1-.5-.5V15.67a7.8,7.8,0,0,1,7.79-7.79H151a7.8,7.8,0,0,1,7.79,7.79v6.22A.5.5,0,0,1,158.26,22.39Zm-2.06-1h1.56V15.67A6.8,6.8,0,0,0,151,8.87h-.15A6.8,6.8,0,0,0,144,15.67v5.72h1.56V15.67a5.24,5.24,0,0,1,5.23-5.23H151a5.24,5.24,0,0,1,5.23,5.23Z"/><path class="cls-1" d="M163.82,29.87h-2.24a.5.5,0,0,1,0-1h2.24a.5.5,0,0,1,0,1Z"/><path class="cls-1" d="M163.82,32.1h-2.24a.5.5,0,0,1,0-1h2.24a.5.5,0,1,1,0,1Z"/><path class="cls-1" d="M163.82,34.33h-2.24a.5.5,0,0,1,0-1h2.24a.5.5,0,0,1,0,1Z"/><path class="cls-4" d="M75.86,48.25H73.41a.5.5,0,0,1,0-1h2.45a.5.5,0,0,1,0,1Z"/><path class="cls-4" d="M90.39,48.25H78.66a.5.5,0,0,1,0-1H90.39a.5.5,0,0,1,0,1Z"/><path class="cls-4" d="M115.74,83h-2.11a.5.5,0,0,1,0-1h2.11a.5.5,0,0,1,0,1Z"/><path class="cls-4" d="M128.24,83h-10.1a.5.5,0,0,1,0-1h10.1a.5.5,0,0,1,0,1Z"/><path class="cls-1" d="M158.26,135H150a.5.5,0,1,1,0-1h8.23a.5.5,0,0,1,0,1Z"/><polygon class="cls-1" points="152.46 117.64 147.6 117.83 149.86 113.53 152.46 117.64"/><polygon class="cls-1" points="148.42 120.11 143.56 120.31 145.82 116.01 148.42 120.11"/><path class="cls-4" d="M175.42,88.89a3.31,3.31,0,0,1-1.06,2.55,4.58,4.58,0,0,1-2.77,1.14l-.08,2.08h-1.68l.08-2.11a4.69,4.69,0,0,1-2.23-.86,3.35,3.35,0,0,1-1.14-1.5V89h2.08a2,2,0,0,0,.5.83,2.08,2.08,0,0,0,.89.5l.13-3-.14,0a5,5,0,0,1-2.53-1.17,3,3,0,0,1-.88-2.28,3.28,3.28,0,0,1,1-2.55,4.48,4.48,0,0,1,2.77-1.08l.08-1.79h1.68l-.08,1.87a4.22,4.22,0,0,1,2,.79,2.6,2.6,0,0,1,1,1.49v1.21h-2.09a2.71,2.71,0,0,0-.32-.73,1.33,1.33,0,0,0-.61-.5l-.11,2.81h0a5.42,5.42,0,0,1,2.57,1.21A3,3,0,0,1,175.42,88.89Zm-6.34-5.24a1.2,1.2,0,0,0,.25.74,1.77,1.77,0,0,0,.9.54l.1-2.56a1.63,1.63,0,0,0-.93.45A1.17,1.17,0,0,0,169.08,83.65ZM172.93,89a1.31,1.31,0,0,0-.26-.82,2,2,0,0,0-.88-.58l-.11,2.73a1.62,1.62,0,0,0,.93-.46A1.25,1.25,0,0,0,172.93,89Z"/></g></g></svg>