<svg height="362pt" viewBox="0 0 362 362.00084" width="362pt" xmlns="http://www.w3.org/2000/svg"><path d="m177 22c18.265625-.023438 36.40625 3.03125 53.65625 9.039062 2.363281.839844 5 .347657 6.902344-1.285156 1.902344-1.636718 2.785156-4.167968 2.3125-6.632812s-2.230469-4.488282-4.605469-5.300782c-18.730469-6.523437-38.429687-9.84375-58.265625-9.820312-97.597656 0-177 79.398438-177 177-.0273438 20.683594 3.582031 41.210938 10.664062 60.644531 1.324219 3.632813 5.34375 5.5 8.976563 4.175781 3.632813-1.324218 5.5-5.34375 4.175781-8.976562-6.519531-17.894531-9.839844-36.796875-9.816406-55.84375 0-89.878906 73.121094-163 163-163zm0 0"/><path d="m233.460938 109.128906c0-3.867187-3.132813-7-7-7h-98.921876c-3.867187 0-7 3.132813-7 7 0 3.863282 3.132813 7 7 7h28.304688c16.871094.019532 31.394531 11.910156 34.746094 28.441406h-63.050782c-3.867187 0-7 3.136719-7 7 0 3.867188 3.132813 7 7 7h63.050782c-3.351563 16.535157-17.875 28.421876-34.746094 28.445313h-28.304688c-2.867187 0-5.441406 1.75-6.5 4.410156-1.0625 2.664063-.390624 5.703125 1.691407 7.675781l70.75 66.855469c1.816406 1.726563 4.417969 2.351563 6.820312 1.636719 2.402344-.714844 4.238281-2.660156 4.816407-5.097656.578124-2.4375-.195313-5-2.019532-6.714844l-57.960937-54.769531h10.707031c24.589844-.03125 45.429688-18.105469 48.941406-42.441407h21.675782c3.867187 0 7-3.136718 7-7 0-3.867187-3.132813-7-7-7h-21.675782c-1.554687-10.828124-6.660156-20.835937-14.515625-28.445312h36.191407c3.867187 0 7-3.132812 7-6.996094zm0 0"/><path d="m362 50.953125c0-3.863281-3.132812-7-7-7h-36.953125v-36.953125c0-3.867188-3.132813-7-7-7s-7 3.132812-7 7v36.953125h-39.046875c-3.867188 0-7 3.136719-7 7 0 3.867187 3.132812 7 7 7h39.046875v39.046875c0 3.867188 3.132813 7 7 7s7-3.132812 7-7v-39.046875h36.953125c3.867188 0 7-3.132813 7-7zm0 0"/><path d="m48.550781 347.839844c.480469 2.761718 2.5625 4.96875 5.292969 5.613281 2.726562.644531 5.578125-.402344 7.242188-2.660156l15-20.359375c29.589843 20.65625 64.828124 31.679687 100.914062 31.566406 97.601562 0 177-79.398438 177-177 .042969-23.410156-4.585938-46.59375-13.621094-68.191406-1.515625-3.527344-5.589844-5.179688-9.132812-3.699219-3.542969 1.484375-5.230469 5.542969-3.785156 9.101563 8.320312 19.886718 12.582031 41.234374 12.539062 62.789062 0 89.878906-73.121094 163-163 163-33.09375.105469-65.421875-9.964844-92.605469-28.839844l22.167969-30.089844c1.664062-2.257812 1.820312-5.289062.398438-7.707031-1.425782-2.414062-4.152344-3.75-6.933594-3.386719l-54.941406 7.132813c-1.894532.246094-3.605469 1.253906-4.738282 2.789063-1.132812 1.539062-1.589844 3.46875-1.261718 5.351562zm37.011719-53.867188-16.53125 22.433594c-.015625.023438-.03125.039062-.046875.058594-.015625.019531-.046875.066406-.070313.101562l-9.371093 12.714844-5.414063-31.226562zm0 0"/></svg>