<svg height="451pt" viewBox="0 -28 451.13459 451" width="451pt" xmlns="http://www.w3.org/2000/svg"><path d="m430.457031 249.796875c-10.878906-10.980469-25.238281-17.832031-40.617187-19.378906v-209.4375c0-2.367188-1.195313-4.578125-3.183594-5.871094s-4.492188-1.488281-6.660156-.527344l-122.089844 54.261719-122.226562-67.902344c-.074219-.039062-.148438-.070312-.21875-.105468-.070313-.035157-.167969-.085938-.253907-.125-.183593-.082032-.367187-.160157-.554687-.226563-.058594-.023437-.121094-.046875-.179688-.066406-.515625-.171875-1.046875-.28125-1.585937-.3281252-.054688-.0039063-.113281-.0039063-.167969-.0078126-.210938-.015625-.421875-.0195312-.628906-.0117187-.074219 0-.144532 0-.214844.0078125-.21875.015625-.433594.035156-.648438.070313-.050781.007812-.097656.011718-.148437.019531-.265625.046875-.527344.105469-.78125.183593-.046875.011719-.089844.03125-.136719.046876-.214844.066406-.421875.144531-.628906.234374-.03125.011719-.0625.019532-.09375.03125l-125.28125 55.679688c-2.527344 1.125-4.15625 3.632812-4.15625 6.402344v278.398437c0 2.371094 1.195312 4.582031 3.183594 5.871094 1.988281 1.292969 4.492187 1.492187 6.660156.53125l122.089844-54.265625 122.226562 67.902344c.089844.050781.1875.085937.28125.132812.121094.0625.246094.121094.371094.175782.171875.074218.347656.136718.527344.195312.121094.042969.238281.085938.363281.117188.191406.054687.386719.09375.578125.128906.117188.019531.230469.050781.351562.066406.246094.03125.492188.046875.742188.054688.0625 0 .125.011718.1875.011718.285156-.003906.570312-.023437.851562-.058594.066407-.007812.128907-.019531.195313-.03125.214844-.03125.425781-.074218.640625-.128906.085938-.019531.167969-.039062.25-.066406.199219-.054688.398438-.125.59375-.199219.078125-.027343.15625-.054687.230469-.089843.027343-.007813.054687-.015626.078125-.027344l63.332031-28.148438c2.976563 5.148438 6.542969 9.929688 10.628906 14.25l43.453125 46.28125c1.324219 1.410156 3.167969 2.210938 5.101563 2.210938 1.933593 0 3.78125-.800782 5.105469-2.210938l43.449218-46.28125c6.769532-7.0625 12.03125-15.425781 15.46875-24.585937 3.277344-8.847657 4.660156-18.285157 4.054688-27.699219-1.128906-17.144531-8.425782-33.300781-20.539063-45.484375zm-54.617187-19.359375c-15.320313 1.578125-29.617188 8.421875-40.457032 19.359375-12.117187 12.183594-19.414062 28.34375-20.542968 45.488281-.550782 8.539063.546875 17.101563 3.222656 25.226563l-53.5 23.777343v-263.078124l111.28125-49.457032zm-236.558594-211.476562 111.277344 61.820312v262.382812l-111.277344-61.820312zm-125.28125 48.328124 111.28125-49.453124v263.078124l-111.28125 49.457032zm419.792969 250.902344c-2.789063 7.378906-7.050781 14.117188-12.523438 19.800782l-38.347656 40.847656-38.347656-40.851563c-5.472657-5.683593-9.734375-12.421875-12.523438-19.800781-2.609375-7.015625-3.710937-14.5-3.238281-21.964844.902344-13.773437 6.761719-26.753906 16.492188-36.542968 9.964843-9.996094 23.5-15.617188 37.617187-15.617188s27.652344 5.621094 37.621094 15.617188c9.730469 9.789062 15.585937 22.769531 16.492187 36.542968.46875 7.464844-.632812 14.949219-3.242187 21.964844zm0 0"/><path d="m382.921875 257.214844c-20.402344 0-37 16.960937-37 37.804687s16.597656 37.804688 37 37.804688c20.398437 0 37-16.960938 37-37.804688 0-20.847656-16.601563-37.804687-37-37.804687zm0 61.609375c-12.683594 0-23-10.679688-23-23.804688 0-13.128906 10.316406-23.804687 23-23.804687 12.679687 0 23 10.675781 23 23.804687 0 13.125-10.320313 23.804688-23 23.804688zm0 0"/></svg>