<svg height="462pt" viewBox="-54 0 462 462" width="462pt" xmlns="http://www.w3.org/2000/svg"><path d="m199.53125 407.738281h-42.871094c-3.867187 0-7 3.136719-7 7 0 3.867188 3.132813 7 7 7h42.871094c3.867188 0 7-3.132812 7-7 0-3.863281-3.132812-7-7-7zm0 0"/><path d="m353.964844 101.414062c-.03125-.3125-.085938-.625-.160156-.929687-.015626-.058594-.027344-.121094-.042969-.175781-.082031-.304688-.179688-.605469-.300781-.898438-.125-.289062-.269532-.574218-.429688-.847656-.035156-.054688-.066406-.113281-.101562-.167969-.164063-.265625-.347657-.523437-.546876-.765625-.015624-.019531-.035156-.035156-.046874-.054687-.199219-.230469-.414063-.449219-.640626-.652344-.027343-.023437-.050781-.054687-.078124-.078125l-51.289063-45.066406v-9.621094c-.027344-23.273438-18.890625-42.1289062-42.164063-42.15625h-160.140624c-23.273438.0273438-42.132813 18.886719-42.160157 42.160156v9.355469l-53.390625 45.246094c-1.570312 1.335937-2.472656 3.300781-2.457031 5.367187 0 .101563-.015625.199219-.015625.300782v34.441406c0 1.085937.253906 2.15625.738281 3.128906l.050781.101562c10.351563 19.984376 33.808594 29.34375 55.074219 21.96875v257.777344c.03125 23.273438 18.890625 42.125 42.160157 42.152344h160.140624c23.277344-.027344 42.136719-18.886719 42.164063-42.160156v-257.066406c20.800781 6.050781 42.972656-3.472657 52.90625-22.726563.503906-.984375.765625-2.074219.765625-3.179687v-34.765626c0-.203124-.011719-.402343-.03125-.601562 0-.03125 0-.058594-.003906-.085938zm-255.941406-87.414062h160.140624c15.546876.019531 28.144532 12.613281 28.164063 28.160156v5.601563h-216.464844v-5.601563c.019531-15.546875 12.617188-28.140625 28.160157-28.160156zm-32.59375 47.753906h223.214843c1.0625.960938 2.394531 1.570313 3.816407 1.746094l35.964843 31.601562h-302.339843zm192.734374 386.246094h-160.140624c-15.542969-.019531-28.140626-12.613281-28.160157-28.160156v-38.945313h216.464844v38.949219c-.019531 15.542969-12.617187 28.136719-28.164063 28.15625zm28.164063-81.109375h-216.464844v-212.699219c1.84375-1.523437 3.558594-3.195312 5.136719-4.992187 8.601562 9.761719 20.984375 15.351562 33.996094 15.351562 13.007812 0 25.390625-5.589843 33.992187-15.351562 8.585938 9.789062 20.984375 15.386719 34 15.359375 13.019531.027344 25.414063-5.570313 34-15.355469 8.605469 9.761719 20.988281 15.355469 34 15.355469 13.015625 0 25.398438-5.59375 34-15.355469 2.195313 2.496094 4.65625 4.742187 7.339844 6.699219zm26.671875-216.316406c-11.71875.121093-22.484375-6.429688-27.769531-16.886719-1.195313-2.335938-3.597657-3.808594-6.222657-3.8125s-5.03125 1.457031-6.238281 3.789062c-5.371093 10.386719-16.089843 16.90625-27.78125 16.902344-11.691406 0-22.40625-6.527344-27.777343-16.914062-1.203126-2.324219-3.601563-3.78125-6.21875-3.78125-2.617188.003906-5.019532 1.464844-6.222657 3.789062-5.371093 10.382813-16.085937 16.90625-27.773437 16.90625-11.691406 0-22.40625-6.523437-27.777344-16.90625-.042969-.082031-.089844-.171875-.136719-.25-1.269531-2.230468-3.65625-3.589844-6.222656-3.539062-2.566406.050781-4.898437 1.5-6.078125 3.78125-5.371094 10.382812-16.085938 16.90625-27.777344 16.90625s-22.40625-6.523438-27.777344-16.90625c-1.203124-2.324219-3.605468-3.78125-6.21875-3.78125-2.621093.003906-5.019531 1.464844-6.222656 3.789062-5.238281 10.128906-15.574218 16.605469-26.972656 16.902344s-22.054688-5.632812-27.8125-15.476562v-25.984376h326v25.980469c-5.523438 9.679688-15.855469 15.609375-27 15.492188zm0 0"/><path d="m194.773438 242.9375-25.75 20.949219-8.898438-10.414063c-1.617188-1.929687-4.144531-2.839844-6.617188-2.390625-2.476562.449219-4.519531 2.195313-5.351562 4.570313-.835938 2.375-.328125 5.011718 1.324219 6.910156l13.332031 15.617188c2.46875 2.890624 6.792969 3.28125 9.742188.882812l31.054687-25.261719c3-2.441406 3.453125-6.851562 1.011719-9.847656-2.4375-3-6.847656-3.453125-9.847656-1.011719zm0 0"/><path d="m177 194c-37.003906 0-67 29.996094-67 67s29.996094 67 67 67 67-29.996094 67-67c-.042969-36.984375-30.015625-66.957031-67-67zm0 120c-29.269531 0-53-23.730469-53-53s23.730469-53 53-53 53 23.730469 53 53c-.03125 29.257812-23.742188 52.96875-53 53zm0 0"/></svg>