<svg height="420pt" viewBox="-15 0 420 420.95493" width="420pt" xmlns="http://www.w3.org/2000/svg"><path d="m319.449219 256.25-23.621094-133.339844c-2.085937-13.445312-13.691406-23.34375-27.296875-23.289062h-25.820312v-24.386719c0-41.550781-33.683594-75.234375-75.234376-75.234375-41.550781 0-75.234374 33.683594-75.234374 75.234375v24.386719h-25.816407c-13.605469-.058594-25.210937 9.84375-27.300781 23.289062l-38.539062 217.578125c-.074219.40625-.109376.8125-.109376 1.222657.03125 26.65625 21.632813 48.257812 48.292969 48.289062h194.167969c23.230469 28.929688 62.867188 38.871094 96.996094 24.332031 34.132812-14.539062 54.425781-50.011719 49.65625-86.804687-4.765625-36.789063-33.429688-65.917969-70.140625-71.277344zm-213.207031-181.015625c0-33.820313 27.417968-61.234375 61.234374-61.234375 33.820313 0 61.234376 27.414062 61.234376 61.234375v24.386719h-122.46875zm-91.757813 267.0625 38.4375-217.011719c.007813-.042968.015625-.089844.023437-.132812 1.015626-6.652344 6.75-11.558594 13.480469-11.53125h25.816407v38.035156c0 3.867188 3.136718 7 7 7 3.867187 0 7-3.132812 7-7v-38.035156h122.46875v38.035156c0 3.867188 3.132812 7 7 7 3.867187 0 7-3.132812 7-7v-38.035156h25.820312c6.726562-.027344 12.464844 4.878906 13.476562 11.53125.007813.042968.015626.089844.023438.132812l23.054688 130.144532c-28.410157.828124-54.410157 16.167968-68.875 40.636718-14.460938 24.46875-15.367188 54.644532-2.394532 79.933594h-185.042968c-18.703126-.019531-33.949219-15.003906-34.289063-33.703125zm293 64.652344c-21.894531-.050781-42.472656-10.46875-55.464844-28.09375-15.328125-20.902344-17.605469-48.648438-5.894531-71.769531 11.714844-23.125 35.429688-37.703126 61.351562-37.710938 1.808594 0 3.640626.070312 5.441407.210938 36.816406 2.921874 64.753906 34.394531 63.292969 71.296874-1.460938 36.902344-31.800782 66.066407-68.734376 66.070313zm0 0"/><path d="m307.476562 304.703125c7.175782.007813 12.992188 5.824219 13 13 0 3.867187 3.136719 7 7 7 3.867188 0 7-3.132813 7-7-.015624-12.210937-8.210937-22.894531-20-26.074219v-4.914062c0-3.867188-3.132812-7-7-7-3.863281 0-7 3.132812-7 7v4.914062c-13.078124 3.515625-21.527343 16.179688-19.757812 29.605469 1.773438 13.425781 13.214844 23.464844 26.757812 23.46875 7.066407.121094 12.742188 5.859375 12.78125 12.925781.039063 7.066406-5.574218 12.867188-12.636718 13.066406-.046875 0-.097656-.007812-.144532-.007812-.042968 0-.097656.007812-.144531.007812-7.117187-.085937-12.84375-5.875-12.855469-12.992187 0-3.867187-3.132812-7-7-7-3.863281 0-7 3.132813-7 7 .019532 12.210937 8.210938 22.894531 20 26.074219v5.824218c0 3.867188 3.136719 7 7 7 3.867188 0 7-3.132812 7-7v-5.828124c13.082032-3.515626 21.535157-16.175782 19.761719-29.605469-1.769531-13.425781-13.214843-23.464844-26.761719-23.46875-7.179687 0-13-5.820313-13-13 0-7.179688 5.820313-13 13-13zm0 0"/></svg>