<svg height="484pt" viewBox="0 -75 484 484" width="484pt" xmlns="http://www.w3.org/2000/svg"><path d="m345.152344 199.386719c-7.304688-.007813-14.507813 1.746093-21 5.105469-19.253906-9.949219-42.847656-5.027344-56.519532 11.792968-13.671874 16.816406-13.671874 40.921875 0 57.738282 13.671876 16.820312 37.265626 21.742187 56.519532 11.792968 16.863281 8.710938 37.355468 6.109375 51.503906-6.539062 14.152344-12.648438 19.027344-32.71875 12.257812-50.449219-6.769531-17.730469-23.78125-29.445313-42.761718-29.441406zm-73.765625 45.765625c0-17.542969 14.222656-31.761719 31.765625-31.761719 17.542968 0 31.765625 14.222656 31.765625 31.765625s-14.222657 31.765625-31.765625 31.765625c-17.535156-.019531-31.746094-14.230469-31.765625-31.769531zm73.765625 31.769531c-2.722656-.003906-5.433594-.359375-8.066406-1.054687 15.78125-17.433594 15.78125-43.992188 0-61.425782 11.921874-3.132812 24.578124.914063 32.46875 10.382813 7.890624 9.46875 9.59375 22.648437 4.367187 33.808593-5.230469 11.164063-16.441406 18.292969-28.769531 18.289063zm0 0"/><path d="m437 0h-340c-23.242188.03125-42.984375 17.019531-46.476562 40h-3.523438c-25.945312.027344-46.9726562 21.054688-47 47v200c.0273438 25.945312 21.054688 46.972656 47 47h340c23.242188-.03125 42.984375-17.019531 46.476562-40h3.523438c25.945312-.027344 46.972656-21.054688 47-47v-200c-.027344-25.945312-21.054688-46.9726562-47-47zm-423 116.460938h406v29.078124h-406zm418.792969-40h37.207031v29.078124h-36v-18.539062c-.003906-3.546875-.40625-7.082031-1.207031-10.539062zm-335.792969-62.460938h340c18.214844.019531 32.980469 14.785156 33 33v15.460938h-42.933594c-8.539062-13.945313-23.714844-22.453126-40.066406-22.460938h-322.246094c3.3125-15.164062 16.726563-25.980469 32.246094-26zm-50 40h340c18.214844.019531 32.980469 14.785156 33 33v15.460938h-406v-15.460938c.019531-18.214844 14.785156-32.980469 33-33zm340 266h-340c-18.214844-.019531-32.980469-14.785156-33-33v-127.460938h406v127.460938c-.019531 18.214844-14.785156 32.980469-33 33zm50-40h-3v-160.460938h36v127.460938c-.019531 18.214844-14.785156 32.980469-33 33zm0 0"/></svg>