<svg height="438pt" viewBox="0 -63 438.294 438" width="438pt" xmlns="http://www.w3.org/2000/svg"><path d="m7 118.363281h7.378906v132.394531c.015625 15.101563 12.257813 27.34375 27.359375 27.359376h38.152344c3.410156 20.207031 20.910156 35 41.402344 35 20.496093 0 37.992187-14.792969 41.40625-35h147.191406c3.410156 20.207031 20.910156 35 41.402344 35 20.496093 0 37.992187-14.792969 41.40625-35h18.59375c14.90625-.015626 26.984375-12.09375 27-27v-89.566407c0-.058593-.003907-.113281-.007813-.171875 0-.125-.007812-.25-.019531-.378906-.007813-.109375-.019531-.214844-.03125-.324219-.015625-.105469-.035156-.234375-.054687-.351562-.019532-.113281-.039063-.222657-.066407-.332031-.023437-.105469-.054687-.21875-.085937-.328126-.03125-.113281-.0625-.222656-.097656-.328124-.039063-.109376-.078126-.214844-.117188-.320313-.042969-.109375-.085938-.210937-.132812-.316406-.046876-.105469-.097657-.207031-.148438-.308594-.046875-.101563-.101562-.199219-.160156-.300781-.054688-.097656-.113282-.191406-.175782-.289063-.058593-.09375-.128906-.199219-.199218-.296875-.066406-.101562-.125-.175781-.191406-.261718-.078126-.097657-.160157-.199219-.246094-.292969-.035156-.042969-.070313-.089844-.109375-.132813l-51.515625-56.132812c-5.117188-5.5625-12.332032-8.734375-19.894532-8.742188h-33.125c-1.0625-.261718-2.175781-.261718-3.238281 0h-63.902343c-3.863282 0-7 3.132813-7 7v165.175782h-41.648438c2.296875-4.078126 3.503906-8.679688 3.5-13.359376v-132.394531h7.378906c3.867188 0 7-3.132812 7-7v-38.414062c-.015625-15.105469-12.257812-27.34375-27.359375-27.359375h-18.648437l.925781-.953125c10.175781-10.179688 10.175781-26.679688 0-36.855469-10.179687-10.179688-26.679687-10.179688-36.855469 0l-34.511718 34.507812-25.191407-25.191406c-8.8125-8.789062-22.605469-10.128906-32.941406-3.199218-10.335937 6.933593-14.332031 20.203124-9.542969 31.691406h-22.519531c-15.101563.015625-27.34375 12.253906-27.359375 27.359375v38.414062c0 3.867188 3.132812 7 7 7zm21.378906 132.394531v-132.394531h58.714844v128.421875c-3.683594 5.15625-6.148438 11.082032-7.199219 17.332032h-38.15625c-7.375-.007813-13.351562-5.984376-13.359375-13.359376zm88.640625-191.167968c.042969 0 .085938.003906.132813.003906.042968 0 .085937-.003906.132812-.003906h15.109375v44.773437h-31.296875v-44.773437zm15.375 58.773437v112.253907c-10.515625-2.894532-21.742187-1.570313-31.296875 3.691406v-115.945313zm-11.097656 180.753907c-15.464844 0-28-12.535157-28-28 0-15.464844 12.535156-28 28-28s28 12.535156 28 28c-.019531 15.457031-12.546875 27.984374-28.003906 28zm230 0c-15.464844 0-28-12.535157-28-28 0-15.464844 12.535156-28 28-28s28 12.535156 28 28c-.019531 15.457031-12.546875 27.984374-28.003906 28zm73-48c-.007813 7.175781-5.824219 12.992187-13 13h-18.597656c-3.414063-20.207032-20.910157-35-41.40625-35-20.492188 0-37.992188 14.792968-41.402344 35h-38.117187v-95.566407h56.898437c1.0625.261719 2.171875.261719 3.234375 0h92.382812zm-49.675781-140.964844 40.746094 44.402344h-78.074219v-48.609376h27.753906c3.640625.003907 7.109375 1.53125 9.574219 4.207032zm-51.328125-4.207032v48.605469h-51.519531v-48.605469zm-117.671875 144.8125c-.011719 7.375-5.988282 13.351563-13.363282 13.359376h-29.558593c-1.808594-10.648438-7.644531-20.191407-16.300781-26.652344v-119.101563h59.226562zm14.378906-177.808593v31.414062h-73.601562v-44.773437h60.242187c7.375.007812 13.351563 5.984375 13.359375 13.359375zm-58.035156-55.269531c3.054687-3.054688 7.511718-4.242188 11.679687-3.113282 4.171875 1.125 7.417969 4.398438 8.515625 8.578125 1.097656 4.179688-.125 8.625-3.199218 11.65625l-10.515626 10.789063h-34.386718zm-96.5625 26.375c-4.664063-4.71875-4.644532-12.320313.046875-17.011719 4.691406-4.695313 12.296875-4.714844 17.011719-.046875l18.59375 18.59375h-34.117188zm-51.398438 28.898437c.007813-7.375 5.984375-13.351563 13.359375-13.359375h59.734375v44.773438h-73.097656zm0 0"/></svg>