<svg height="483pt" viewBox="0 -102 483 483" width="483pt" xmlns="http://www.w3.org/2000/svg"><path d="m482.972656 126.875c-.007812-.105469-.019531-.210938-.03125-.316406-.015625-.105469-.035156-.238282-.054687-.359375-.023438-.121094-.042969-.21875-.066407-.328125-.023437-.105469-.054687-.222656-.085937-.335938-.03125-.109375-.0625-.214844-.101563-.320312-.035156-.109375-.074218-.21875-.117187-.324219-.042969-.109375-.082031-.210937-.128906-.3125s-.101563-.207031-.148438-.3125c-.050781-.101563-.101562-.199219-.160156-.296875-.0625-.101562-.117187-.195312-.175781-.289062-.0625-.097657-.132813-.203126-.203125-.300782-.066407-.101562-.125-.175781-.191407-.261718-.066406-.085938-.160156-.199219-.242187-.292969-.039063-.042969-.070313-.089844-.113281-.132813l-51.511719-56.128906c-5.121094-5.5625-12.332031-8.734375-19.894531-8.742188h-100.269532c-3.863281 0-7 3.132813-7 7v140.175782h-24.476562v-17c0-3.867188-3.132812-7-7-7h-264c-3.867188 0-7 3.132812-7 7v49c0 3.863281 3.132812 7 7 7h37.59375c3.410156 20.207031 20.914062 35 41.40625 35s37.996094-14.792969 41.40625-35h17.1875c3.410156 20.207031 20.914062 35 41.40625 35s37.996094-14.792969 41.40625-35h127.1875c3.410156 20.207031 20.914062 35 41.40625 35s37.996094-14.792969 41.40625-35h18.59375c14.90625-.019532 26.984375-12.097656 27-27v-89.566406c0-.058594-.007812-.113282-.007812-.171876-.003907-.125-.011719-.253906-.019532-.382812zm-63.648437-50.84375 40.75 44.398438h-78.074219v-48.609376h27.746094c3.640625.003907 7.113281 1.53125 9.578125 4.210938zm-51.324219-4.210938v48.609376h-51.523438v-48.609376zm-354 123.175782h250v17c0 3.863281 3.132812 7 7 7h31.476562v11h-75.070312c-3.410156-20.207032-20.914062-35.003906-41.40625-35.003906s-37.996094 14.796874-41.40625 35.003906h-17.1875c-3.410156-20.207032-20.914062-35.003906-41.40625-35.003906s-37.996094 14.796874-41.40625 35.003906h-30.59375zm72 70c-15.464844 0-28-12.539063-28-28 0-15.464844 12.535156-28 28-28s28 12.535156 28 28c-.019531 15.457031-12.542969 27.980468-28 28zm100 0c-15.304688 0-27.773438-12.285156-28-27.585938-.226562-15.300781 11.871094-27.949218 27.167969-28.402344 15.296875-.453124 28.121093 11.457032 28.800781 26.746094-.15625.820313-.15625 1.664063 0 2.484375-.679688 14.957031-12.996094 26.738281-27.96875 26.757813zm210 0c-15.464844 0-28-12.539063-28-28 0-15.464844 12.535156-28 28-28s28 12.535156 28 28c-.019531 15.457031-12.542969 27.980468-28 28zm73-48c-.007812 7.175781-5.824219 12.992187-13 13h-18.59375c-3.410156-20.207032-20.914062-35.003906-41.40625-35.003906s-37.996094 14.796874-41.40625 35.003906h-38.117188v-95.566406h152.523438zm0 0"/><path d="m7 174h264c3.867188 0 7-3.132812 7-7v-160c0-3.867188-3.132812-7-7-7h-32.898438c-.035156 0-.066406 0-.101562 0s-.0625 0-.101562 0h-32.796876c-.035156 0-.066406 0-.101562 0s-.0625 0-.101562 0h-32.796876c-.035156 0-.066406 0-.101562 0s-.0625 0-.101562 0h-164.898438c-3.867188 0-7 3.132812-7 7v160c0 3.867188 3.132812 7 7 7zm191-14h-19v-146h19zm14-146h19v146h-19zm-47 146h-19v-146h19zm-99-36v36h-19v-36zm14 0h19v36h-19zm33 0h19v36h-19zm19-74h-19v-36h19zm-33 0h-19v-36h19zm-33 0h-19v-36h19zm66 14v46h-118v-46zm-118 60h19v36h-19zm250 36h-19v-146h19zm-250-146h19v36h-19zm0 0"/></svg>