<svg height="424pt" viewBox="0 -32 424.01095 424" width="424pt" xmlns="http://www.w3.org/2000/svg"><path d="m230.488281 40.039062h-70.296875c-17.453125-27.222656-48.570312-42.519531-80.789062-39.703124-32.214844 2.8125-60.210938 23.269531-72.679688 53.109374-12.46875 29.839844-7.347656 64.132813 13.289063 89.03125v156.300782c.015625 14.90625 12.09375 26.984375 27 27h18.597656c3.414063 20.207031 20.914063 35 41.40625 35s37.992187-14.792969 41.40625-35h147.1875c3.414063 20.207031 20.914063 35 41.40625 35s37.992187-14.792969 41.40625-35h18.589844c14.902343-.015625 26.984375-12.09375 27-27v-89.5625c0-.058594-.007813-.113282-.011719-.175782 0-.125-.007812-.25-.015625-.375-.007813-.109374-.019531-.21875-.035156-.324218-.011719-.105469-.03125-.234375-.050781-.351563-.023438-.117187-.042969-.222656-.066407-.332031-.027343-.109375-.054687-.222656-.085937-.332031s-.0625-.21875-.101563-.328125c-.039062-.105469-.074219-.214844-.117187-.320313-.039063-.105469-.082032-.210937-.128906-.3125-.046876-.105469-.101563-.207031-.152344-.308593-.046875-.105469-.097656-.203126-.160156-.300782-.058594-.101562-.113282-.195312-.175782-.289062-.058594-.097656-.128906-.199219-.199218-.300782-.066407-.101562-.125-.171874-.191407-.257812-.066406-.085938-.160156-.199219-.242187-.292969-.039063-.042969-.074219-.089843-.113282-.132812l-51.511718-56.132813c-5.121094-5.5625-12.332032-8.734375-19.894532-8.742187h-93.269531v-72.566407c-.015625-14.902343-12.09375-26.980468-27-27zm-143.476562-26c40.316406 0 73 32.683594 73 73 0 40.320313-32.683594 73-73 73-40.316407 0-73-32.679687-73-73 .046875-40.296874 32.703125-72.953124 73-73zm-53 284.738282v-142.796875c31.171875 23.976562 74.554687 24.054687 105.808593.183593 31.257813-23.867187 42.605469-65.738281 27.683594-102.125h62.984375c7.175781.011719 12.992188 5.824219 13 13v244.738282h-95.074219c-3.410156-20.207032-20.910156-35-41.402343-35-20.492188 0-37.992188 14.792968-41.40625 35h-18.59375c-7.175781-.007813-12.992188-5.820313-13-13zm73 48c-15.464844 0-28-12.535156-28-28 0-15.460938 12.535156-28 28-28 15.464843 0 28 12.539062 28 28-.019531 15.457031-12.542969 27.984375-28 28zm230 0c-15.464844 0-28-12.535156-28-28 0-15.460938 12.535156-28 28-28 15.464843 0 28 12.539062 28 28-.019531 15.457031-12.542969 27.984375-28 28zm73-48c-.007813 7.179687-5.824219 12.992187-13 13h-18.601563c-3.410156-20.207032-20.910156-35-41.402344-35-20.496093 0-37.996093 14.792968-41.40625 35h-38.113281v-95.5625h152.523438zm-59.253907-145.167969c3.640626.003906 7.113282 1.53125 9.578126 4.210937l40.75 44.398438h-143.601563v-48.609375zm0 0"/><path d="m87.285156 94.199219h41.601563c3.863281 0 7-3.132813 7-7 0-3.867188-3.136719-7-7-7h-34.601563v-34.601563c0-3.863281-3.132812-7-7-7-3.867187 0-7 3.136719-7 7v41.601563c0 3.867187 3.132813 7 7 7zm0 0"/></svg>