<svg height="360pt" viewBox="-3 0 360 360.13443" width="360pt" xmlns="http://www.w3.org/2000/svg"><path d="m7.066406 159.609375h15.222656v162.058594c.023438 21.234375 17.234376 38.441406 38.46875 38.464843h232.621094c21.234375-.023437 38.441406-17.230468 38.464844-38.464843v-162.058594h15.222656c3.867188 0 7-3.132813 7-7v-43.914063c-.023437-21.234374-17.230468-38.445312-38.464844-38.46875h-37.863281l7.78125-7.988281c14.238281-14.238281 14.238281-37.320312 0-51.558593-14.238281-14.238282-37.320312-14.238282-51.558593 0l-56.035157 56.03125-41.632812-41.632813c-13.117188-13.117187-33.992188-14.296875-48.5-2.734375-14.507813 11.558594-18.019531 32.171875-8.160157 47.882812h-41.101562c-21.234375.027344-38.4414062 17.234376-38.4648438 38.46875v43.914063c0 3.867187 3.1367188 7 6.9999998 7zm310.777344 162.058594c-.015625 13.507812-10.960938 24.453125-24.464844 24.464843h-232.621094c-13.507812-.011718-24.453124-10.957031-24.46875-24.464843v-162.058594h281.554688zm-140.746094-237.441407c.066406 0 .136719.011719.199219.011719s.136719-.007812.199219-.011719h33.570312v61.382813h-66v-61.382813zm162.96875 24.46875v36.914063h-115v-61.382813h90.535156c13.503907.019532 24.449219 10.960938 24.464844 24.46875zm-96.207031-88.117187c8.789063-8.753906 23.007813-8.726563 31.761719.0625s8.726562 23.011719-.0625 31.765625l-17.363282 17.820312h-63.984374zm-149.230469 46.160156c-8.769531-8.769531-8.769531-22.992187 0-31.761719 8.773438-8.769531 22.992188-8.769531 31.761719 0l35.25 35.25h-63.519531zm-80.5625 41.957031c.019532-13.507812 10.960938-24.449218 24.46875-24.46875h92.53125v61.382813h-117zm0 0"/><path d="m106.539062 272.984375-1.183593 23.757813c-.164063 3.289062 1.984375 6.246093 5.160156 7.105468l22.960937 6.222656 13.007813 19.914063c1.800781 2.757813 5.277344 3.886719 8.355469 2.714844l22.226562-8.472657 22.230469 8.46875c3.074219 1.171876 6.554687.042969 8.351563-2.714843l13.007812-19.910157 22.960938-6.21875c3.179687-.859374 5.328124-3.816406 5.164062-7.105468l-1.1875-23.757813 14.925781-18.523437c2.0625-2.5625 2.0625-6.21875 0-8.785156l-14.925781-18.523438 1.1875-23.757812c.164062-3.285157-1.984375-6.246094-5.164062-7.105469l-22.960938-6.214844-13.007812-19.917969c-1.796876-2.753906-5.277344-3.886718-8.351563-2.710937l-22.230469 8.460937-22.226562-8.46875c-3.078125-1.171875-6.554688-.042968-8.355469 2.714844l-13.007813 19.917969-22.960937 6.214843c-3.175781.859376-5.324219 3.816407-5.160156 7.105469l1.183593 23.757813-14.921874 18.523437c-2.066407 2.5625-2.066407 6.222657 0 8.785157zm12.574219-39.125c1.078125-1.335937 1.628907-3.023437 1.542969-4.742187l-1.039062-20.789063 20.09375-5.4375c1.65625-.449219 3.09375-1.492187 4.03125-2.929687l11.382812-17.429688 19.449219 7.414062c1.605469.609376 3.378906.609376 4.984375 0l19.453125-7.414062 11.378906 17.429688c.941406 1.4375 2.375 2.480468 4.03125 2.929687l20.09375 5.4375-1.035156 20.789063c-.085938 1.71875.460937 3.40625 1.539062 4.742187l13.058594 16.210937-13.058594 16.207032c-1.078125 1.339844-1.625 3.023437-1.539062 4.742187l1.035156 20.789063-20.09375 5.4375c-1.65625.449218-3.089844 1.492187-4.03125 2.929687l-11.378906 17.429688-19.453125-7.410157c-1.605469-.613281-3.378906-.613281-4.984375 0l-19.449219 7.410157-11.382812-17.429688c-.9375-1.4375-2.375-2.480469-4.03125-2.929687l-20.09375-5.4375 1.039062-20.789063c.085938-1.71875-.464844-3.402343-1.542969-4.742187l-13.058593-16.207032zm0 0"/><path d="m152.878906 243.875c11.457032 0 20.742188-9.289062 20.742188-20.746094 0-11.457031-9.285156-20.742187-20.742188-20.742187-11.457031 0-20.746094 9.289062-20.746094 20.742187.015626 11.453125 9.292969 20.734375 20.746094 20.746094zm0-27.488281c3.726563 0 6.742188 3.019531 6.742188 6.746093 0 3.722657-3.019532 6.742188-6.742188 6.742188-3.726562 0-6.746094-3.019531-6.746094-6.746094.003907-3.722656 3.023438-6.738281 6.746094-6.742187zm0 0"/><path d="m179.414062 278.105469c0 11.457031 9.285157 20.742187 20.742188 20.742187s20.746094-9.285156 20.746094-20.742187-9.289063-20.746094-20.746094-20.742188c-11.453125.011719-20.730469 9.289063-20.742188 20.742188zm27.484376 0c0 3.722656-3.019532 6.742187-6.742188 6.742187-3.726562 0-6.742188-3.019531-6.742188-6.742187 0-3.726563 3.015626-6.742188 6.742188-6.742188 3.722656.003907 6.738281 3.019531 6.742188 6.742188zm0 0"/><path d="m152.3125 288.023438c3.242188 2.109374 7.578125 1.199218 9.691406-2.039063l44.015625-67.496094c1.398438-2.09375 1.566407-4.78125.433594-7.03125-1.128906-2.25-3.382813-3.722656-5.902344-3.847656-2.515625-.128906-4.90625 1.105469-6.257812 3.230469l-44.019531 67.496094c-2.109376 3.238281-1.195313 7.574218 2.039062 9.6875zm0 0"/></svg>