<svg height="426pt" viewBox="-6 0 426 426.82355" width="426pt" xmlns="http://www.w3.org/2000/svg"><path d="m207.855469 80.3125 35 30c.011719.007812.023437.015625.035156.023438.289063.246093.601563.464843.925781.660156.046875.027344.089844.054687.132813.078125.316406.179687.648437.335937.988281.464843.054688.019532.105469.039063.160156.058594.339844.121094.691406.210938 1.042969.277344.054687.011719.101563.015625.160156.023438.734375.132812 1.488281.132812 2.222657 0 .054687-.007813.101562-.011719.160156-.023438.351562-.066406.703125-.15625 1.042968-.277344.050782-.019531.105469-.039062.160157-.058594.339843-.128906.671875-.285156.988281-.464843.042969-.023438.085938-.050781.128906-.078125.328125-.195313.636719-.414063.929688-.660156.011718-.007813.023437-.015626.035156-.023438l35-30c2.933594-2.515625 3.273438-6.9375.757812-9.871094-2.515624-2.9375-6.933593-3.277344-9.871093-.757812l-23.445313 20.09375v-82.777344c0-3.867188-3.132812-7-7-7-3.863281 0-7 3.132812-7 7v82.78125l-23.441406-20.101562c-2.9375-2.515626-7.355469-2.175782-9.871094.757812-2.515625 2.9375-2.175781 7.355469.757813 9.871094zm0 0"/><path d="m7.410156 87.0625h42.703125c14.019531-.054688 25.980469 10.128906 28.15625 23.980469l33.792969 253.425781c.007812.054688.015625.113281.023438.167969 3.195312 20.703125 21.054687 35.957031 42 35.875h5.875c2.578124 15.195312 15.742187 26.3125 31.15625 26.3125 15.410156 0 28.574218-11.117188 31.152343-26.3125h58.472657c2.707031 15.863281 16.898437 27.160156 32.96875 26.242187 16.066406-.921875 28.875-13.765625 29.753906-29.835937.878906-16.070313-10.457032-30.234375-26.328125-32.898438-15.871094-2.667969-31.210938 7.015625-35.632813 22.492188h-60c-3.867187-13.574219-16.273437-22.933594-30.386718-22.933594-14.113282 0-26.519532 9.359375-30.386719 22.933594h-6.640625c-14.023438.054687-25.984375-10.132813-28.160156-23.984375l-10.183594-76.382813h218.402344c18.117187-.007812 34.238281-11.484375 40.179687-28.597656l39.699219-114.578125c.742187-2.140625.402344-4.507812-.910156-6.351562-1.316407-1.847657-3.441407-2.941407-5.707032-2.941407h-312l-3.277344-24.574219c-.007812-.058593-.015624-.113281-.027343-.171874-3.191407-20.703126-21.050781-35.957032-42-35.871094h-42.695313c-3.863281 0-7 3.132812-7 7 0 3.867187 3.136719 7 7 7zm304.480469 290.519531c9.726563 0 17.609375 7.882813 17.609375 17.609375 0 9.726563-7.882812 17.613282-17.609375 17.613282s-17.613281-7.886719-17.613281-17.613282c.011718-9.71875 7.890625-17.597656 17.613281-17.609375zm-120.78125 0c9.726563 0 17.613281 7.882813 17.613281 17.609375 0 9.726563-7.882812 17.613282-17.609375 17.613282-9.726562 0-17.613281-7.886719-17.613281-17.613282.011719-9.71875 7.890625-17.597656 17.613281-17.609375zm206.46875-229.90625-36.480469 105.285157c-3.980468 11.480468-14.796875 19.179687-26.949218 19.183593h-220.277344l-16.597656-124.46875zm0 0"/></svg>