<svg height="414pt" viewBox="0 -30 414.0026 414" width="414pt" xmlns="http://www.w3.org/2000/svg"><path d="m7 14h42.699219c14.019531-.054688 25.984375 10.132812 28.160156 23.984375l33.792969 253.425781c.007812.054688.015625.113282.023437.167969 3.195313 20.703125 21.050781 35.957031 42 35.875h5.875c2.578125 15.191406 15.742188 26.3125 31.152344 26.3125 15.414063 0 28.578125-11.121094 31.15625-26.3125h58.46875c2.707031 15.863281 16.902344 27.160156 32.96875 26.242187 16.070313-.921874 28.878906-13.765624 29.757813-29.835937.878906-16.070313-10.457032-30.234375-26.328126-32.902344-15.871093-2.664062-31.210937 7.019531-35.632812 22.496094h-60c-3.871094-13.574219-16.273438-22.9375-30.390625-22.9375-14.113281 0-26.515625 9.363281-30.386719 22.9375h-6.640625c-14.019531.058594-25.984375-10.128906-28.164062-23.980469l-10.183594-76.382812h218.40625c18.117187-.007813 34.242187-11.484375 40.179687-28.601563l39.699219-114.574219c.746094-2.140624.40625-4.511718-.90625-6.355468-1.316406-1.847656-3.441406-2.945313-5.707031-2.941406h-312l-3.277344-24.574219c-.007812-.054688-.015625-.113281-.023437-.167969-3.195313-20.703125-21.050781-35.9570312-42-35.875h-42.699219c-3.867188 0-7 3.136719-7 7 0 3.867188 3.132812 7 7 7zm304.476562 290.523438c9.726563 0 17.613282 7.882812 17.613282 17.609374 0 9.726563-7.886719 17.609376-17.613282 17.609376-9.726562 0-17.609374-7.882813-17.609374-17.609376.011718-9.722656 7.890624-17.597656 17.609374-17.609374zm-120.777343 0c9.726562-.003907 17.613281 7.882812 17.613281 17.609374 0 9.726563-7.886719 17.609376-17.613281 17.609376-9.726563 0-17.609375-7.882813-17.609375-17.609376.011718-9.722656 7.886718-17.601562 17.609375-17.609374zm206.464843-229.90625-36.476562 105.285156c-3.984375 11.480468-14.800781 19.179687-26.953125 19.183594h-220.273437l-16.601563-124.46875zm0 0"/><path d="m244.835938 187.929688c.125.050781.25.09375.375.136718 2.234374.8125 4.6875.8125 6.921874 0 .144532-.046875.28125-.101562.421876-.15625 42.597656-17.257812 56.941406-49.300781 52.261718-73.394531l-.007812-.050781c-3.578125-17.730469-16.554688-29.1875-33.066406-29.1875-7.433594 0-15.308594 2.476562-23.007813 7.195312-7.789063-4.945312-15.59375-7.445312-23.257813-7.445312-16.621093 0-29.554687 11.585937-32.953124 29.5-4.671876 24.351562 9.691406 56.492187 52.3125 73.402344zm-38.5625-70.773438c2.121093-11.183594 9.480468-18.128906 19.203124-18.128906 5.847657 0 12.421876 2.601562 19.007813 7.511718 2.457031 1.835938 5.820313 1.855469 8.300781.054688 6.5-4.714844 13.230469-7.316406 18.957032-7.316406 9.6875 0 17.101562 6.871094 19.335937 17.929687 3.523437 18.222657-8.269531 42.820313-42.421875 57.167969-34.148438-14.058594-45.921875-38.761719-42.382812-57.21875zm0 0"/></svg>