<svg height="424pt" viewBox="0 -10 424.157 424" width="424pt" xmlns="http://www.w3.org/2000/svg"><path d="m7 14.078125h52.578125c18.808594.023437 34.046875 15.261719 34.066406 34.066406v257.027344c-25.46875 3.109375-44.371093 25.121094-43.59375 50.773437.777344 25.648438 20.972657 46.476563 46.585938 48.039063 25.613281 1.566406 48.199219-16.648437 52.089843-42.015625h268.429688c3.867188 0 7-3.132812 7-7 0-3.863281-3.132812-7-7-7h-268.292969c-2.886719-21.699219-19.617187-38.960938-41.214843-42.519531v-257.300781c-.03125-26.535157-21.535157-48.039063-48.070313-48.070313h-52.578125c-3.867188 0-7 3.132813-7 7s3.132812 7 7 7zm128.300781 340.359375c0 19.683594-15.957031 35.640625-35.644531 35.640625-19.683594 0-35.640625-15.957031-35.640625-35.640625 0-19.6875 15.957031-35.644531 35.640625-35.644531 19.675781.023437 35.621094 15.96875 35.644531 35.644531zm0 0"/><path d="m185.058594 331.246094h164.199218c16.125-.019532 29.191407-13.085938 29.210938-29.214844v-112.335938h8.6875c3.863281 0 7-3.132812 7-7v-31c-.019531-16.125-13.085938-29.195312-29.214844-29.210937h-21.839844l2.070313-2.125c7.042969-7.015625 9.800781-17.261719 7.230469-26.867187-2.566406-9.605469-10.070313-17.109376-19.675782-19.675782-9.601562-2.566406-19.847656.191406-26.867187 7.234375l-38.097656 38.101563-27.933594-27.933594c-9.519531-9.511719-24.484375-10.835938-35.527344-3.144531-11.042969 7.6875-14.992187 22.183593-9.375 34.414062h-25.554687c-16.125.015625-29.195313 13.085938-29.214844 29.210938v31c0 3.867187 3.136719 7 7 7h8.6875v112.332031c.019531 16.128906 13.085938 29.195312 29.214844 29.214844zm-15.214844-29.214844v-112.335938h62.785156v127.550782h-47.570312c-8.398438-.011719-15.207032-6.816406-15.214844-15.214844zm97.335938-165.546875c.046874 0 .097656.007813.140624.007813.042969 0 .097657-.007813.144532-.007813h21.632812v39.210937h-42.46875v-39.210937zm21.917968 53.210937v127.550782h-42.46875v-127.550782zm75.375 112.335938c-.011718 8.398438-6.816406 15.203125-15.214844 15.214844h-46.160156v-127.550782h61.375zm15.683594-150.335938v24h-77.054688v-39.210937h61.84375c8.398438.007813 15.203126 6.816406 15.210938 15.210937zm-64.398438-60.742187c5.402344-5.367187 14.136719-5.339844 19.507813.0625 5.367187 5.40625 5.339844 14.140625-.066406 19.511719l-11.648438 11.957031h-26.242187c-.800782-.148437-1.625-.148437-2.429688 0h-10.648437zm-105.332031 29.671875c-5.390625-5.386719-5.390625-14.121094-.003906-19.507812 5.386719-5.386719 14.121094-5.386719 19.507813 0l21.371093 21.367187h-10.457031c-.804688-.148437-1.625-.148437-2.429688 0h-26.136718zm-56.269531 31.070312c.011719-8.394531 6.816406-15.203124 15.214844-15.210937h63.257812v39.210937h-78.472656zm0 0"/></svg>