<svg height="470pt" viewBox="0 -28 470.00004 470" width="470pt" xmlns="http://www.w3.org/2000/svg"><path d="m415 67.765625-56.398438 53.867187-29.960937-29.957031c-2.734375-2.734375-7.164063-2.734375-9.898437 0-2.734376 2.734375-2.734376 7.164063 0 9.898438l34.800781 34.800781c2.6875 2.691406 7.035156 2.738281 9.785156.113281l61.339844-58.59375c2.796875-2.671875 2.902343-7.101562.230469-9.898437-2.671876-2.796875-7.101563-2.898438-9.898438-.230469zm0 0"/><path d="m370.683594 0c-42.574219.0507812-80.398438 27.1875-94.089844 67.5h-161c-1.664062-.667969-3.515625-.667969-5.179688 0h-63.414062c-25.945312.027344-46.9726562 21.054688-47 47v251.5c.0273438 25.945312 21.054688 46.972656 47 47h360c25.945312-.027344 46.972656-21.054688 47-47v-212.6875c19.816406-30.53125 21.332031-69.460938 3.953125-101.441406-17.378906-31.984375-50.871094-51.886719-87.269531-51.871094zm0 198.632812c25.914062.015626 50.800781-10.132812 69.316406-28.265624v121.632812h-269.238281c9.867187-6.597656 15.804687-17.671875 15.839843-29.539062 0-19.714844-16.253906-35.753907-36.230468-35.753907-12.214844-.011719-23.617188 6.097657-30.371094 16.273438v-161.480469h152.96875c-5.269531 28.980469 2.589844 58.804688 21.457031 81.425781 18.871094 22.617188 46.800781 35.699219 76.257813 35.707031zm-317.285156 63.828126c.148437-12.140626 10.09375-21.871094 22.230468-21.753907 3.957032-.003906 7.84375 1.03125 11.277344 3 5.484375 3.136719 9.339844 8.496094 10.5625 14.695313l6.101562 31.445312-32.125-6.027344c-10.367187-1.855468-17.945312-10.828124-18.046874-21.359374zm69.035156 27.390624 6.097656-31.445312c2.328125-11.070312 12.578125-18.640625 23.84375-17.601562 11.261719 1.035156 19.960938 10.347656 20.226562 21.65625-.097656 10.53125-7.675781 19.503906-18.042968 21.363281zm-75.433594-208.351562h59v161.484375c-3.089844-4.691406-7.234375-8.59375-12.101562-11.398437-5.554688-3.199219-11.855469-4.882813-18.265626-4.878907-19.980468 0-36.230468 16.039063-36.230468 35.753907.03125 11.867187 5.96875 22.941406 15.835937 29.539062h-41.238281v-177.5c.019531-18.214844 14.785156-32.980469 33-33zm-33 284.5v-60h82.101562l-33.050781 33.050781c-2.734375 2.734375-2.734375 7.164063 0 9.898438s7.164063 2.734375 9.898438 0l33.050781-33.050781v83.101562h-59c-18.214844-.019531-32.980469-14.785156-33-33zm393 33h-287v-83.101562l44.550781 44.550781c2.734375 2.734375 7.164063 2.734375 9.898438 0s2.734375-7.164063 0-9.898438l-44.550781-44.550781h310.101562v60c-.019531 18.214844-14.785156 32.980469-33 33zm-36.316406-214.367188c-47.117188 0-85.316406-38.195312-85.316406-85.316406 0-47.117187 38.195312-85.316406 85.316406-85.316406 47.117187 0 85.316406 38.199219 85.316406 85.316406-.054688 47.097656-38.21875 85.261719-85.316406 85.316406zm0 0"/></svg>