<svg height="454pt" viewBox="0 -54 454 454" width="454pt" xmlns="http://www.w3.org/2000/svg"><path d="m407 .5h-291.410156c-1.664063-.667969-3.515625-.667969-5.179688 0h-63.410156c-25.945312.027344-46.9726562 21.054688-47 47v251.5c.0273438 25.945312 21.054688 46.972656 47 47h360c25.945312-.027344 46.972656-21.054688 47-47v-251.5c-.027344-25.945312-21.054688-46.972656-47-47zm33 47v177.5h-270.800781c10.757812-6.421875 17.363281-18.011719 17.402343-30.539062 0-19.714844-16.253906-35.753907-36.230468-35.753907-12.214844-.011719-23.617188 6.097657-30.371094 16.273438v-160.480469h287c18.214844.019531 32.980469 14.785156 33 33zm-386.601562 146.960938c.148437-12.140626 10.09375-21.871094 22.230468-21.753907 3.957032 0 7.84375 1.035157 11.277344 3.007813 5.484375 3.132812 9.339844 8.492187 10.5625 14.691406l6.101562 31.445312-32.125-6.027343c-10.367187-1.855469-17.949218-10.828125-18.046874-21.363281zm69.035156 27.390624 6.097656-31.445312c2.328125-11.070312 12.578125-18.640625 23.84375-17.601562 11.261719 1.035156 19.960938 10.347656 20.226562 21.65625-.097656 10.53125-7.675781 19.503906-18.042968 21.363281zm-75.433594-207.351562h59v160.484375c-3.089844-4.691406-7.234375-8.59375-12.101562-11.398437-5.554688-3.199219-11.855469-4.882813-18.265626-4.878907-19.980468 0-36.230468 16.039063-36.230468 35.753907.039062 12.527343 6.644531 24.121093 17.402344 30.539062h-42.804688v-177.5c.019531-18.214844 14.785156-32.980469 33-33zm-33 284.5v-60h82.101562l-33.050781 33.050781c-2.734375 2.734375-2.734375 7.164063 0 9.898438s7.164063 2.734375 9.898438 0l33.050781-33.050781v83.101562h-59c-18.214844-.019531-32.980469-14.785156-33-33zm393 33h-287v-83.101562l44.550781 44.550781c2.734375 2.734375 7.164063 2.734375 9.898438 0s2.734375-7.164063 0-9.898438l-44.550781-44.550781h310.101562v60c-.019531 18.214844-14.785156 32.980469-33 33zm0 0"/></svg>