<svg height="483pt" viewBox="0 -7 483 483" width="483pt" xmlns="http://www.w3.org/2000/svg"><path d="m182.429688 344.300781v-124.097656c1.511718.234375 3.039062.355469 4.566406.355469 11.007812.023437 21.105468-6.101563 26.171875-15.871094.546875-1.015625.832031-2.152344.832031-3.308594v-32.21875c0-.042968-.007812-.085937-.007812-.128906 0-.074219-.007813-.148438-.011719-.226562-.011719-.242188-.035157-.488282-.074219-.726563-.007812-.0625-.015625-.128906-.027344-.1875-.054687-.300781-.128906-.597656-.222656-.886719-.007812-.03125-.019531-.058594-.027344-.085937-.089844-.261719-.199218-.523438-.320312-.773438-.023438-.054687-.050782-.109375-.078125-.164062-.136719-.269531-.292969-.535157-.460938-.785157-.023437-.03125-.046875-.058593-.070312-.089843-.160157-.226563-.335938-.445313-.523438-.648438-.027343-.03125-.046875-.0625-.074219-.09375l-29.671874-31.570312v-10.660157c-.019532-15.28125-12.402344-27.664062-27.683594-27.679687h-94.199219c-15.285156.015625-27.667969 12.398437-27.683594 27.679687v10.449219l-30.878906 31.691407c-1.253906 1.292968-1.9609375 3.019531-1.9726562 4.820312 0 .085938-.0117188.171875-.0117188.257812v32.023438c0 1.085938.253906 2.160156.738281 3.132812.015625.027344.03125.0625.046875.089844 5.050782 9.816406 15.175782 15.976563 26.214844 15.953125 1.96875 0 3.933594-.199219 5.863281-.585937v124.335937c.015625 15.28125 12.398438 27.667969 27.683594 27.683594h94.199219c15.28125-.015625 27.664062-12.402344 27.683594-27.683594zm-121.886719-235.847656h94.199219c7.554687.007813 13.675781 6.128906 13.683593 13.679687v6.292969h-121.566406v-6.292969c.011719-7.550781 6.132813-13.671874 13.683594-13.679687zm-17.730469 33.972656h128.917969c.335937.210938.6875.390625 1.050781.542969l18.035156 19.191406h-167.222656zm-28.8125 57.097657v-23.363282h186v23.351563c-3.007812 4.613281-8.234375 7.289062-13.734375 7.027343-5.503906-.261718-10.453125-3.417968-13.011719-8.292968-1.132812-2.265625-3.402344-3.742188-5.929687-3.863282-2.53125-.117187-4.929688 1.140626-6.269531 3.289063-.101563.164063-.195313.328125-.28125.5-2.660157 5.136719-7.953126 8.367187-13.738282 8.386719-5.78125.015625-11.09375-3.1875-13.78125-8.308594-1.152344-2.308594-3.488281-3.796875-6.070312-3.867188-2.582032-.070312-4.992188 1.289063-6.273438 3.53125-.046875.085938-.09375.171876-.136718.257813-2.667969 5.148437-7.980469 8.382813-13.78125 8.382813-5.796876 0-11.113282-3.234376-13.777344-8.382813-1.199219-2.328125-3.597656-3.792969-6.21875-3.792969-2.617188 0-5.019532 1.460938-6.21875 3.785156-2.667969 5.152344-7.980469 8.386719-13.78125 8.386719-5.796875 0-11.113282-3.234375-13.777344-8.386719-1.203125-2.324218-3.601562-3.78125-6.21875-3.78125-2.617188.003907-5.015625 1.464844-6.21875 3.789063-2.539062 4.898437-7.492188 8.082031-13.003906 8.363281-5.511719.277344-10.757813-2.390625-13.777344-7.011718zm33 13.234374c11.308594 10.382813 28.683594 10.382813 39.992188 0 11.308593 10.390626 28.6875 10.390626 40 0 11.308593 10.390626 28.6875 10.390626 40 0 .460937.429688.945312.835938 1.433593 1.234376v96.277343h-121.566406v-97.386719c.046875-.042968.09375-.082031.140625-.125zm107.746094 145.226563h-94.199219c-7.554687-.007813-13.675781-6.128906-13.683594-13.683594v-20.027343h121.566407v20.027343c-.011719 7.554688-6.132813 13.675781-13.683594 13.683594zm0 0"/><path d="m120.253906 334.300781h-25.21875c-3.867187 0-7 3.132813-7 7 0 3.867188 3.132813 7 7 7h25.21875c3.867188 0 7-3.132812 7-7 0-3.867187-3.132812-7-7-7zm0 0"/><path d="m482.980469 169.203125c-.011719-.246094-.035157-.488281-.074219-.730469-.007812-.0625-.015625-.125-.027344-.1875-.054687-.300781-.128906-.59375-.222656-.886718-.007812-.027344-.019531-.054688-.027344-.082032-.089844-.265625-.199218-.523437-.320312-.777344-.023438-.054687-.050782-.105468-.078125-.160156-.136719-.273437-.292969-.535156-.460938-.785156-.023437-.03125-.046875-.0625-.070312-.089844-.160157-.226562-.335938-.445312-.523438-.648437-.027343-.03125-.046875-.0625-.074219-.09375l-31.699218-33.730469c-1.324219-1.40625-3.167969-2.207031-5.101563-2.207031h-135.441406c-1.886719 0-3.695313.765625-5.011719 2.117187l-32.863281 33.730469c-1.253906 1.292969-1.960937 3.019531-1.972656 4.820313 0 .085937-.011719.167968-.011719.257812v32.023438c0 .949218.195312 1.890624.570312 2.765624.066407.152344.136719.304688.214844.457032 4.351563 8.457031 12.527344 14.285156 21.941406 15.640625v100.554687c.015626 13.902344 11.28125 25.167969 25.183594 25.183594h118.179688c13.902344-.015625 25.167968-11.28125 25.183594-25.183594v-100.546875c9.386718-1.347656 17.546874-7.148437 21.902343-15.578125.542969-1.011718.824219-2.144531.824219-3.292968v-32.21875c0-.039063-.007812-.082032-.007812-.125 0-.074219-.007813-.152344-.011719-.226563zm-171.167969-26.378906h129.460938l18.542968 19.730469h-167.222656zm52.640625 189.550781h-22.363281v-53.078125h22.363281zm70.636719 0h-56.636719v-60.078125c0-3.867187-3.132813-7-7-7h-36.363281c-3.863282 0-7 3.132813-7 7v60.078125h-11.179688c-6.175781-.007812-11.175781-5.011719-11.183594-11.183594v-101.882812c3.8125-1.320313 7.308594-3.414063 10.273438-6.152344 11.308594 10.382812 28.683594 10.382812 39.992188 0 11.308593 10.390625 28.691406 10.390625 40 0 11.308593 10.390625 28.691406 10.390625 40 0 2.964843 2.738281 6.464843 4.835938 10.28125 6.15625v101.878906c-.007813 6.171875-5.007813 11.175782-11.183594 11.183594zm20.910156-125.417969c-5.789062.058594-11.113281-3.167969-13.746094-8.324219-1.164062-2.320312-3.519531-3.804687-6.117187-3.859374-2.59375-.050782-5.007813 1.335937-6.265625 3.609374-.03125.058594-.0625.121094-.097656.183594-2.660157 5.140625-7.957032 8.371094-13.746094 8.382813-5.785156.015625-11.097656-3.195313-13.78125-8.324219-1.15625-2.304688-3.492188-3.785156-6.070313-3.851562-2.578125-.066407-4.984375 1.292968-6.261719 3.535156-.050781.082031-.101562.167968-.140624.253906-2.664063 5.152344-7.980469 8.386719-13.777344 8.386719-5.800782 0-11.113282-3.234375-13.777344-8.386719-.121094-.230469-.257812-.453125-.402344-.671875-1.375-2.0625-3.738281-3.242187-6.210937-3.105469-2.472657.136719-4.691407 1.570313-5.832031 3.773438-2.664063 5.152344-7.976563 8.386718-13.777344 8.386718-5.800782 0-11.113282-3.234374-13.777344-8.386718-1.207031-2.328125-3.613281-3.789063-6.234375-3.785156-2.621094.007812-5.019531 1.476562-6.214844 3.8125-2.542969 4.894531-7.492187 8.070312-13.003906 8.34375-5.511719.273437-10.75-2.398438-13.765625-7.019532v-23.355468h186v23.355468c-2.824219 4.4375-7.742188 7.101563-13 7.046875zm0 0"/><path d="m426 247.117188h-27.273438c-3.863281 0-7 3.136718-7 7v27.273437c0 3.867187 3.136719 7 7 7h27.273438c3.867188 0 7-3.132813 7-7v-27.273437c0-3.863282-3.132812-7-7-7zm-7 27.273437h-13.273438v-13.273437h13.273438zm0 0"/><path d="m316.816406 90.886719c-.703125 2.714843.28125 5.589843 2.503906 7.300781l24.558594 18.910156c1.511719 1.164063 3.433594 1.660156 5.320313 1.375s3.574219-1.328125 4.671875-2.886718l17.851562-25.339844c1.613282-2.292969 1.707032-5.328125.230469-7.710938-1.472656-2.386718-4.230469-3.660156-7.003906-3.238281l-11.078125 1.675781c-9.277344-43.820312-46.027344-76.484375-90.636719-80.550781-44.605469-4.066406-86.660156 21.40625-103.710937 62.828125-1.46875 3.578125.242187 7.667969 3.820312 9.132812 3.578125 1.46875 7.664062-.242187 9.132812-3.820312 14.65625-35.609375 50.734376-57.578125 89.097657-54.257812 38.363281 3.324218 70.128906 31.167968 78.445312 68.769531l-17.472656 2.644531c-2.773437.421875-5.027344 2.453125-5.730469 5.167969zm29.816406 10.660156-5.773437-4.445313 8.25-1.25h.023437l.046876-.007812 1.648437-.25zm0 0"/><path d="m362.867188 366.667969c-1.851563-.136719-3.683594.46875-5.085938 1.683593-1.40625 1.214844-2.269531 2.9375-2.398438 4.792969-2.824218 38.402344-30.253906 70.527344-67.738281 79.335938-37.488281 8.804687-76.351562-7.753907-95.976562-40.886719l15.773437-7.960938c2.503906-1.265624 4.011719-3.902343 3.832032-6.699218-.179688-2.796875-2.011719-5.21875-4.65625-6.152344l-29.226563-10.3125c-1.800781-.636719-3.78125-.507812-5.484375.351562-1.703125.859376-2.984375 2.378907-3.539062 4.203126l-9.0625 29.640624c-.820313 2.683594.039062 5.597657 2.183593 7.402344 2.144531 1.808594 5.160157 2.164063 7.664063.898438l10-5.050782c18.261718 31.464844 51.855468 50.867188 88.234375 50.960938 53.542969-.007812 98.011719-41.320312 101.953125-94.714844.28125-3.855468-2.613282-7.210937-6.472656-7.492187zm-183.25 29.433593 6.871093 2.425782-7.425781 3.75c-.015625.003906-.027344.007812-.042969.015625-.011719.007812-.039062.023437-.058593.035156l-1.472657.742187zm0 0"/></svg>