<svg height="384pt" viewBox="0 -2 384 384" width="384pt" xmlns="http://www.w3.org/2000/svg"><path d="m27 344.351562h18.601562c3.410157 20.207032 20.910157 35 41.402344 35 20.496094 0 37.996094-14.792968 41.40625-35h127.191406c3.410157 20.207032 20.910157 35 41.402344 35 20.496094 0 37.996094-14.792968 41.40625-35h18.589844c14.90625-.019531 26.984375-12.097656 27-27v-89.566406c0-.058594-.007812-.117187-.007812-.175781 0-.125-.011719-.25-.019532-.378906-.007812-.105469-.019531-.214844-.035156-.320313-.011719-.109375-.03125-.234375-.050781-.351562-.019531-.117188-.042969-.222656-.066407-.332032-.023437-.109374-.054687-.222656-.085937-.332031s-.0625-.21875-.101563-.328125c-.035156-.105468-.074218-.214844-.117187-.320312-.039063-.105469-.082031-.210938-.128906-.316406-.046875-.101563-.101563-.203126-.148438-.308594-.050781-.101563-.101562-.199219-.164062-.296875-.058594-.101563-.113281-.195313-.171875-.289063-.0625-.097656-.132813-.199218-.203125-.300781-.066407-.101563-.125-.175781-.191407-.257813-.078124-.101562-.160156-.203124-.242187-.292968-.039063-.042969-.074219-.089844-.113281-.132813l-51.511719-56.132812c-5.121094-5.5625-12.332031-8.734375-19.894531-8.742188h-93.265625v-72.566406c-.019531-14.902344-12.097657-26.980469-27-27h-15.472657c-2.144531-14.839844-9.011718-28.59375-19.582031-39.226563-12.371093-12.410156-29.167969-19.382812-46.6875-19.382812s-34.316406 6.972656-46.683593 19.382812c-10.574219 10.632813-17.441407 24.386719-19.582032 39.226563h-15.472656c-14.90625.019531-26.984375 12.097656-27 27v231.742187c.015625 14.902344 12.09375 26.980469 27 27zm60 21c-15.464844 0-28-12.539062-28-28 0-15.464843 12.535156-28 28-28s28 12.535157 28 28c-.019531 15.457032-12.542969 27.980469-28 28zm210 0c-15.464844 0-28-12.539062-28-28 0-15.464843 12.535156-28 28-28s28 12.535157 28 28c-.019531 15.457032-12.542969 27.980469-28 28zm73-48c-.007812 7.175782-5.824219 12.988282-13 13h-18.601562c-3.410157-20.207031-20.910157-35-41.402344-35-20.496094 0-37.996094 14.792969-41.40625 35h-38.109375v-95.566406h152.519531zm-59.253906-145.175781c3.640625.003907 7.113281 1.53125 9.578125 4.210938l40.75 44.398437h-143.601563v-48.609375zm-254.894532-107.191406c.882813-13.464844 6.609376-26.152344 16.121094-35.722656 9.742188-9.769531 22.96875-15.261719 36.765625-15.261719s27.027344 5.492188 36.769531 15.261719c9.511719 9.570312 15.238282 22.257812 16.121094 35.722656.460938 7.300781-.617187 14.613281-3.167968 21.46875-2.726563 7.214844-6.890626 13.800781-12.242188 19.355469l-37.480469 39.925781-37.480469-39.925781c-5.351562-5.554688-9.515624-12.140625-12.242187-19.355469-2.546875-6.855469-3.628906-14.167969-3.164063-21.46875zm-41.851562 20.625c.007812-7.175781 5.824219-12.992187 13-13h14.898438c.429687 6.371094 1.765624 12.648437 3.964843 18.644531 3.371094 8.992188 8.539063 17.207032 15.1875 24.136719l42.585938 45.359375c1.320312 1.410156 3.167969 2.210938 5.101562 2.210938 1.933594 0 3.78125-.800782 5.105469-2.210938l42.582031-45.359375c6.648438-6.933594 11.816407-15.144531 15.1875-24.136719 2.199219-5.996094 3.535157-12.273437 3.960938-18.644531h14.902343c7.175782.011719 12.992188 5.824219 13 13v244.742187h-75.070312c-3.414062-20.207031-20.914062-35-41.40625-35s-37.992188 14.792969-41.40625 35h-18.59375c-7.175781-.011718-12.992188-5.824218-13-13zm0 0"/><path d="m108.738281 96.976562c17.917969 0 32.492188-14.882812 32.492188-33.175781s-14.574219-33.175781-32.492188-33.175781c-17.914062 0-32.492187 14.882812-32.492187 33.175781s14.578125 33.175781 32.492187 33.175781zm0-52.351562c10.199219 0 18.492188 8.597656 18.492188 19.175781 0 10.574219-8.292969 19.175781-18.492188 19.175781-10.195312 0-18.492187-8.601562-18.492187-19.175781s8.296875-19.179687 18.492187-19.179687zm0 0"/></svg>