<svg height="427pt" viewBox="0 -65 427.366 427" width="427pt" xmlns="http://www.w3.org/2000/svg"><path d="m15.332031 263.015625h53.628907c3.414062 20.203125 20.910156 34.996094 41.40625 34.996094 20.492187 0 37.992187-14.792969 41.402343-34.996094h147.191407c3.414062 20.203125 20.910156 34.996094 41.40625 34.996094 20.492187 0 37.992187-14.792969 41.402343-34.996094h18.597657c14.902343-.019531 26.980468-12.097656 27-27v-89.566406c0-.058594-.007813-.113281-.011719-.171875 0-.128906-.007813-.253906-.019531-.378906-.007813-.109376-.015626-.21875-.03125-.324219-.015626-.105469-.03125-.234375-.054688-.351563-.019531-.117187-.039062-.222656-.066406-.332031-.023438-.109375-.050782-.222656-.082032-.332031s-.066406-.21875-.101562-.328125c-.035156-.105469-.074219-.214844-.117188-.320313-.039062-.105468-.082031-.210937-.128906-.3125-.050781-.105468-.101562-.207031-.148437-.308594-.050781-.101562-.105469-.199218-.164063-.300781-.054687-.101562-.113281-.195312-.171875-.289062-.0625-.09375-.132812-.199219-.203125-.300781-.066406-.097657-.125-.171876-.191406-.257813s-.160156-.199219-.242188-.292969c-.039062-.042968-.074218-.089844-.113281-.132812l-51.515625-56.128906c-5.117187-5.566407-12.332031-8.738282-19.890625-8.746094h-33.128906c-1.066406-.261719-2.175781-.261719-3.242187 0h-63.898438c-3.867188 0-7 3.132812-7 7v165.175781h-32.910156c.039062-.441406.066406-.882813.066406-1.335937v-179.644532c-.003906-.300781-.023438-.601562-.0625-.898437-.011719-.070313-.023438-.140625-.035156-.214844-.039063-.257813-.09375-.511719-.164063-.765625-.011719-.035156-.019531-.074219-.027343-.109375-.089844-.292969-.195313-.578125-.316407-.855469-.019531-.042968-.042969-.085937-.0625-.128906-.113281-.238281-.242187-.472656-.378906-.699219-.019531-.027343-.03125-.058593-.050781-.089843l-36.335938-57c-2.808594-4.425782-7.6875-7.105469-12.929687-7.089844h-113.273438c-5.238281-.015625-10.121093 2.664062-12.929687 7.089844l-36.335938 57c-.019531.03125-.03125.0625-.046875.089843-.140625.226563-.269531.460938-.382812.699219-.019531.042969-.042969.085938-.058594.128906-.125.277344-.230469.5625-.320313.855469-.007812.035156-.015624.070313-.027343.109375-.070313.253906-.125.507812-.1640628.765625-.0117187.070313-.0234374.140625-.03125.214844-.0429687.296875-.06249995.597656-.0664062.898437v179.644532c.0078125 8.464843 6.867188 15.324218 15.332031 15.335937zm95.035157 21c-15.464844 0-28-12.539063-28-28 0-15.464844 12.535156-28 28-28 15.460937 0 28 12.535156 28 28-.019532 15.457031-12.542969 27.980469-28 28zm230 0c-15.464844 0-28-12.539063-28-28 0-15.464844 12.535156-28 28-28 15.460937 0 28 12.535156 28 28-.019532 15.457031-12.542969 27.980469-28 28zm73-48c-.007813 7.175781-5.824219 12.988281-13 13h-18.597657c-3.410156-20.207031-20.910156-35-41.402343-35-20.496094 0-37.992188 14.792969-41.40625 35h-38.117188v-95.566406h56.898438c1.066406.261719 2.175781.261719 3.242187 0h92.378906zm-49.675782-140.964844 40.75 44.398438h-78.074218v-48.609375h27.746093c3.640625.003906 7.113281 1.53125 9.578125 4.210937zm-51.324218-4.210937v48.609375h-51.523438v-48.609375zm-121 158.175781h-39.597657c-3.410156-20.207031-20.910156-35-41.402343-35-20.496094 0-37.992188 14.792969-41.40625 35h-53.628907c-.734375-.003906-1.332031-.597656-1.332031-1.335937v-172.644532h58.058594v76.546875c0 2.820313 1.691406 5.367188 4.292968 6.457031l55.882813 23.429688c2.164063.90625 4.632813.671875 6.585937-.625 1.949219-1.296875 3.121094-3.484375 3.121094-5.828125v-99.980469h58.058594v172.644532c0 .738281-.597656 1.332031-1.335938 1.335937zm-63.425782-173.980469v89.453125l-41.882812-17.558593v-71.894532zm36.820313-60.238281 29.476562 46.242187h-80.238281v-46.859374h49.636719c.453125 0 .878906.230468 1.125.617187zm-115.519531 0c.242187-.382813.667968-.617187 1.121093-.617187h49.636719v46.855468h-80.234375zm0 0"/></svg>