<svg height="424pt" viewBox="0 -10 424.157 424" width="424pt" xmlns="http://www.w3.org/2000/svg"><path d="m7 14.078125h52.578125c18.808594.023437 34.046875 15.261719 34.066406 34.066406v257.027344c-25.46875 3.109375-44.371093 25.121094-43.59375 50.773437.777344 25.648438 20.972657 46.476563 46.585938 48.039063 25.613281 1.566406 48.199219-16.648437 52.089843-42.015625h268.429688c3.867188 0 7-3.132812 7-7 0-3.863281-3.132812-7-7-7h-268.292969c-2.886719-21.699219-19.617187-38.960938-41.214843-42.519531v-257.300781c-.03125-26.535157-21.535157-48.039063-48.070313-48.070313h-52.578125c-3.867188 0-7 3.132813-7 7s3.132812 7 7 7zm128.300781 340.359375c0 19.683594-15.957031 35.640625-35.644531 35.640625-19.683594 0-35.640625-15.957031-35.640625-35.640625 0-19.6875 15.957031-35.644531 35.640625-35.644531 19.675781.023437 35.621094 15.96875 35.644531 35.644531zm0 0"/><path d="m173.679688 325.367188h225.875c9.53125-.011719 17.253906-7.738282 17.265624-17.269532v-142.042968c-.003906-.300782-.023437-.601563-.066406-.902344-.007812-.070313-.019531-.140625-.03125-.210938-.042968-.261718-.097656-.515625-.164062-.769531-.011719-.035156-.019532-.074219-.03125-.109375-.085938-.289062-.191406-.578125-.316406-.855469-.019532-.042969-.039063-.082031-.0625-.125-.109376-.242187-.238282-.476562-.378907-.699219-.015625-.03125-.03125-.0625-.046875-.09375l-44.769531-70.230468c-3.160156-4.984375-8.65625-7.996094-14.558594-7.980469h-139.554687c-5.902344-.015625-11.398438 3-14.558594 7.984375l-44.769531 70.230469c-.019531.03125-.03125.0625-.046875.089843-.140625.226563-.269532.460938-.382813.699219-.019531.042969-.042969.085938-.0625.128907-.121093.277343-.226562.5625-.316406.855468-.007813.035156-.015625.070313-.027344.109375-.070312.25-.125.507813-.164062.765625-.011719.070313-.023438.140625-.035157.214844-.039062.296875-.0625.597656-.0625.898438v142.042968c.011719 9.53125 7.734376 17.253906 17.265626 17.269532zm140.359374-14h-54.847656v-97.875l54.851563 23zm85.511719 0h-71.511719v-79.53125c0-2.820313-1.691406-5.363282-4.292968-6.457032l-68.851563-28.867187c-2.160156-.90625-4.632812-.671875-6.582031.628906-1.953125 1.296875-3.125 3.484375-3.125 5.828125v108.398438h-71.507812c-1.804688 0-3.265626-1.464844-3.269532-3.265626v-135.046874h232.410156v135.042968c-.003906 1.804688-1.464843 3.265625-3.265624 3.269532zm-40.402343-211.78125 37.910156 59.46875h-103.441406v-60.976563h62.777343c1.113281-.003906 2.15625.566406 2.753907 1.507813zm-145.058594 0c.597656-.945313 1.636718-1.515626 2.753906-1.511719h62.773438v60.980469h-103.4375zm0 0"/></svg>