<svg height="389pt" viewBox="0 -13 389.84 389" width="389pt" xmlns="http://www.w3.org/2000/svg"><path d="m386.652344 15.464844c-1.984375-1.292969-4.492188-1.492188-6.65625-.527344l-122.089844 54.261719-122.226562-67.902344c-.074219-.042969-.148438-.070313-.21875-.109375-.074219-.035156-.164063-.082031-.25-.121094-.1875-.085937-.375-.164062-.5625-.230468-.058594-.023438-.117188-.046876-.175782-.066407-.511718-.167969-1.046875-.277343-1.585937-.324219-.054688-.007812-.113281-.007812-.167969-.011718-.210938-.011719-.421875-.015625-.628906-.011719-.074219 0-.144532 0-.21875.011719-.214844.011718-.429688.035156-.644532.066406-.050781.007812-.097656.011719-.152343.019531-.261719.046875-.519531.109375-.777344.183594-.046875.015625-.09375.03125-.136719.046875-.214844.066406-.421875.144531-.628906.234375-.03125.011719-.0625.019531-.09375.035156l-125.28125 55.679688c-2.527344 1.125-4.15625 3.632812-4.15625 6.398437v278.402344c0 2.367188 1.195312 4.578125 3.183594 5.871094 1.988281 1.292968 4.492187 1.488281 6.660156.527344l122.089844-54.261719 122.226562 67.898437c.09375.050782.1875.089844.28125.136719.125.058594.246094.121094.371094.175781.171875.074219.351562.136719.527344.199219.121094.039063.238281.082031.363281.117187.191406.054688.386719.089844.582031.125.117188.023438.230469.050782.34375.066407.25.03125.5.050781.75.054687.0625 0 .121094.011719.183594.011719.285156 0 .570312-.019531.851562-.054687.066407-.007813.128907-.023438.191407-.03125.21875-.035157.429687-.074219.648437-.128907.082032-.019531.164063-.042969.246094-.066406.199219-.058594.398438-.125.59375-.199219.078125-.03125.15625-.058594.230469-.089844.027343-.011718.054687-.019531.078125-.027343l125.28125-55.679688c2.527344-1.125 4.15625-3.632812 4.15625-6.402343v-278.40625c0-2.371094-1.199219-4.578126-3.1875-5.871094zm-247.371094 3.847656 111.277344 61.820312v262.386719l-111.277344-61.824219zm-125.28125 48.332031 111.28125-49.457031v263.078125l-111.28125 49.457031zm361.839844 227.542969-111.28125 49.457031v-263.082031l111.28125-49.457031zm0 0"/></svg>