<svg height="433pt" viewBox="0 -1 433.99451 433" width="433pt" xmlns="http://www.w3.org/2000/svg"><path d="m142.859375 326.832031c.019531 15.28125 12.402344 27.667969 27.683594 27.683594h94.203125c15.28125-.015625 27.664062-12.402344 27.679687-27.683594v-124.097656c1.511719.234375 3.042969.355469 4.570313.355469 11.007812.023437 21.105468-6.097656 26.171875-15.867188.542969-1.019531.832031-2.15625.832031-3.3125v-32.222656c0-.039062-.007812-.082031-.007812-.125 0-.074219-.007813-.152344-.011719-.226562-.011719-.242188-.035157-.488282-.074219-.730469-.007812-.058594-.015625-.125-.027344-.1875-.054687-.300781-.128906-.59375-.222656-.886719-.007812-.027344-.019531-.054688-.027344-.082031-.09375-.265625-.199218-.523438-.320312-.773438-.023438-.054687-.050782-.109375-.078125-.164062-.136719-.269531-.292969-.535157-.464844-.785157-.019531-.03125-.042969-.0625-.066406-.089843-.164063-.226563-.335938-.445313-.523438-.648438-.027343-.03125-.046875-.0625-.074219-.09375l-29.675781-31.574219v-10.65625c-.015625-15.28125-12.398437-27.664062-27.679687-27.683593h-94.203125c-15.28125.019531-27.664063 12.402343-27.683594 27.683593v10.449219l-30.875 31.691407c-1.253906 1.292968-1.960937 3.019531-1.972656 4.820312 0 .085938-.011719.171875-.011719.257812v32.023438c0 1.085938.253906 2.160156.738281 3.128906l.046875.09375c5.050782 9.816406 15.175782 15.976563 26.214844 15.953125 1.96875-.003906 3.933594-.199219 5.863281-.585937zm121.886719 13.683594h-94.199219c-7.554687-.007813-13.675781-6.128906-13.683594-13.683594v-20.027343h121.566407v20.027343c-.011719 7.554688-6.132813 13.675781-13.683594 13.683594zm-94.199219-249.535156h94.199219c7.550781.011719 13.671875 6.132812 13.683594 13.683593v6.292969h-121.570313v-6.292969c.011719-7.550781 6.132813-13.671874 13.683594-13.683593zm-17.730469 33.976562h128.914063c.335937.210938.6875.390625 1.050781.542969l18.035156 19.1875h-167.222656zm-28.816406 57.097657v-23.367188h186v23.355469c-3.007812 4.613281-8.234375 7.289062-13.734375 7.027343-5.503906-.261718-10.453125-3.417968-13.011719-8.296874-1.132812-2.265626-3.402344-3.738282-5.929687-3.859376-2.53125-.117187-4.929688 1.140626-6.269531 3.289063-.097657.160156-.195313.324219-.28125.496094-2.660157 5.136719-7.953126 8.367187-13.738282 8.382812-5.78125.015625-11.09375-3.183593-13.78125-8.308593-1.152344-2.308594-3.488281-3.796876-6.070312-3.867188-2.582032-.066406-4.992188 1.289062-6.269532 3.535156-.050781.082032-.101562.167969-.140624.253906-2.664063 5.152344-7.980469 8.386719-13.777344 8.386719-5.800782 0-11.117188-3.234375-13.78125-8.386719-.121094-.230468-.253906-.457031-.398438-.671874-1.375-2.0625-3.738281-3.242188-6.210937-3.105469-2.476563.136719-4.691407 1.570312-5.832031 3.773437-2.664063 5.148438-7.980469 8.382813-13.777344 8.382813-5.800782 0-11.117188-3.234375-13.78125-8.382813-1.203125-2.324218-3.597656-3.78125-6.214844-3.78125s-5.015625 1.460938-6.21875 3.785156c-2.539062 4.902344-7.488281 8.089844-13 8.367188-5.511719.28125-10.757812-2.386719-13.78125-7.007812zm33 13.234374c11.308594 10.382813 28.683594 10.382813 39.992188 0 11.308593 10.390626 28.6875 10.390626 40 0 11.308593 10.390626 28.6875 10.390626 40 0 .464843.429688.945312.835938 1.433593 1.234376v96.277343h-121.566406v-97.386719c.046875-.042968.097656-.082031.140625-.125zm0 0"/><path d="m230.253906 316.832031h-25.21875c-3.867187 0-7 3.132813-7 7 0 3.863281 3.132813 7 7 7h25.21875c3.867188 0 7-3.136719 7-7 0-3.867187-3.132812-7-7-7zm0 0"/><path d="m408.167969 127.121094c-3.566407 1.492187-5.25 5.589844-3.757813 9.15625 10.339844 24.730468 15.640625 51.277344 15.589844 78.082031 0 111.761719-90.925781 202.691406-202.6875 202.691406-41.726562.125-82.457031-12.75-116.53125-36.835937l28.335938-38.457032c1.664062-2.257812 1.816406-5.289062.394531-7.703124-1.421875-2.417969-4.152344-3.75-6.933594-3.390626l-67.765625 8.800782c-1.894531.246094-3.605469 1.25-4.738281 2.789062-1.132813 1.535156-1.589844 3.46875-1.261719 5.347656l11.671875 67.332032c.476563 2.765625 2.558594 4.976562 5.289063 5.621094 2.730468.644531 5.582031-.402344 7.246093-2.664063l19.453125-26.398437c78.933594 55.570312 185.105469 52.242187 260.402344-8.164063 75.300781-60.40625 101.574219-163.328125 64.445312-252.4375-1.484374-3.570313-5.585937-5.257813-9.152343-3.769531zm-336.6875 269.257812-7.625-43.976562 44.257812-5.746094-22.671875 30.773438c-.019531.023437-.042968.046874-.058594.070312-.03125.039062-.054687.082031-.085937.125zm0 0"/><path d="m14 217.140625c0-111.761719 90.925781-202.691406 202.6875-202.691406 41.726562-.125 82.457031 12.75 116.53125 36.835937l-28.335938 38.457032c-1.660156 2.257812-1.816406 5.289062-.394531 7.707031 1.425781 2.414062 4.152344 3.75 6.933594 3.386719l67.765625-8.800782c1.894531-.242187 3.605469-1.25 4.738281-2.785156 1.132813-1.539062 1.589844-3.46875 1.261719-5.351562l-11.675781-67.332032c-.476563-2.765625-2.558594-4.976562-5.289063-5.621094-2.730468-.640624-5.582031.40625-7.242187 2.664063l-19.457031 26.40625c-78.933594-55.574219-185.109376-52.246094-260.40625 8.164063-75.300782 60.40625-101.574219 163.332031-64.441407 252.4375 1.515625 3.53125 5.589844 5.179687 9.132813 3.699218 3.542968-1.480468 5.230468-5.539062 3.785156-9.097656-10.34375-24.730469-15.644531-51.273438-15.59375-78.078125zm348.519531-182.019531 7.625 43.972656-44.257812 5.746094 22.671875-30.773438c.019531-.023437.042968-.042968.058594-.070312.03125-.039063.054687-.082032.085937-.121094zm0 0"/></svg>