<svg height="429pt" viewBox="-7 0 429 429.79601" width="429pt" xmlns="http://www.w3.org/2000/svg"><path d="m401.503906 160.765625-65.347656-40.328125c-.238281-.144531-.480469-.277344-.730469-.390625l-1.027343-.476563v-17.035156c0-1.726562-.636719-3.390625-1.789063-4.675781l-85.535156-95.355469c-.109375-.121094-.226563-.238281-.347657-.351562-1.316406-1.375-3.136718-2.152344-5.042968-2.152344-.261719 0-.527344.015625-.789063.046875l-.121093-.0117188c-.234376-.0234374-.464844-.0351562-.699219-.0351562h-120.960938c-21.371093.0234375-38.691406 17.34375-38.714843 38.714844v81.382812l-67.082032 40.652344c-8 4.925781-12.886718 13.640625-12.917968 23.039062v194.558594c.027343 28.402344 23.042968 51.417969 51.445312 51.449219h311.109375c28.402344-.03125 51.417969-23.046875 51.445313-51.449219v-194.558594c-.03125-9.386718-4.90625-18.09375-12.894532-23.023437zm-7.328125 11.929687c3.851563 2.371094 6.207031 6.566407 6.222657 11.09375v10.632813l-66 40.335937v-98.953124zm-145.492187-147.429687 54.222656 60.449219h-29.507812c-13.644532-.015625-24.699219-11.074219-24.714844-24.71875zm-129.570313-11.269531h115.570313v47c.023437 21.371094 17.34375 38.691406 38.714844 38.71875h42.066406l4.933594 5.5v138.097656l-113 69.054688-113-69.054688v-204.597656c.011718-13.644532 11.070312-24.703125 24.714843-24.71875zm-98.515625 158.710937 59.800782-36.242187v98.292968l-66-40.335937v-10.632813c.011718-4.515624 2.359374-8.707031 6.199218-11.082031zm342.355469 243.089844h-311.109375c-20.671875-.023437-37.425781-16.777344-37.445312-37.449219v-167.519531l189.347656 115.714844c2.242187 1.371093 5.0625 1.371093 7.300781 0l189.351563-115.714844v167.519531c-.019532 20.671875-16.773438 37.425782-37.445313 37.449219zm0 0"/><path d="m141.898438 177.894531h131c3.867187 0 7-3.132812 7-7 0-3.863281-3.132813-7-7-7h-131c-3.867188 0-7 3.136719-7 7 0 3.867188 3.132812 7 7 7zm0 0"/><path d="m141.898438 221.894531h66c3.867187 0 7-3.132812 7-7 0-3.863281-3.132813-7-7-7h-66c-3.867188 0-7 3.136719-7 7 0 3.867188 3.132812 7 7 7zm0 0"/></svg>