<svg height="446pt" viewBox="0 -19 446.33621 446" width="446pt" xmlns="http://www.w3.org/2000/svg"><path d="m129.460938 409.585938h203.367187c11.683594-.011719 21.15625-9.476563 21.171875-21.160157v-189.855469c51.550781-3.636718 91.699219-46.195312 92.328125-97.871093.628906-51.671875-38.472656-95.195313-89.917969-100.085938-51.445312-4.890625-98.046875 30.488281-107.164062 81.355469h-168.527344c-7.234375-.011719-13.972656 3.683594-17.851562 9.789062l-61.667969 96.746094-.019531.03125-.082032.132813c-.011718.019531-.023437.039062-.035156.058593-.152344.246094-.289062.5-.414062.765626-.007813.023437-.023438.050781-.035157.078124-.128906.285157-.238281.578126-.328125.878907-.003906.027343-.011718.050781-.015625.074219-.074219.265624-.132812.535156-.175781.804687-.0078125.066406-.0195312.128906-.03125.195313-.0390625.296874-.05859375.597656-.0625.898437v196.007813c.0195312 11.683593 9.488281 21.144531 21.171875 21.15625zm88.042968-14h-81.007812v-141.699219l81.007812 33.964843zm58.675782-226.457032c6.21875 6.335938 13.261718 11.816406 20.933593 16.292969h-113.113281v-89.453125h63.761719c-.042969 1.171875-.082031 2.347656-.082031 3.53125-.0625 26.0625 10.179687 51.089844 28.496093 69.632812zm13.160156-132.515625c28.125-25.789062 69.957031-29.765625 102.4375-9.738281 32.480468 20.023438 47.714844 59.183594 37.308594 95.894531-10.410157 36.710938-43.925782 62.050781-82.085938 62.050781-.515625 0-1.03125-.011718-1.554688-.019531-46.507812-.84375-83.769531-38.785156-83.765624-85.300781 0-2.675781.125-5.320312.371093-7.894531 1.925781-21.089844 11.660157-40.703125 27.289063-54.992188zm-214.675782 62.679688c1.316407-2.074219 3.601563-3.328125 6.054688-3.324219h89.28125v89.457031h-150.234375zm-60.664062 289.136719v-189h326v189c-.007812 3.957031-3.214844 7.160156-7.171875 7.160156h-101.324219v-112.394532c0-2.820312-1.691406-5.363281-4.292968-6.457031l-95.007813-39.832031c-2.160156-.90625-4.632813-.671875-6.582031.628906-1.953125 1.296875-3.125 3.484375-3.125 5.828125v152.222657h-101.324219c-3.957031 0-7.164063-3.203126-7.171875-7.15625zm0 0"/><path d="m342.050781 152.746094c2.734375 2.734375 7.164063 2.734375 9.898438 0l28.285156-28.28125c2.734375-2.734375 2.734375-7.167969 0-9.902344s-7.167969-2.734375-9.898437 0l-16.335938 16.335938v-79.699219c0-3.867188-3.132812-7-7-7s-7 3.132812-7 7v79.699219l-16.335938-16.332032c-2.730468-2.734375-7.164062-2.734375-9.898437 0-2.734375 2.730469-2.734375 7.164063 0 9.898438zm0 0"/></svg>