<svg height="427pt" viewBox="0 -21 427.248 427" width="427pt" xmlns="http://www.w3.org/2000/svg"><path d="m0 363.1875c.015625 11.683594 9.488281 21.148438 21.171875 21.160156h311.65625c11.683594-.011718 21.15625-9.476562 21.171875-21.160156v-161.785156l5.777344-2.5c40.875-17.175782 67.46875-57.191406 67.46875-101.527344v-50.671875c.003906-2.585937-1.421875-4.960937-3.707032-6.175781l-74.273437-39.582032c-2.085937-1.109374-4.589844-1.09375-6.660156.039063l-72.21875 39.582031c-2.242188 1.226563-3.636719 3.582032-3.636719 6.136719v10.023437h-186.027344c-7.234375-.011718-13.972656 3.679688-17.851562 9.789063l-61.671875 96.753906-.097657.152344c-.015624.019531-.027343.042969-.039062.066406-.148438.242188-.285156.492188-.40625.75-.011719.027344-.027344.058594-.042969.085938-.125.285156-.234375.578125-.324219.878906-.007812.027344-.011718.050781-.019531.078125-.074219.265625-.128906.53125-.1718748.800781-.0117187.066407-.0234374.132813-.03125.199219-.0390624.300781-.06249995.601562-.06249995.902344v196zm217.5 7.160156h-81v-141.699218l81.003906 33.960937zm115.328125 0h-101.324219v-112.394531c-.003906-2.820313-1.695312-5.363281-4.292968-6.457031l-95-39.832032c-2.164063-.90625-4.632813-.671874-6.585938.625-1.949219 1.296876-3.121094 3.488282-3.121094 5.828126v152.230468h-101.332031c-3.957031 0-7.164063-3.203125-7.171875-7.160156v-189h283c10.160156 10.71875 22.367188 19.296875 35.898438 25.21875l7.101562 3.101562v160.679688c-.007812 3.957031-3.214844 7.160156-7.171875 7.160156zm-52.078125-319.5 65.273438-35.765625 67.230468 35.824219v46.472656c-.011718 38.722656-23.246094 73.660156-58.949218 88.644532l-.050782.019531-7.28125 3.144531c-.628906.003906-1.253906.09375-1.863281.265625l-6.597656-2.878906c-35.046875-15.320313-57.707031-49.921875-57.75-88.167969zm5.011719 109.332032h-101.761719v-89.453126h82.75v27.679688c.003906 22.03125 6.628906 43.554688 19.011719 61.777344zm-211.101563-86.132813c1.316406-2.074219 3.601563-3.328125 6.054688-3.324219h89.28125v89.457032h-150.230469zm0 0"/><path d="m335.953125 133.617188c1.804687.003906 3.535156-.691407 4.835937-1.9375l51.046876-48.757813c1.832031-1.71875 2.605468-4.292969 2.015624-6.742187-.585937-2.445313-2.445312-4.386719-4.859374-5.085938-2.417969-.699219-5.023438-.046875-6.828126 1.707031l-46.097656 44.03125-24.117187-24.121093c-2.734375-2.730469-7.167969-2.730469-9.902344 0-2.734375 2.734374-2.734375 7.167968 0 9.902343l28.957031 28.953125c1.3125 1.316406 3.09375 2.054688 4.949219 2.050782zm0 0"/></svg>