<svg height="393pt" viewBox="0 -14 393.997 393" width="393pt" xmlns="http://www.w3.org/2000/svg"><path d="m393.734375 121.25c-.007813-.035156-.015625-.074219-.027344-.113281-.085937-.289063-.191406-.574219-.316406-.851563-.019531-.042968-.042969-.085937-.0625-.132812-.113281-.234375-.238281-.464844-.375-.691406-.019531-.03125-.03125-.0625-.054687-.097657l-69.039063-108.304687c-4.179687-6.59375-11.449219-10.578125-19.253906-10.558594h-215.214844c-7.804687-.019531-15.074219 3.964844-19.253906 10.558594l-69.039063 108.304687c-.019531.035157-.035156.066407-.054687.101563-.136719.222656-.261719.453125-.371094.691406-.023437.042969-.046875.085938-.066406.132812-.121094.277344-.226563.5625-.316407.851563-.007812.035156-.015624.074219-.027343.113281-.070313.25-.125.503906-.1640628.761719-.0117187.074219-.0234374.144531-.0351562.214844-.0390625.300781-.05859375.601562-.0625.902343v219.054688c.015625 12.601562 10.226562 22.816406 22.832031 22.832031h348.332031c12.605469-.015625 22.820313-10.230469 22.832032-22.832031v-219.058594c0-.300781-.023438-.601562-.0625-.902344-.007813-.070312-.023438-.140624-.035156-.214843-.039063-.253907-.09375-.511719-.164063-.761719zm-81.679687-102.667969 62.179687 97.546875h-170.238281v-101.632812h100.609375c3.019531-.007813 5.832031 1.535156 7.449219 4.085937zm-164.3125 111.546875h98.507812v85.929688l-6.644531-7.085938c-1.320313-1.410156-3.171875-2.210937-5.105469-2.210937s-3.785156.800781-5.105469 2.210937l-13.640625 14.550782-13.644531-14.550782c-1.320313-1.414062-3.171875-2.214844-5.105469-2.214844s-3.78125.800782-5.105468 2.214844l-13.644532 14.554688-13.648437-14.554688c-1.324219-1.414062-3.171875-2.210937-5.109375-2.210937-1.933594 0-3.78125.796875-5.105469 2.210937l-6.648437 7.089844zm-65.796876-111.546875c1.617188-2.550781 4.429688-4.09375 7.449219-4.085937h100.601563v101.632812h-170.234375zm289.21875 332.4375h-348.335937c-4.875-.007812-8.824219-3.957031-8.832031-8.832031v-212.058594h119.746094v103.628906c0 2.875 1.757812 5.453126 4.425781 6.511719 2.671875 1.054688 5.71875.371094 7.683593-1.722656l13.644532-14.554687 13.648437 14.554687c1.324219 1.410156 3.171875 2.210937 5.105469 2.210937 1.9375 0 3.785156-.800781 5.109375-2.210937l13.644531-14.554687 13.644532 14.554687c1.324218 1.410156 3.171874 2.210937 5.105468 2.210937 1.9375 0 3.785156-.800781 5.109375-2.210937l13.632813-14.550781 13.644531 14.550781c1.960937 2.097656 5.011719 2.78125 7.683594 1.726563 2.671875-1.058594 4.429687-3.640626 4.425781-6.515626v-103.628906h119.746094v212.058594c-.003906 4.875-3.957032 8.824219-8.832032 8.832031zm0 0"/><path d="m106.996094 277.019531h-60c-3.863282 0-7 3.132813-7 7v34c0 3.867188 3.136718 7 7 7h60c3.867187 0 7-3.132812 7-7v-34c0-3.867187-3.132813-7-7-7zm-7 34h-46v-20h46zm0 0"/><path d="m231.996094 277.019531h-91c-3.863282 0-7 3.132813-7 7 0 3.867188 3.136718 7 7 7h91c3.867187 0 7-3.132812 7-7 0-3.867187-3.132813-7-7-7zm0 0"/><path d="m186.996094 303.019531h-46c-3.863282 0-7 3.132813-7 7 0 3.867188 3.136718 7 7 7h46c3.867187 0 7-3.132812 7-7 0-3.867187-3.132813-7-7-7zm0 0"/></svg>