<svg height="414pt" viewBox="0 -30 414.00226 414" width="414pt" xmlns="http://www.w3.org/2000/svg"><path d="m7 14h42.699219c14.019531-.058594 25.984375 10.128906 28.160156 23.980469l33.792969 253.425781c.007812.058594.015625.113281.023437.171875 3.195313 20.703125 21.050781 35.953125 42 35.871094h5.875c2.578125 15.195312 15.742188 26.3125 31.152344 26.3125 15.414063 0 28.578125-11.117188 31.15625-26.3125h58.46875c2.707031 15.867187 16.902344 27.167969 32.96875 26.246093 16.070313-.917968 28.882813-13.761718 29.761719-29.835937.878906-16.070313-10.457032-30.234375-26.328125-32.902344-15.871094-2.667969-31.214844 7.015625-35.636719 22.492188h-60c-3.871094-13.574219-16.273438-22.933594-30.390625-22.933594-14.113281 0-26.515625 9.359375-30.386719 22.933594h-6.640625c-14.019531.058593-25.984375-10.128907-28.164062-23.980469l-10.183594-76.382812h218.40625c18.117187-.007813 34.242187-11.484376 40.179687-28.597657l39.699219-114.578125c.746094-2.140625.40625-4.507812-.90625-6.355468-1.316406-1.847657-3.441406-2.941407-5.707031-2.941407h-94.882812c-3.4375-9.558593-8.90625-18.257812-16.027344-25.5-12.128906-12.125-29.589844-19.636719-47.890625-20.597656-31.003907-1.703125-59.5 16.984375-70.292969 46.101563h-82.90625l-3.277344-24.574219c-.007812-.054688-.015625-.113281-.023437-.167969-3.195313-20.703125-21.050781-35.9570312-42-35.875h-42.699219c-3.867188 0-7 3.136719-7 7 0 3.867188 3.132812 7 7 7zm304.476562 290.519531c9.726563 0 17.613282 7.882813 17.613282 17.609375 0 9.726563-7.886719 17.613282-17.613282 17.613282-9.726562 0-17.609374-7.886719-17.609374-17.613282.011718-9.71875 7.890624-17.597656 17.609374-17.609375zm-120.777343 0c9.726562 0 17.613281 7.882813 17.613281 17.609375 0 9.726563-7.886719 17.613282-17.613281 17.613282-9.726563 0-17.609375-7.886719-17.609375-17.613282.011718-9.71875 7.886718-17.597656 17.609375-17.609375zm-16.359375-229.90625c-1.117188 7.648438-1.023438 15.421875.273437 23.039063.394531 2.484375 2.09375 4.5625 4.445313 5.445312 2.355468.886719 5 .441406 6.9375-1.164062 1.933594-1.605469 2.859375-4.125 2.421875-6.601563-1.28125-7.527343-1.125-15.230469.453125-22.699219 1.800781-1.734374 2.53125-4.304687 1.910156-6.726562 8.625-23.566406 31.617188-38.75 56.679688-37.414062 14.679687.773437 29.15625 6.949218 38.730468 16.519531 26.757813 26.761719 17.191406 64.832031 0 82.027343-11.34375 11.34375-25.851562 15.945313-38.554687 16.714844l14.734375-14.121094c2.792968-2.671874 2.886718-7.105468.210937-9.894531-2.675781-2.792969-7.105469-2.886719-9.898437-.210937l-25.082032 24.042968c-2.207031 1.242188-3.570312 3.574219-3.570312 6.105469.003906 2.53125 1.371094 4.863281 3.578125 6.101563l25.074219 24.027344c2.789062 2.675781 7.222656 2.582031 9.898437-.207032 2.671875-2.792968 2.578125-7.222656-.210937-9.898437l-12.523438-12c15.4375-1.15625 32.5-7.011719 46.242188-20.753907 17.765625-17.769531 23.152344-41.09375 19.6875-62.328124h81.386718l-36.476562 105.28125c-3.984375 11.480468-14.800781 19.179687-26.953125 19.183593h-220.273437l-16.601563-124.46875zm0 0"/></svg>