<svg height="414pt" viewBox="0 -30 414.00395 414" width="414pt" xmlns="http://www.w3.org/2000/svg"><path d="m217.699219 143.851562h61.941406c3.867187 0 7-3.132812 7-7 0-3.867187-3.132813-7-7-7h-61.941406c-3.863281 0-7 3.132813-7 7 0 3.867188 3.136719 7 7 7zm0 0"/><path d="m7 14.003906h42.699219c14.019531-.058594 25.980469 10.128906 28.160156 23.980469l33.792969 253.425781c.007812.054688.015625.113282.023437.167969 3.195313 20.703125 21.050781 35.957031 42 35.875h5.875c2.578125 15.195313 15.742188 26.3125 31.152344 26.3125 15.414063 0 28.578125-11.117187 31.15625-26.3125h58.46875c2.707031 15.863281 16.902344 27.164063 32.96875 26.246094 16.070313-.917969 28.882813-13.765625 29.761719-29.835938.878906-16.070312-10.457032-30.238281-26.328125-32.902343-15.871094-2.667969-31.214844 7.015624-35.636719 22.492187h-60c-3.871094-13.574219-16.273438-22.933594-30.386719-22.933594-14.117187 0-26.519531 9.359375-30.390625 22.933594h-6.640625c-14.019531.058594-25.984375-10.128906-28.164062-23.980469l-10.183594-76.382812h218.40625c18.117187-.007813 34.242187-11.484375 40.179687-28.597656l39.703126-114.578126c.742187-2.140624.40625-4.507812-.910157-6.355468-1.3125-1.847656-3.441406-2.945313-5.707031-2.941406h-312l-3.277344-24.574219c-.007812-.054688-.015625-.109375-.023437-.167969-3.195313-20.703125-21.050781-35.9570312-42-35.87109375h-42.699219c-3.867188 0-7 3.13281275-7 6.99999975 0 3.863282 3.132812 7 7 7zm304.476562 290.519532c9.726563 0 17.613282 7.882812 17.613282 17.609374 0 9.726563-7.886719 17.613282-17.613282 17.613282-9.726562 0-17.609374-7.886719-17.609374-17.613282.011718-9.722656 7.890624-17.597656 17.609374-17.609374zm-120.777343 0c9.726562 0 17.613281 7.882812 17.613281 17.609374 0 9.726563-7.886719 17.609376-17.613281 17.613282-9.726563 0-17.609375-7.886719-17.609375-17.613282.011718-9.722656 7.886718-17.597656 17.609375-17.609374zm206.46875-229.90625-36.480469 105.285156c-3.984375 11.480468-14.800781 19.179687-26.953125 19.183594h-220.273437l-16.601563-124.46875zm0 0"/></svg>