<svg height="362pt" viewBox="0 -4 362 362" width="362pt" xmlns="http://www.w3.org/2000/svg"><path d="m239.570312 18.734375c1.273438-3.652344-.65625-7.640625-4.304687-8.914063-18.734375-6.523437-38.429687-9.8437495-58.265625-9.820312-97.601562 0-177 79.398438-177 177s79.398438 177 177 177 177-79.398438 177-177c.042969-23.410156-4.585938-46.59375-13.621094-68.191406-.949218-2.328125-3.078125-3.972656-5.570312-4.296875-2.496094-.328125-4.976563.707031-6.496094 2.710937-1.515625 2.007813-1.84375 4.675782-.851562 6.988282 8.320312 19.886718 12.582031 41.234374 12.539062 62.789062 0 89.878906-73.121094 163-163 163s-163-73.121094-163-163 73.121094-163 163-163c18.265625-.023438 36.40625 3.03125 53.65625 9.039062 3.648438 1.273438 7.640625-.652343 8.914062-4.304687zm0 0"/><path d="m355 49.953125c3.867188 0 7-3.132813 7-7s-3.132812-7-7-7h-90c-3.867188 0-7 3.132813-7 7s3.132812 7 7 7zm0 0"/><path d="m177 109.292969c16.523438.019531 29.914062 13.410156 29.933594 29.933593 0 3.867188 3.132812 7 7 7 3.867187 0 7-3.132812 7-7-.027344-21.550781-15.664063-39.910156-36.933594-43.371093v-13.855469c0-3.867188-3.132812-7-7-7s-7 3.132812-7 7v13.855469c-22.601562 3.660156-38.605469 24.058593-36.773438 46.882812 1.828126 22.820313 20.878907 40.410157 43.773438 40.417969 16.460938 0 29.835938 13.292969 29.929688 29.757812.097656 16.460938-13.121094 29.910157-29.582032 30.101563-.117187-.007813-.230468-.019531-.347656-.019531s-.230469.011718-.347656.019531c-16.386719-.207031-29.566406-13.539063-29.585938-29.925781 0-3.867188-3.132812-7-7-7-3.867187 0-7 3.132812-7 7 .027344 21.550781 15.660156 39.910156 36.933594 43.371094v15.539062c0 3.867188 3.132812 7 7 7s7-3.132812 7-7v-15.539062c22.605469-3.648438 38.617188-24.054688 36.785156-46.878907-1.828125-22.824219-20.886718-40.417969-43.785156-40.417969-10.734375.058594-20.683594-5.632812-26.066406-14.917968-5.386719-9.289063-5.386719-20.746094 0-30.035156 5.382812-9.285157 15.332031-14.976563 26.066406-14.914063zm0 0"/></svg>