<svg height="469pt" viewBox="0 -28 469.94894 469" width="469pt" xmlns="http://www.w3.org/2000/svg"><path d="m330.683594 105.820312h80c3.867187 0 7-3.132812 7-7 0-3.863281-3.132813-7-7-7h-80c-3.867188 0-7 3.136719-7 7 0 3.867188 3.132812 7 7 7zm0 0"/><path d="m47 413.433594h360c25.945312-.027344 46.972656-21.054688 47-47v-212.6875c20.886719-32.253906 21.289062-73.667969 1.027344-106.324219-20.257813-32.652344-57.539063-50.6875-95.71875-46.296875-38.175782 4.386719-70.394532 30.410156-82.714844 66.808594h-161c-1.664062-.664063-3.515625-.664063-5.179688 0h-63.414062c-25.945312.03125-46.9726562 21.054687-47 47v251.5c.0273438 25.945312 21.054688 46.972656 47 47zm-33-47v-60h82.101562l-33.050781 33.050781c-2.734375 2.734375-2.734375 7.167969 0 9.898437 2.734375 2.734376 7.164063 2.734376 9.898438 0l33.050781-33.046874v83.097656h-59c-18.214844-.019532-32.980469-14.78125-33-33zm39.398438-103.539063c.148437-12.136719 10.09375-21.867187 22.230468-21.753906 3.957032-.003906 7.84375 1.03125 11.277344 3 5.484375 3.136719 9.339844 8.496094 10.5625 14.695313l6.101562 31.445312-32.125-6.027344c-10.367187-1.855468-17.945312-10.828125-18.046874-21.359375zm69.035156 27.390625 6.097656-31.445312c2.328125-11.070313 12.578125-18.636719 23.84375-17.601563 11.261719 1.035157 19.960938 10.347657 20.226562 21.65625-.097656 10.535157-7.675781 19.507813-18.042968 21.363281zm284.566406 109.148438h-287v-83.097656l44.550781 44.546874c2.734375 2.734376 7.164063 2.734376 9.898438 0 2.734375-2.730468 2.734375-7.164062 0-9.898437l-44.550781-44.550781h310.101562v60c-.019531 18.21875-14.785156 32.980468-33 33zm-36.316406-385c47.121094 0 85.316406 38.199218 85.316406 85.320312 0 47.117188-38.199219 85.316406-85.316406 85.316406-47.121094-.003906-85.316406-38.199218-85.316406-85.320312.050781-47.097656 38.21875-85.261719 85.316406-85.316406zm0 184.636718c25.914062.015626 50.800781-10.132812 69.316406-28.265624v121.628906h-269.238281c9.867187-6.59375 15.804687-17.667969 15.839843-29.539063 0-19.714843-16.253906-35.753906-36.230468-35.753906-12.214844-.011719-23.617188 6.097656-30.371094 16.273437v-161.480468h152.96875c-5.269531 28.980468 2.589844 58.804687 21.457031 81.425781 18.871094 22.617187 46.800781 35.699219 76.257813 35.710937zm-323.683594-117.136718h59v161.484375c-3.089844-4.691407-7.234375-8.59375-12.101562-11.398438-5.554688-3.199219-11.855469-4.878906-18.265626-4.878906-19.980468 0-36.230468 16.039063-36.230468 35.753906.03125 11.867188 5.96875 22.941407 15.835937 29.539063h-41.238281v-177.5c.019531-18.214844 14.785156-32.976563 33-33zm0 0"/></svg>