<svg height="414pt" viewBox="0 -11 414.00226 414" width="414pt" xmlns="http://www.w3.org/2000/svg"><path d="m202.480469 352.132812c0-21.800781-17.671875-39.472656-39.46875-39.472656-21.800781 0-39.472657 17.671875-39.472657 39.46875 0 21.800782 17.671876 39.472656 39.472657 39.472656 21.785156-.023437 39.445312-17.679687 39.46875-39.46875zm-64.941407 0c0-14.070312 11.402344-25.472656 25.472657-25.472656 14.066406 0 25.46875 11.402344 25.46875 25.46875 0 14.070313-11.402344 25.472656-25.46875 25.472656-14.0625-.015624-25.457031-11.410156-25.472657-25.46875zm0 0"/><path d="m309.167969 312.660156c-21.800781 0-39.472657 17.671875-39.472657 39.472656 0 21.796876 17.671876 39.472657 39.472657 39.46875 21.796875 0 39.46875-17.671874 39.46875-39.46875-.023438-21.789062-17.679688-39.445312-39.46875-39.472656zm0 64.941406c-14.066407 0-25.472657-11.402343-25.472657-25.46875 0-14.066406 11.402344-25.472656 25.46875-25.472656 14.070313 0 25.472657 11.402344 25.472657 25.472656-.015625 14.058594-11.410157 25.453126-25.46875 25.46875zm0 0"/><path d="m7 14h42.699219c14.050781-.054688 26.03125 10.175781 28.171875 24.066406l33.800781 213.511719c3.191406 20.703125 21.050781 35.957031 42 35.875h208.929687c3.863282 0 7-3.136719 7-7 0-3.867187-3.136718-7-7-7h-208.929687c-14.050781.054687-26.03125-10.179687-28.171875-24.066406l-5.746094-36.300781h213.980469c18.117187-.007813 34.242187-11.484376 40.179687-28.597657l39.699219-114.578125c.746094-2.140625.40625-4.507812-.90625-6.355468-1.316406-1.84375-3.441406-2.941407-5.707031-2.941407h-311.386719l-3.914062-24.738281c-3.191407-20.703125-21.050781-35.9570312-42-35.875h-42.699219c-3.867188 0-7 3.136719-7 7 0 3.867188 3.132812 7 7 7zm99.40625 114.800781h271.984375l-5.542969 16h-263.90625zm254.28125 51.101563c-3.984375 11.480468-14.800781 19.179687-26.953125 19.183594h-216.199219l-6.378906-40.285157h256.84375zm36.476562-105.285156-13.921874 40.183593h-279.050782l-6.363281-40.1875zm0 0"/></svg>