<svg height="489pt" viewBox="0 -25 489.3 489" width="489pt" xmlns="http://www.w3.org/2000/svg"><path d="m44.265625 171.257812h109.101563c3.867187 0 7-3.132812 7-7 0-3.867187-3.132813-7-7-7h-109.101563c-3.863281 0-7 3.132813-7 7 0 3.867188 3.136719 7 7 7zm0 0"/><path d="m44.265625 221.449219h109.101563c3.867187 0 7-3.132813 7-7 0-3.863281-3.132813-7-7-7h-109.101563c-3.863281 0-7 3.136719-7 7 0 3.867187 3.136719 7 7 7zm0 0"/><path d="m153.371094 271.632812c3.863281 0 7-3.132812 7-7 0-3.867187-3.136719-7-7-7h-109.105469c-3.863281 0-7 3.132813-7 7 0 3.867188 3.136719 7 7 7zm0 0"/><path d="m44.265625 121.070312h109.101563c3.867187 0 7-3.132812 7-7 0-3.863281-3.132813-7-7-7h-109.101563c-3.863281 0-7 3.136719-7 7 0 3.867188 3.136719 7 7 7zm0 0"/><path d="m221.015625 270.542969h48.863281c3.867188 0 7-3.136719 7-7 0-3.867188-3.132812-7-7-7h-48.863281c-3.867187 0-7 3.132812-7 7 0 3.863281 3.132813 7 7 7zm0 0"/><path d="m221.015625 312h28.367187c3.863282 0 7-3.132812 7-7 0-3.863281-3.136718-7-7-7h-28.367187c-3.867187 0-7 3.136719-7 7 0 3.867188 3.132813 7 7 7zm0 0"/><path d="m241.570312 342.734375h-20.554687c-3.867187 0-7 3.132813-7 7 0 3.863281 3.132813 7 7 7h20.554687c3.867188 0 7-3.136719 7-7 0-3.867187-3.132812-7-7-7zm0 0"/><path d="m221.015625 225.808594h46.914063c3.863281 0 7-3.132813 7-7 0-3.863282-3.136719-7-7-7h-46.914063c-3.867187 0-7 3.136718-7 7 0 3.867187 3.132813 7 7 7zm0 0"/><path d="m221.015625 182.167969h46.914063c3.863281 0 7-3.132813 7-7 0-3.867188-3.136719-7-7-7h-46.914063c-3.867187 0-7 3.132812-7 7 0 3.867187 3.132813 7 7 7zm0 0"/><path d="m463.660156 260.027344c-1.570312-10.046875-10.246094-17.441406-20.417968-17.398438h-14.746094v-13.800781c.082031-18.707031-9.847656-36.027344-26.035156-45.40625-16.1875-9.375-36.15625-9.375-52.34375 0-16.1875 9.378906-26.121094 26.699219-26.039063 45.40625v13.800781h-14.742187c-.835938.003906-1.671876.058594-2.5.164063v-128.550781c0-3.863282-3.136719-7-7-7h-13.449219v-29.46875c0-3.867188-3.136719-7-7-7h-22.109375v-12.78125c0-3.867188-3.132813-7-7-7-3.867188 0-7 3.132812-7 7v12.78125h-22.65625c-3.863282 0-7 3.132812-7 7v29.46875h-16.023438v-37.664063c0-3.863281-3.136718-7-7-7h-25.128906v-29.964844c0-3.867187-3.136719-7-7-7h-53.742188v-18.464843c0-3.863282-3.132812-7-7-7-3.863281 0-7 3.136718-7 7v18.464843h-51.597656c-3.867187 0-7 3.132813-7 7v29.964844h-25.128906c-3.867188 0-7 3.136719-7 7v330.378906c0 3.863281 3.132812 7 7 7h87.050781c2.253907 1.40625 5.109375 1.40625 7.363281 0h161.902344c.859375 18.335938 15.960938 32.769531 34.320313 32.792969h157.304687c18.964844-.023438 34.335938-15.390625 34.359375-34.359375 0-.40625-.035156-.816406-.109375-1.21875zm-125.582031-31.199219c-.070313-13.699219 7.199219-26.382813 19.050781-33.253906 11.847656-6.867188 26.46875-6.867188 38.320313 0 11.851562 6.871093 19.117187 19.554687 19.046875 33.253906v13.800781h-76.417969zm-110.457031-144.054687h44.765625v22.46875h-44.765625zm65.214844 36.46875v137.109374l2.199218-10c-3.261718 3.117188-5.410156 7.21875-6.117187 11.679688l-23.546875 132.925781h-67.773438v-271.714843zm-246.707032-81.628907h105.339844v22.964844h-105.339844zm-32.128906 36.964844h169.601562v316.378906h-41.082031v-66.105469c0-3.867187-3.136719-7-7-7h-37.308593c-.160157-.011718-.320313-.027343-.484376-.027343-.160156 0-.324218.015625-.484374.027343h-35.164063c-3.863281 0-7 3.132813-7 7v66.109376h-41.078125zm90.726562 257.273437h23.792969v59.109376h-23.792969zm-14 59.109376h-21.648437v-59.109376h21.648437zm364.214844 32.789062h-157.304687c-11.015625-.011719-20.03125-8.777344-20.351563-19.785156l25.429688-143.554688c.007812-.046875.015625-.09375.019531-.136718.5-3.257813 3.308594-5.65625 6.601563-5.644532h14.746093v22.839844c0 3.867188 3.132813 7 7 7 3.863281 0 7-3.132812 7-7v-22.839844h76.417969v22.839844c0 3.863281 3.132812 7 7 7s7-3.136719 7-7v-22.839844h14.742188c3.296874-.015625 6.105468 2.386719 6.601562 5.644532.007812.042968.015625.089843.023438.132812l25.429687 143.554688c-.324219 11.011718-9.335937 19.777343-20.355469 19.789062zm0 0"/></svg>