<svg height="408pt" viewBox="0 0 408.49985 408" width="408pt" xmlns="http://www.w3.org/2000/svg"><path d="m109.878906 396.582031c16.234375 16.199219 42.519532 16.199219 58.753906 0l183.316407-183.316406c1.320312-1.324219 2.058593-3.117187 2.050781-4.988281l-.722656-142.90625 53.171875-53.171875c2.734375-2.734375 2.734375-7.164063 0-9.898438-2.734375-2.734375-7.164063-2.734375-9.898438 0l-53.171875 53.171875-142.910156-.722656c-1.867188-.019531-3.667969.722656-4.984375 2.050781l-183.316406 183.320313c-16.222657 16.222656-16.222657 42.527344 0 58.753906zm-87.8125-146.5625 181.253906-181.253906 135.980469.6875.683594 135.976563-181.25 181.253906c-10.765625 10.738281-28.191406 10.738281-38.957031 0l-97.710938-97.710938c-10.757812-10.757812-10.757812-28.195312 0-38.953125zm0 0"/><path d="m250.085938 200.210938c19.824218 0 36.882812-14.003907 40.75-33.441407 3.867187-19.441406-6.535157-38.90625-24.847657-46.492187-18.3125-7.585938-39.433593-1.179688-50.445312 15.300781s-8.847657 38.445313 5.167969 52.460937c7.773437 7.816407 18.351562 12.199219 29.375 12.171876zm-19.476563-61.027344c10.757813-10.757813 28.199219-10.757813 38.957031 0 10.757813 10.757812 10.757813 28.199218 0 38.957031-10.757812 10.757813-28.199218 10.757813-38.957031 0-5.210937-5.140625-8.140625-12.15625-8.140625-19.476563 0-7.320312 2.929688-14.335937 8.140625-19.480468zm0 0"/></svg>