<svg height="414pt" viewBox="0 -30 414.00226 414" width="414pt" xmlns="http://www.w3.org/2000/svg"><path d="m7 14h42.699219c14.019531-.054688 25.984375 10.132812 28.160156 23.984375l33.792969 253.425781c.007812.054688.015625.109375.023437.167969 3.195313 20.703125 21.050781 35.957031 42 35.875h5.875c2.578125 15.191406 15.742188 26.3125 31.152344 26.3125 15.414063 0 28.578125-11.121094 31.15625-26.3125h58.46875c2.707031 15.863281 16.902344 27.164063 32.96875 26.246094 16.070313-.921875 28.882813-13.765625 29.761719-29.835938.878906-16.070312-10.457032-30.238281-26.328125-32.90625-15.871094-2.664062-31.214844 7.019531-35.636719 22.496094h-60c-3.871094-13.574219-16.273438-22.9375-30.386719-22.9375-14.117187 0-26.519531 9.363281-30.390625 22.9375h-6.640625c-14.019531.054687-25.984375-10.128906-28.164062-23.980469l-10.183594-76.382812h218.40625c18.117187-.007813 34.242187-11.488282 40.179687-28.601563l39.699219-114.578125c.746094-2.140625.40625-4.507812-.90625-6.351562-1.316406-1.847656-3.441406-2.945313-5.707031-2.941406h-312l-3.277344-24.574219c-.007812-.054688-.015625-.113281-.023437-.167969-3.195313-20.703125-21.050781-35.9570312-42-35.875h-42.699219c-3.867188 0-7 3.136719-7 7 0 3.867188 3.132812 7 7 7zm304.476562 290.519531c9.726563 0 17.613282 7.886719 17.613282 17.613281 0 9.726563-7.886719 17.609376-17.613282 17.609376-9.726562 0-17.609374-7.882813-17.609374-17.609376.011718-9.722656 7.890624-17.601562 17.609374-17.613281zm-120.777343 0c9.726562 0 17.613281 7.886719 17.613281 17.613281 0 9.726563-7.886719 17.609376-17.613281 17.609376-9.726563 0-17.609375-7.882813-17.609375-17.609376.011718-9.722656 7.886718-17.601562 17.609375-17.613281zm-86.609375-175.71875h274.296875l-5.542969 16h-266.621094zm256.597656 51.101563c-3.984375 11.480468-14.800781 19.179687-26.949219 19.183594h-220.277343l-5.371094-40.28125h259.910156zm36.480469-105.285156-13.925781 40.183593h-281.019532l-5.359375-40.183593zm0 0"/></svg>