<svg height="384pt" viewBox="0 -32 384 384" width="384pt" xmlns="http://www.w3.org/2000/svg"><path d="m27 285.738281h18.601562c3.410157 20.210938 20.910157 35.003907 41.402344 35.003907 20.496094 0 37.996094-14.792969 41.40625-35.003907h127.191406c3.410157 20.210938 20.910157 35.003907 41.402344 35.003907 20.496094 0 37.996094-14.792969 41.40625-35.003907h18.589844c14.90625-.015625 26.984375-12.09375 27-27v-89.566406c0-.058594-.007812-.117187-.007812-.175781 0-.125-.011719-.253906-.019532-.378906-.007812-.105469-.019531-.214844-.035156-.320313-.011719-.109375-.03125-.234375-.050781-.351563-.019531-.117187-.042969-.222656-.066407-.332031-.023437-.109375-.054687-.222656-.085937-.332031s-.0625-.21875-.101563-.328125c-.035156-.109375-.074218-.214844-.117187-.320313-.039063-.105468-.082031-.210937-.128906-.316406-.046875-.101562-.101563-.207031-.148438-.308594-.050781-.101562-.101562-.199218-.164062-.296874-.058594-.101563-.113281-.195313-.171875-.289063-.0625-.097656-.132813-.203125-.203125-.300781-.066407-.101563-.125-.175782-.191407-.257813-.078124-.101562-.160156-.203125-.242187-.292969-.039063-.046874-.074219-.089843-.113281-.132812l-51.511719-56.128906c-5.121094-5.5625-12.332031-8.734375-19.894531-8.742188h-93.265625v-72.566406c-.019531-14.90625-12.097657-26.9804688-27-27h-163.480469c-14.90625.015625-26.984375 12.09375-27 27v231.738281c.015625 14.90625 12.09375 26.984375 27 27zm60 21c-15.464844 0-28-12.535156-28-28 0-15.460937 12.535156-28 28-28s28 12.539063 28 28c-.019531 15.457031-12.542969 27.984375-28 28zm210 0c-15.464844 0-28-12.535156-28-28 0-15.460937 12.535156-28 28-28s28 12.539063 28 28c-.019531 15.457031-12.542969 27.984375-28 28zm73-48c-.007812 7.179688-5.824219 12.992188-13 13h-18.601562c-3.410157-20.207031-20.910157-35-41.402344-35-20.496094 0-37.996094 14.792969-41.40625 35h-38.109375v-95.566406h152.519531zm-59.253906-145.167969c3.640625.003907 7.113281 1.53125 9.578125 4.210938l40.75 44.398438h-143.601563v-48.609376zm-296.746094-86.570312c.007812-7.175781 5.824219-12.992188 13-13h163.480469c7.175781.007812 12.988281 5.824219 13 13v244.738281h-75.074219c-3.414062-20.207031-20.914062-35-41.40625-35s-37.992188 14.792969-41.40625 35h-18.59375c-7.175781-.007812-12.992188-5.820312-13-13zm0 0"/></svg>