<svg height="479pt" viewBox="-64 0 479 479.19961" width="479pt" xmlns="http://www.w3.org/2000/svg"><path d="m182.867188 372.238281h-39.136719c-3.867188 0-7 3.136719-7 7 0 3.867188 3.132812 7 7 7h39.136719c3.867187 0 7-3.132812 7-7 0-3.863281-3.132813-7-7-7zm0 0"/><path d="m275.5 221.910156v-35.367187c19.035156 5.121093 39.074219-3.683594 48.175781-21.171875.542969-1.011719.824219-2.144532.824219-3.292969v-50c0-.042969-.007812-.082031-.007812-.125 0-.078125-.007813-.152344-.011719-.226563-.011719-.246093-.035157-.488281-.074219-.730468-.007812-.0625-.015625-.125-.027344-.1875-.054687-.300782-.128906-.597656-.222656-.886719-.007812-.027344-.019531-.054687-.027344-.082031-.089844-.265625-.199218-.523438-.320312-.777344-.023438-.054688-.050782-.109375-.078125-.160156-.136719-.273438-.292969-.535156-.464844-.789063-.019531-.03125-.042969-.058593-.066406-.089843-.160157-.226563-.335938-.441407-.523438-.648438-.027343-.027344-.046875-.0625-.074219-.089844l-47.101562-50.121094v-18.0625c-.023438-21.585937-17.515625-39.0781245-39.101562-39.101562h-146.199219c-21.582031.0234375-39.074219 17.515625-39.097657 39.101562v17.78125l-49.015624 50.3125c-1.269532 1.308594-1.976563 3.0625-1.972657 4.886719 0 .097657-.011719.195313-.011719.300781v49.699219c0 1.125.273438 2.238281.792969 3.238281 9.453125 18.214844 30.679688 26.933594 50.207031 20.621094v197.957032c.023438 21.585937 17.515626 39.078124 39.097657 39.101562h123.425781v49.199219c0 2.511719 1.347656 4.828125 3.523438 6.074219 2.179687 1.25 4.859374 1.234374 7.023437-.039063l45.96875-27.007813 45.964844 27.007813c2.164062 1.273437 4.84375 1.289063 7.023437.039063 2.175782-1.246094 3.523438-3.5625 3.523438-6.074219v-116.882813c15.074218-14.488281 23.613281-34.488281 23.648437-55.398437 0-41.363281-33.09375-75.304688-74.800781-78.007813zm-185.300781-207.910156h146.199219c13.855468.015625 25.085937 11.246094 25.101562 25.101562v13.628907h-196.398438v-13.628907c.015626-13.855468 11.242188-25.085937 25.097657-25.101562zm-29.144531 52.730469h202.933593c.753907.632812 1.628907 1.097656 2.570313 1.371093l34.753906 36.976563h-277.621094zm-46.953126 93.546875v-41.199219h296.398438v41.199219c-5.175781 8.742187-14.6875 13.984375-24.84375 13.691406-10.152344-.289062-19.347656-6.066406-24.015625-15.089844-.023437-.042968-.058594-.113281-.085937-.15625-1.226563-2.246094-3.585938-3.644531-6.148438-3.640625h-.015625c-2.574219.007813-4.929687 1.421875-6.148437 3.6875l-.054688.097657c-4.800781 9.277343-14.371094 15.105468-24.816406 15.105468-10.445313 0-20.019532-5.828125-24.816406-15.105468-.019532-.03125-.042969-.078126-.0625-.113282-1.21875-2.257812-3.578126-3.671875-6.144532-3.675781h-.019531c-2.566406.003906-4.921875 1.402344-6.148437 3.65625-.027344.042969-.050782.089844-.074219.132813-4.796875 9.277343-14.371094 15.105468-24.816407 15.105468-10.445312 0-20.015624-5.828125-24.816406-15.105468-.066406-.128907-.144531-.269532-.21875-.394532-1.292968-2.191406-3.683594-3.496094-6.222656-3.398437-2.539062.078125-4.835938 1.523437-6 3.777343-4.800781 9.277344-14.375 15.105469-24.820312 15.105469-10.445313 0-20.015626-5.828125-24.816407-15.105469-1.203125-2.320312-3.601562-3.777343-6.21875-3.777343-2.617187.003906-5.015625 1.460937-6.21875 3.789062-1.792969 3.496094-4.296875 6.582031-7.351562 9.054688-1.097657.417969-2.070313 1.105469-2.832031 2-4.410157 2.679687-9.476563 4.078125-14.632813 4.046875-9.894531.105468-19.082031-5.125-24.039063-13.6875zm55.078126 13.984375c7.957031 8.730469 19.222656 13.703125 31.035156 13.703125s23.078125-4.972656 31.03125-13.703125c7.957031 8.734375 19.226562 13.710937 31.042968 13.710937 11.8125 0 23.082032-4.976562 31.039063-13.710937 7.953125 8.734375 19.222656 13.710937 31.039063 13.710937 11.816406 0 23.085937-4.976562 31.039062-13.710937 1.84375 2.03125 3.886719 3.875 6.089844 5.503906v42.410156c-40.148438 4.21875-71.515625 37.46875-71.515625 77.734375-.003907 12.195313 2.921875 24.210938 8.527343 35.035156h-133.40625v-156.773437c1.445313-1.210937 2.808594-2.515625 4.078126-3.910156zm21.019531 234.738281c-13.855469-.015625-25.082031-11.242188-25.097657-25.101562v-34.949219h142.660157c1.835937 2.226562 3.796875 4.355469 5.863281 6.367187v53.683594zm222.453125 50.972656-38.96875-22.902344c-2.1875-1.285156-4.902344-1.285156-7.089844 0l-38.96875 22.902344v-93.808594c26.105469 15.933594 58.921875 15.933594 85.027344 0zm3.5-113.984375c-.84375.488281-1.574219 1.148438-2.148438 1.9375-25.257812 21.589844-62.464844 21.589844-87.722656 0-.570312-.785156-1.300781-1.445312-2.140625-1.933593-12.8125-11.902344-20.113281-28.585938-20.15625-46.074219 0-35.398438 29.679687-64.199219 66.160156-64.199219s66.160157 28.800781 66.160157 64.199219c-.046876 17.488281-7.347657 34.167969-20.160157 46.066406zm0 0"/><path d="m310.5 281.636719h-25.789062l-7.933594-23.753907c-.953125-2.855468-3.625-4.78125-6.636719-4.78125s-5.6875 1.925782-6.640625 4.78125l-7.929688 23.753907h-25.789062c-3.050781 0-5.75 1.972656-6.671875 4.878906-.925781 2.90625.140625 6.074219 2.628906 7.835937l20.699219 14.632813-7.878906 23.601563c-.960938 2.871093.035156 6.03125 2.464844 7.835937 2.429687 1.804687 5.746093 1.84375 8.214843.097656l20.902344-14.78125 20.898437 14.78125c2.472657 1.746094 5.785157 1.707031 8.214844-.097656 2.429688-1.804687 3.421875-4.964844 2.464844-7.835937l-7.878906-23.601563 20.699218-14.632813c2.488282-1.761718 3.554688-4.929687 2.628907-7.835937-.921875-2.90625-3.621094-4.878906-6.671875-4.878906zm-31.582031 26.851562 2.757812 8.265625-7.5-5.300781c-2.421875-1.710937-5.660156-1.710937-8.082031 0l-7.5 5.300781 2.761719-8.265625c.976562-2.929687-.078125-6.152343-2.601563-7.933593l-6.960937-4.917969h8.808593c3.011719 0 5.6875-1.929688 6.640626-4.785157l2.886718-8.648437 2.890625 8.648437c.953125 2.855469 3.625 4.785157 6.636719 4.785157h8.808594l-6.960938 4.917969c-2.515625 1.785156-3.570312 5.007812-2.589844 7.933593zm0 0"/></svg>