<svg height="362pt" viewBox="0 0 362 362.00086" width="362pt" xmlns="http://www.w3.org/2000/svg"><path d="m235.265625 17.820312c-18.730469-6.523437-38.429687-9.84375-58.265625-9.820312-97.597656 0-177 79.398438-177 177-.0273438 20.683594 3.582031 41.210938 10.664062 60.644531 1.324219 3.632813 5.34375 5.503907 8.976563 4.175781 3.632813-1.324218 5.5-5.34375 4.175781-8.976562-6.519531-17.894531-9.839844-36.796875-9.816406-55.84375 0-89.878906 73.121094-163 163-163 18.265625-.023438 36.40625 3.03125 53.65625 9.039062 2.363281.839844 5 .347657 6.902344-1.289062 1.902344-1.632812 2.785156-4.164062 2.3125-6.628906s-2.230469-4.488282-4.605469-5.300782zm0 0"/><path d="m84.394531 319.15625 22.167969-30.085938c1.664062-2.257812 1.820312-5.289062.394531-7.707031-1.421875-2.414062-4.148437-3.746093-6.929687-3.386719l-54.945313 7.132813c-1.890625.246094-3.601562 1.253906-4.734375 2.789063-1.132812 1.535156-1.589844 3.46875-1.265625 5.347656l9.464844 54.59375c.480469 2.761718 2.5625 4.972656 5.289063 5.613281 2.730468.644531 5.582031-.402344 7.242187-2.65625l15-20.363281c29.59375 20.65625 64.835937 31.679687 100.921875 31.566406 97.601562 0 177-79.398438 177-177 .046875-23.410156-4.585938-46.59375-13.621094-68.191406-.949218-2.328125-3.078125-3.972656-5.570312-4.300782-2.496094-.324218-4.976563.710938-6.492188 2.714844-1.519531 2.007813-1.847656 4.675782-.855468 6.988282 8.320312 19.886718 12.582031 41.234374 12.539062 62.789062 0 89.878906-73.121094 163-163 163-33.09375.101562-65.421875-9.964844-92.605469-28.84375zm-24.851562 10.128906-5.414063-31.230468 31.433594-4.082032-16.527344 22.433594c-.019531.019531-.035156.039062-.050781.058594-.015625.019531-.046875.070312-.074219.105468zm0 0"/><path d="m311.046875 0c-3.867187 0-7 3.132812-7 7v36.953125h-39.046875c-3.867188 0-7 3.132813-7 7s3.132812 7 7 7h39.046875v39.046875c0 3.867188 3.132813 7 7 7s7-3.132812 7-7v-39.046875h36.953125c3.867188 0 7-3.132813 7-7s-3.132812-7-7-7h-36.953125v-36.953125c0-3.867188-3.132813-7-7-7zm0 0"/><path d="m177.347656 251.019531c-.117187-.007812-.230468-.019531-.347656-.019531s-.230469.011719-.347656.019531c-16.386719-.207031-29.566406-13.539062-29.585938-29.925781 0-3.867188-3.132812-7-7-7-3.867187 0-7 3.132812-7 7 .03125 21.550781 15.664063 39.90625 36.933594 43.367188v15.539062c0 3.867188 3.132812 7 7 7s7-3.132812 7-7v-15.539062c22.605469-3.648438 38.617188-24.054688 36.785156-46.878907-1.828125-22.824219-20.886718-40.417969-43.785156-40.421875-16.53125 0-29.933594-13.398437-29.933594-29.933594 0-16.53125 13.402344-29.933593 29.933594-29.933593 16.535156 0 29.933594 13.402343 29.933594 29.9375 0 3.863281 3.136718 7 7 7 3.867187 0 7-3.136719 7-7-.027344-21.554688-15.660156-39.914063-36.933594-43.375v-13.855469c0-3.867188-3.132812-7-7-7s-7 3.132812-7 7v13.855469c-22.601562 3.660156-38.605469 24.058593-36.773438 46.882812 1.828126 22.820313 20.878907 40.410157 43.773438 40.417969 16.464844 0 29.835938 13.292969 29.933594 29.757812.09375 16.460938-13.125 29.910157-29.585938 30.101563zm0 0"/></svg>