<svg height="411pt" viewBox="-39 0 411 411.22243" width="411pt" xmlns="http://www.w3.org/2000/svg"><path d="m48.433594 288.058594 113.5625 120.953125c1.320312 1.410156 3.167968 2.210937 5.101562 2.210937s3.78125-.800781 5.105469-2.210937l113.554687-120.953125c17.378907-18.511719 30.179688-38.828125 38.042969-60.382813 8.027344-21.640625 11.414063-44.726562 9.941407-67.761719-2.765626-42.089843-20.675782-81.753906-50.417969-111.664062-30.792969-30.890625-72.613281-48.25-116.230469-48.25-43.613281 0-85.433594 17.359375-116.226562 48.25-29.742188 29.910156-47.652344 69.574219-50.421876 111.664062-1.472656 23.035157 1.914063 46.121094 9.941407 67.761719 7.867187 21.554688 20.667969 41.871094 38.046875 60.382813zm-34.019532-127.210938c2.542969-38.714844 19.015626-75.203125 46.367188-102.714844 28.167969-28.253906 66.421875-44.132812 106.3125-44.132812 39.894531 0 78.148438 15.878906 106.3125 44.132812 27.355469 27.511719 43.824219 64 46.367188 102.714844 1.339843 21.085938-1.765626 42.21875-9.125 62.027344-7.210938 19.769531-19.019532 38.476562-35.097657 55.601562l-108.457031 115.523438-108.453125-115.523438c-16.078125-17.125-27.886719-35.832031-35.101563-55.597656-7.355468-19.808594-10.464843-40.945312-9.125-62.03125zm0 0"/><path d="m165.820312 277.300781c.417969.003907.832032.007813 1.246094.007813 30.519532.011718 59.761719-12.242188 81.160156-34 22.101563-22.234375 34.59375-52.253906 34.785157-83.601563.699219-65.527343-50.726563-119.398437-114.644531-120.082031-30.945313-.351562-60.699219 11.921875-82.402344 33.988281-45.683594 46.375-46.480469 120.589844-1.800782 167.933594 21.222657 22.53125 50.707032 35.441406 81.65625 35.753906zm-69.925781-193.8125c18.777344-19.109375 44.441407-29.875 71.234375-29.875.363282 0 .726563 0 1.089844.003907 56.199219.601562 101.414062 48.125 100.792969 105.9375-.160157 27.699218-11.1875 54.226562-30.710938 73.878906-19.046875 19.375-45.160156 30.15625-72.328125 29.867187-27.167968-.292969-53.046875-11.632812-71.671875-31.414062-39.445312-41.851563-38.742187-107.402344 1.589844-148.398438zm0 0"/><path d="m127.09375 164.53125h33.933594v33.929688c0 3.863281 3.132812 7 7 7 3.863281 0 7-3.136719 7-7v-33.929688h32.066406c3.867188 0 7-3.136719 7-7 0-3.867188-3.132812-7-7-7h-32.066406v-32.070312c0-3.867188-3.136719-7-7-7-3.867188 0-7 3.132812-7 7v32.070312h-33.933594c-3.863281 0-7 3.132812-7 7 0 3.863281 3.136719 7 7 7zm0 0"/></svg>