<svg height="460pt" viewBox="-33 0 460 460.501" width="460pt" xmlns="http://www.w3.org/2000/svg"><path d="m197.25 208.25c-53.570312 0-97 43.429688-97 97 0 53.574219 43.429688 97 97 97s97-43.425781 97-97c-.058594-53.546875-43.453125-96.9375-97-97zm0 180c-45.839844 0-83-37.160156-83-83s37.160156-83 83-83 83 37.160156 83 83c-.050781 45.820312-37.179688 82.949219-83 83zm0 0"/><path d="m240.332031 274.363281-54.855469 52.402344-29.085937-29.089844c-2.734375-2.734375-7.167969-2.734375-9.898437 0-2.734376 2.734375-2.734376 7.167969 0 9.902344l33.921874 33.921875c2.6875 2.6875 7.035157 2.738281 9.785157.109375l59.800781-57.121094c1.832031-1.722656 2.601562-4.296875 2.015625-6.742187-.589844-2.445313-2.445313-4.386719-4.859375-5.085938-2.417969-.699218-5.023438-.050781-6.828125 1.703125zm0 0"/><path d="m348.371094 144.855469c-2.375-15.332031-15.605469-26.617188-31.121094-26.554688h-31.972656v-30.273437c0-48.617188-39.410156-88.027344-88.027344-88.027344s-88.027344 39.410156-88.027344 88.027344v30.273437h-31.972656c-15.515625-.0625-28.746094 11.222657-31.121094 26.554688l-45.769531 258.394531c-.074219.402344-.109375.8125-.109375 1.21875.039062 30.929688 25.101562 55.996094 56.03125 56.03125h281.9375c30.929688-.035156 55.996094-25.101562 56.03125-56.03125 0-.410156-.035156-.816406-.105469-1.222656zm-225.148438-56.828125c0-40.882813 33.144532-74.027344 74.027344-74.027344 40.886719 0 74.027344 33.144531 74.027344 74.027344v30.273437h-148.054688zm215 358.472656h-281.941406c-22.972656-.023438-41.679688-18.46875-42.03125-41.4375l45.667969-257.828125c.011719-.042969.015625-.085937.023437-.132813 1.304688-8.539062 8.664063-14.835937 17.300782-14.800781h31.972656v46.476563c0 3.867187 3.132812 7 7 7 3.867187 0 7-3.132813 7-7v-46.476563h148.0625v46.476563c0 3.867187 3.136718 7 7 7 3.867187 0 7-3.132813 7-7v-46.476563h31.972656c8.636719-.03125 15.996094 6.261719 17.300781 14.800781.007813.046876.015625.089844.023438.132813l45.675781 257.828125c-.351562 22.96875-19.058594 41.414062-42.03125 41.4375zm0 0"/></svg>