<svg height="411pt" viewBox="-39 0 411 411.22243" width="411pt" xmlns="http://www.w3.org/2000/svg"><path d="m48.433594 288.058594 113.5625 120.953125c1.320312 1.410156 3.167968 2.210937 5.101562 2.210937s3.78125-.800781 5.105469-2.210937l113.554687-120.953125c17.378907-18.511719 30.179688-38.828125 38.042969-60.382813 8.027344-21.640625 11.414063-44.726562 9.941407-67.761719-2.765626-42.089843-20.675782-81.753906-50.417969-111.664062-30.792969-30.890625-72.613281-48.25-116.230469-48.25-43.613281 0-85.433594 17.359375-116.226562 48.25-29.742188 29.910156-47.652344 69.574219-50.421876 111.664062-1.472656 23.035157 1.914063 46.121094 9.941407 67.761719 7.867187 21.554688 20.667969 41.871094 38.046875 60.382813zm-34.019532-127.210938c2.542969-38.714844 19.015626-75.203125 46.367188-102.714844 28.167969-28.253906 66.421875-44.132812 106.3125-44.132812 39.894531 0 78.148438 15.878906 106.3125 44.132812 27.355469 27.511719 43.824219 64 46.367188 102.714844 1.339843 21.085938-1.765626 42.21875-9.125 62.027344-7.210938 19.769531-19.019532 38.476562-35.097657 55.601562l-108.457031 115.523438-108.453125-115.523438c-16.078125-17.125-27.886719-35.832031-35.101563-55.597656-7.355468-19.808594-10.464843-40.945312-9.125-62.03125zm0 0"/><path d="m167.09375 277.3125c63.921875 0 115.921875-53.316406 115.921875-118.847656s-52-118.851563-115.921875-118.851563c-63.917969 0-115.921875 53.3125-115.921875 118.847657 0 65.53125 52.003906 118.851562 115.921875 118.851562zm0-223.699219c56.203125 0 101.921875 47.035157 101.921875 104.847657s-45.71875 104.851562-101.921875 104.851562c-56.199219 0-101.921875-47.039062-101.921875-104.851562s45.722656-104.847657 101.921875-104.847657zm0 0"/><path d="m134.519531 192.351562c2.730469 2.734376 7.164063 2.734376 9.898438 0l23.992187-23.992187 22.679688 22.675781c2.730468 2.734375 7.164062 2.734375 9.898437 0s2.734375-7.164062 0-9.898437l-22.675781-22.675781 22.675781-22.679688c2.734375-2.734375 2.734375-7.164062 0-9.898438-2.734375-2.734374-7.164062-2.734374-9.898437 0l-22.679688 22.675782-23.992187-23.992188c-2.734375-2.734375-7.164063-2.734375-9.898438 0s-2.734375 7.167969 0 9.902344l23.992188 23.988281-23.992188 23.996094c-2.734375 2.734375-2.734375 7.164063 0 9.898437zm0 0"/></svg>