<svg height="404pt" viewBox="-45 0 404 404.776" width="404pt" xmlns="http://www.w3.org/2000/svg"><path d="m41.9375 346.300781c-7.847656-.164062-15.011719 4.4375-18.128906 11.640625-3.117188 7.203125-1.566406 15.578125 3.925781 21.183594s13.832031 7.332031 21.097656 4.367188c7.265625-2.964844 12.015625-10.03125 12.015625-17.882813.097656-10.546875-8.363281-19.183594-18.910156-19.308594zm0 24.621094c-2.1875.167969-4.253906-1.015625-5.207031-2.988281-.957031-1.972656-.605469-4.332032.882812-5.9375 1.488281-1.609375 3.808594-2.144532 5.851563-1.34375 2.039062.796875 3.382812 2.765625 3.382812 4.957031.101563 2.820313-2.09375 5.195313-4.910156 5.3125zm0 0"/><path d="m298.566406 26.164062h-10.339844v-10.339843c-.011718-8.734375-7.089843-15.8125002-15.824218-15.824219h-134.101563c-8.734375.0117188-15.8125 7.089844-15.824219 15.824219v68.683593l-84.121093 66.589844c-.230469.179688-.445313.375-.652344.585938-7.140625 7.234375-11.132813 17-11.109375 27.164062v146.011719h-9.207031c-9.382813.007813-16.988281 7.613281-17 17v45.917969c.011719 9.382812 7.617187 16.988281 17 17h150.753906c9.382813-.011719 16.988281-7.617188 17-17v-45.917969c-.011719-9.386719-7.617187-16.992187-17-17h-3.652344v-9.679687c18.390625-3.40625 31.742188-19.433594 31.765625-38.136719v-20.601563h102.3125c8.734375-.007812 15.8125-7.089844 15.820313-15.824218v-198.628907c-.007813-8.734375-7.085938-15.816406-15.820313-15.824219zm-160.261718-12.164062h134.101562c1.003906 0 1.820312.816406 1.820312 1.824219v198.628906c0 1.007813-.816406 1.824219-1.820312 1.828125h-138.535156l30.917968-30.921875c12.039063-12.039063 12.039063-31.558594 0-43.597656l-5.617187-5.613281c-2.511719-2.515626-6.511719-2.75-9.300781-.539063l-13.398438 10.609375v-130.394531c0-.484375.195313-.949219.539063-1.292969s.808593-.53125 1.292969-.53125zm32.835937 327.859375v45.917969c0 1.65625-1.34375 3-3 3h-150.753906c-1.65625 0-3-1.34375-3-3v-45.917969c0-1.660156 1.34375-3 3-3h150.753906c1.65625 0 3 1.339844 3 3zm11.117187-64.816406c-.015624 13.671875-11.097656 24.75-24.769531 24.769531-3.867187 0-7 3.132812-7 7v16.046875h-109.898437v-146.011719c-.015625-6.351562 2.425781-12.464844 6.8125-17.0625l75.070312-59.425781v54.945313l-48.882812 38.714843c-3.03125 2.402344-3.542969 6.804688-1.144532 9.835938 2.402344 3.03125 6.804688 3.539062 9.835938 1.140625l71.40625-56.542969 1.210938 1.210937c6.570312 6.570313 6.570312 17.222657 0 23.792969l-33.695313 33.699219c-1.214844 1.214844-1.941406 2.832031-2.042969 4.546875l-.421875 7.347656c-.007812.132813-.011719.265625-.011719.402344.03125 5.714844 1.332032 11.34375 3.808594 16.492187 5.308594 11.398438 4.3125 24.738282-2.632812 35.21875-.765625 1.152344-1.175782 2.5-1.175782 3.882813v15.886719c0 3.863281 3.132813 7 7 7 3.867188 0 7-3.136719 7-7v-13.859375c8.597657-14.308594 9.527344-31.953125 2.476563-47.085938-.265625-.570312-.5-1.140625-.726563-1.707031h15.042969v10.335938c.007813 8.734374 7.085938 15.8125 15.824219 15.824218h16.914062zm118.128907-36.425781c0 1.007812-.816407 1.824218-1.820313 1.824218h-133.226562c-1.007813 0-1.824219-.816406-1.824219-1.824218v-10.335938h108.886719c8.734375-.011719 15.8125-7.089844 15.824218-15.828125v-174.289063h10.339844c1.003906 0 1.820313.816407 1.820313 1.824219zm0 0"/><path d="m168.625 102.105469c0 3.867187 3.132812 7 7 7h33.722656c-3.25 6.132812-9.617187 9.96875-16.554687 9.972656h-17.167969c-2.867188 0-5.445312 1.75-6.503906 4.414063-1.0625 2.664062-.386719 5.707031 1.695312 7.675781l42.914063 40.550781c2.808593 2.644531 7.234375 2.515625 9.882812-.292969 2.652344-2.804687 2.53125-7.226562-.269531-9.886719l-30.121094-28.464843c14.535156-.210938 27.199219-9.964844 31.109375-23.96875h11.292969c3.863281 0 7-3.132813 7-7 0-3.867188-3.136719-7-7-7h-10.511719c-.785156-4.863281-2.667969-9.480469-5.5-13.511719h16.007813c3.867187 0 7-3.132812 7-7s-3.132813-7-7-7h-60c-3.867188 0-7 3.132812-7 7s3.132812 7 7 7h17.167968c8.328126.011719 15.652344 5.515625 17.984376 13.511719h-35.148438c-3.867188 0-7 3.132812-7 7zm0 0"/></svg>