<svg height="434pt" viewBox="0 -37 434 434" width="434pt" xmlns="http://www.w3.org/2000/svg"><path d="m41 265.507812h88.945312l35.945313 59.492188c.03125.046875.058594.09375.085937.136719 2.132813 3.371093 5.847657 5.410156 9.835938 5.402343 3.988281.007813 7.699219-2.03125 9.832031-5.402343.03125-.042969.058594-.089844.085938-.136719l13.574219-22.464844h35.710937l31.476563 52.101563c.027343.046875.058593.089843.085937.136719 2.039063 3.207031 5.574219 5.148437 9.371094 5.148437 3.800781 0 7.335937-1.941406 9.375-5.148437.027343-.046876.058593-.089844.085937-.136719l31.476563-52.101563h80.113281c20.425781-.019531 36.976562-16.574218 37-37v-161.914062c-.023438-20.425782-16.574219-36.976563-37-37h-43v-25.621094c-.027344-22.632812-18.367188-40.9726562-41-41h-272c-22.632812.0273438-40.9726562 18.367188-41 41v183.507812c.0234375 22.632813 18.367188 40.972657 41 41zm356-184.886718c12.695312.011718 22.984375 10.300781 23 23v161.917968c-.015625 12.695313-10.304688 22.984376-23 23h-84.0625c-2.449219 0-4.722656 1.28125-5.992188 3.378907l-31 51.300781-31-51.300781c-1.265624-2.097657-3.539062-3.378907-5.988281-3.378907h-31.199219l13.914063-23.03125h91.328125c22.632812-.027343 40.976562-18.367187 41-41v-143.886718zm-383-39.621094c.015625-14.90625 12.09375-26.984375 27-27h272c14.90625.015625 26.984375 12.09375 27 27v183.507812c-.015625 14.902344-12.09375 26.984376-27 27h-95.269531c-2.453125 0-4.722657 1.28125-5.992188 3.378907l-21.839843 36.140625c-.472657.5625-.855469 1.195312-1.132813 1.878906l-12.957031 21.441406-35.925782-59.460937c-1.265624-2.097657-3.539062-3.378907-5.992187-3.378907h-92.890625c-14.90625-.015624-26.984375-12.097656-27-27zm0 0"/><path d="m151.339844 179.929688c2.691406 2.6875 7.035156 2.738281 9.785156.109374l95.710938-91.417968c2.792968-2.671875 2.894531-7.101563.226562-9.898438-2.671875-2.792968-7.101562-2.894531-9.898438-.226562l-90.765624 86.695312-49.449219-49.453125c-2.734375-2.734375-7.164063-2.734375-9.898438 0s-2.734375 7.164063 0 9.898438zm0 0"/></svg>