<svg height="414pt" viewBox="0 -14 414 414" width="414pt" xmlns="http://www.w3.org/2000/svg"><path d="m367 0h-320c-25.945312.0273438-46.9726562 21.054688-47 47v215.890625c.0273438 25.945313 21.054688 46.96875 47 47h105.339844l42.648437 70.589844c.027344.042969.058594.089843.085938.136719 2.292969 3.597656 6.261719 5.777343 10.527343 5.777343 4.269532 0 8.238282-2.179687 10.53125-5.777343l.085938-.136719 42.648438-70.589844h108.132812c25.945312-.03125 46.972656-21.054687 47-47v-215.890625c-.027344-25.945312-21.054688-46.9726562-47-47zm33 262.890625c-.019531 18.214844-14.785156 32.976563-33 33h-112.082031c-2.449219 0-4.722657 1.28125-5.988281 3.378906l-43.324219 71.699219-43.328125-71.699219c-1.265625-2.097656-3.539063-3.378906-5.988282-3.378906h-109.289062c-18.214844-.023437-32.980469-14.785156-33-33v-215.890625c.019531-18.21875 14.78125-32.980469 33-33h320c18.21875.019531 32.980469 14.78125 33 33zm0 0"/><path d="m277.164062 106.429688-90.765624 86.691406-49.449219-49.453125c-2.734375-2.734375-7.164063-2.734375-9.898438 0s-2.734375 7.167969 0 9.902343l54.289063 54.289063c2.691406 2.691406 7.035156 2.738281 9.785156.113281l95.710938-91.417968c2.792968-2.671876 2.894531-7.101563.226562-9.898438-2.671875-2.796875-7.101562-2.898438-9.898438-.226562zm0 0"/></svg>