<svg height="414pt" viewBox="0 -25 414 413" width="414pt" xmlns="http://www.w3.org/2000/svg"><path d="m413.972656 216.710938c-.007812-.109376-.019531-.214844-.03125-.324219-.015625-.105469-.035156-.234375-.054687-.351563-.023438-.117187-.042969-.222656-.066407-.332031-.023437-.109375-.054687-.222656-.085937-.332031s-.0625-.21875-.097656-.328125c-.039063-.109375-.078125-.214844-.117188-.320313-.042969-.105468-.085937-.210937-.132812-.3125-.046875-.105468-.097657-.207031-.148438-.308594-.046875-.101562-.101562-.203124-.160156-.300781-.058594-.101562-.113281-.195312-.175781-.289062-.058594-.097657-.128906-.199219-.199219-.300781-.070313-.097657-.128906-.171876-.195313-.257813-.066406-.085937-.15625-.203125-.242187-.292969-.035156-.042968-.070313-.089844-.109375-.132812l-57.121094-62.238282c-5.535156-6.015624-13.328125-9.441406-21.5-9.449218h-93.917968v-29.9375c-.019532-16.105469-13.070313-29.160156-29.175782-29.175782h-6.226562v-32.402343c0-2.585938-1.425782-4.960938-3.707032-6.175781l-78.492187-41.824219c-2.085937-1.113281-4.585937-1.097657-6.65625.039062l-76.320313 41.824219c-2.242187 1.230469-3.636718 3.582031-3.636718 6.140625v32.398437h-6.226563c-16.105469.019532-29.1562498 13.070313-29.175781 29.175782v185.15625c.0195312 16.105468 13.070312 29.160156 29.175781 29.175781h21.253907c3.457031 22.332031 22.679687 38.804687 45.273437 38.804687 22.597656 0 41.816406-16.472656 45.273437-38.804687h142.300782c3.453125 22.332031 22.675781 38.808594 45.273437 38.808594 22.597657 0 41.820313-16.476563 45.273438-38.808594h11c16.105469-.015625 29.15625-13.070313 29.175781-29.175781v-78.800782c0-.054687-.007812-.113281-.007812-.171874-.003907-.125-.011719-.25-.019532-.375zm-80.433594-61.871094c4.25.007812 8.304688 1.789062 11.179688 4.914062l46.355469 50.507813h-151.457031v-55.421875zm-284.140624-101.367188 69.367187-38.015625 71.445313 38.070313v49.34375c-.011719 41.082031-24.660157 78.148437-62.539063 94.042968l-.050781.019532-9.160156 3.957031-7.800782-3.398437c-37.171875-16.253907-61.214844-52.960938-61.261718-93.53125zm-35.398438 242.585938v-185.15625c.007812-8.378906 6.796875-15.167969 15.175781-15.175782h6.222657v8.234376c.046874 46.136718 27.382812 87.878906 69.660156 106.363281l10.589844 4.617187c1.777343.773438 3.792968.777344 5.574218.011719l11.921875-5.152344c43.058594-18.085937 71.066407-60.230469 71.070313-106.929687v-7.148438h6.226562c8.378906.007813 15.167969 6.796875 15.175782 15.175782v200.335937h-84.640626c-3.453124-22.332031-22.675781-38.808594-45.273437-38.808594s-41.820313 16.476563-45.273437 38.808594h-21.253907c-8.378906-.007813-15.167969-6.796875-15.175781-15.175781zm81.699219 53.984375c-17.566407 0-31.808594-14.242188-31.808594-31.808594s14.242187-31.808594 31.808594-31.808594c17.566406 0 31.808593 14.242188 31.808593 31.808594-.019531 17.558594-14.25 31.789063-31.808593 31.808594zm232.847656 0c-17.566406 0-31.808594-14.242188-31.808594-31.808594s14.242188-31.808594 31.808594-31.808594 31.808594 14.242188 31.808594 31.808594c-.019531 17.558594-14.246094 31.785156-31.804688 31.808594zm71.453125-53.984375c-.007812 8.378906-6.796875 15.167968-15.175781 15.175781h-11c-3.453125-22.332031-22.675781-38.808594-45.273438-38.808594-22.597656 0-41.820312 16.476563-45.273437 38.808594h-43.660156v-86.972656h160.382812zm0 0"/><path d="m102.273438 132.679688c2.46875 2.890624 6.792968 3.28125 9.742187.882812l48.074219-39.109375c2.980468-2.445313 3.421875-6.839844.988281-9.832031-2.429687-2.988282-6.824219-3.449219-9.824219-1.027344l-42.769531 34.796875-16.203125-18.972656c-2.507812-2.941407-6.925781-3.289063-9.867188-.777344-2.941406 2.511719-3.289062 6.929687-.777343 9.867187zm0 0"/></svg>