<svg height="433pt" viewBox="0 -1 433.99451 433" width="433pt" xmlns="http://www.w3.org/2000/svg"><path d="m408.167969 127.121094c-3.566407 1.492187-5.25 5.589844-3.757813 9.15625 10.339844 24.730468 15.640625 51.277344 15.589844 78.082031 0 111.761719-90.925781 202.691406-202.6875 202.691406-41.726562.125-82.457031-12.75-116.53125-36.835937l28.335938-38.457032c1.664062-2.257812 1.816406-5.289062.394531-7.703124-1.421875-2.417969-4.152344-3.75-6.933594-3.390626l-67.765625 8.800782c-1.894531.246094-3.605469 1.25-4.738281 2.789062-1.132813 1.535156-1.589844 3.46875-1.261719 5.347656l11.671875 67.332032c.476563 2.765625 2.558594 4.976562 5.289063 5.621094 2.730468.644531 5.582031-.402344 7.246093-2.664063l19.453125-26.398437c78.933594 55.570312 185.105469 52.242187 260.402344-8.164063 75.300781-60.40625 101.574219-163.328125 64.445312-252.4375-1.484374-3.570313-5.585937-5.257813-9.152343-3.769531zm-336.6875 269.257812-7.625-43.976562 44.257812-5.746094-22.671875 30.773438c-.019531.023437-.042968.046874-.058594.070312-.03125.039062-.054687.082031-.085937.125zm0 0"/><path d="m14 217.140625c0-111.761719 90.925781-202.691406 202.6875-202.691406 41.726562-.125 82.457031 12.75 116.53125 36.835937l-28.335938 38.457032c-1.660156 2.257812-1.816406 5.289062-.394531 7.707031 1.425781 2.414062 4.152344 3.75 6.933594 3.386719l67.765625-8.800782c1.894531-.242187 3.605469-1.25 4.738281-2.785156 1.132813-1.539062 1.589844-3.46875 1.261719-5.351562l-11.675781-67.332032c-.476563-2.765625-2.558594-4.976562-5.289063-5.621094-2.730468-.640624-5.582031.40625-7.242187 2.664063l-19.457031 26.40625c-78.933594-55.574219-185.109376-52.246094-260.40625 8.164063-75.300782 60.40625-101.574219 163.332031-64.441407 252.4375 1.515625 3.53125 5.589844 5.179687 9.132813 3.699218 3.542968-1.480468 5.230468-5.539062 3.785156-9.097656-10.34375-24.730469-15.644531-51.273438-15.59375-78.078125zm348.519531-182.019531 7.625 43.972656-44.257812 5.746094 22.671875-30.773438c.019531-.023437.042968-.042968.058594-.070312.03125-.039063.054687-.082032.085937-.121094zm0 0"/><path d="m215.71875 100.382812h-116.878906c-13.160156.011719-23.824219 10.679688-23.839844 23.839844v153.585938c.011719 13.160156 10.679688 23.824218 23.839844 23.839844h14.730468c3.347657 17.117187 18.347657 29.46875 35.789063 29.46875s32.441406-12.351563 35.789063-29.46875h63.699218c3.347656 17.117187 18.347656 29.46875 35.789063 29.46875 17.441406 0 32.441406-12.351563 35.789062-29.46875h14.734375c13.160156-.015626 23.828125-10.679688 23.839844-23.839844v-65.03125c0-.058594-.007812-.117188-.007812-.171875 0-.128907-.011719-.253907-.019532-.378907-.007812-.109374-.019531-.21875-.035156-.324218-.011719-.105469-.03125-.234375-.050781-.351563-.019531-.117187-.042969-.222656-.066407-.332031-.023437-.109375-.054687-.222656-.085937-.332031s-.0625-.21875-.101563-.328125c-.035156-.105469-.074218-.210938-.117187-.320313-.039063-.105469-.082031-.210937-.128906-.3125-.046875-.105469-.097657-.207031-.148438-.308593-.050781-.101563-.101562-.203126-.160156-.300782-.0625-.101562-.117187-.195312-.175781-.289062-.0625-.097656-.132813-.199219-.199219-.300782-.070313-.097656-.128906-.171874-.195313-.257812-.066406-.085938-.160156-.199219-.242187-.292969-.039063-.042969-.074219-.089843-.113281-.132812l-43.371094-47.261719c-4.519531-4.914062-10.890625-7.710938-17.566406-7.71875h-56.65625v-28.839844c-.015625-13.160156-10.679688-23.824218-23.839844-23.839844zm-126.71875 177.425782v-153.585938c.007812-5.433594 4.410156-9.835937 9.839844-9.839844h116.878906c5.433594.003907 9.835938 4.40625 9.839844 9.839844v163.425782h-40.410156c-3.347657-17.117188-18.347657-29.46875-35.789063-29.46875s-32.441406 12.351562-35.789063 29.46875h-14.730468c-5.433594-.003907-9.835938-4.410157-9.839844-9.839844zm60.359375 39.308594c-12.410156 0-22.46875-10.0625-22.46875-22.472657 0-12.410156 10.058594-22.46875 22.46875-22.46875s22.46875 10.058594 22.46875 22.46875c-.015625 12.40625-10.066406 22.453125-22.46875 22.472657zm135.28125 0c-12.410156 0-22.46875-10.0625-22.46875-22.472657 0-12.410156 10.058594-22.46875 22.46875-22.46875s22.472656 10.0625 22.46875 22.472657c-.015625 12.402343-10.066406 22.449218-22.46875 22.46875zm60.359375-39.308594c-.007812 5.429687-4.40625 9.832031-9.839844 9.835937h-14.730468c-3.347657-17.117187-18.347657-29.46875-35.789063-29.46875s-32.441406 12.351563-35.789063 29.46875h-9.292968v-67.867187h105.441406zm-48.785156-110.746094c2.757812 0 5.386718 1.15625 7.25 3.183594l32.609375 35.53125h-96.515625v-38.714844zm0 0"/></svg>