<svg height="413pt" viewBox="0 -60 413.998 413" width="413pt" xmlns="http://www.w3.org/2000/svg"><path d="m413.988281 41.679688c-.230469-22.792969-18.757812-41.15625-41.550781-41.179688h-330.878906c-22.792969.023438-41.320313 18.386719-41.5507815 41.179688v.0625c0 .101562-.0078125.210937-.0078125.316406v209.882812c.0273438 22.941406 18.617188 41.53125 41.558594 41.558594h330.878906c22.941406-.027344 41.53125-18.617188 41.558594-41.558594v-209.882812c0-.105469-.003906-.210938-.007813-.316406 0-.019532 0-.042969 0-.0625zm-372.429687-27.179688h330.878906c13.761719.015625 25.40625 10.167969 27.300781 23.800781l-192.742187 117.773438-192.734375-117.78125c1.898437-13.625 13.539062-23.773438 27.296875-23.792969zm330.878906 265h-330.878906c-15.214844-.019531-27.542969-12.347656-27.5625-27.558594v-197.402344l189.351562 115.714844c2.242188 1.367188 5.058594 1.367188 7.300782 0l189.347656-115.714844v197.398438c-.015625 15.214844-12.34375 27.542969-27.558594 27.5625zm0 0"/></svg>