<svg height="454pt" viewBox="0 -51 454 454" width="454pt" xmlns="http://www.w3.org/2000/svg"><path d="m407 0h-360c-25.945312.0273438-46.9726562 21.054688-47 47v257c.0273438 25.945312 21.054688 46.972656 47 47h360c25.945312-.027344 46.972656-21.054688 47-47v-257c-.027344-25.945312-21.054688-46.9726562-47-47zm-268.859375 297.65625c-.257813-.152344-.511719-.3125-.761719-.472656-.550781-.554688-1.1875-1.011719-1.886718-1.355469-4.140626-3.308594-6.960938-7.988281-7.957032-13.191406l-6.128906-32.128907 32.128906 6.125c8.695313 1.664063 15.574219 8.324219 17.515625 16.957032 1.941407 8.636718-1.421875 17.601562-8.566406 22.824218-7.148437 5.222657-16.710937 5.710938-24.347656 1.242188zm-124.140625-78.65625h32.488281c5.304688 6.027344 12.464844 10.113281 20.355469 11.617188l32.148438 6.132812-32.148438 6.132812c-5.148438.980469-10.015625 3.066407-14.273438 6.117188h-38.570312zm153.785156-11.546875c-.238281.277344-.453125.574219-.644531.890625-3.3125 4.4375-8.164063 7.476562-13.601563 8.523438l-32.128906 6.125 6.128906-32.128907c1.679688-8.871093 8.5625-15.84375 17.410157-17.644531 8.847656-1.796875 17.90625 1.933594 22.917969 9.445312 5.011718 7.511719 4.980468 17.308594-.078126 24.789063zm-54-19.210937-2.285156 11.964843-2.28125-11.964843c-1.691406-8.847657-6.617188-16.75-13.820312-22.164063v-152.078125h30v153.886719c-6.023438 5.304687-10.113282 12.46875-11.617188 20.355469zm-28.921875-12.398438c5.535157 3.242188 9.398438 8.71875 10.601563 15.019531l6.128906 32.128907-32.128906-6.128907c-5.226563-1-9.921875-3.847656-13.222656-8.019531-.328126-.644531-.75-1.238281-1.257813-1.757812-5.59375-8.636719-4.523437-19.988282 2.589844-27.425782s18.402343-9.019531 27.285156-3.816406zm-15.398437 80.789062 32.128906-6.128906-6.128906 32.128906c-2.097656 11-12.054688 18.726563-23.230469 18.023438-11.179687-.703125-20.089844-9.613281-20.792969-20.792969-.703125-11.179687 7.019532-21.132812 18.023438-23.230469zm39.753906 28.621094 2.28125-11.964844 2.28125 11.964844c1.507812 7.890625 5.59375 15.054688 11.617188 20.367188v31.378906h-30v-29.589844c7.203124-5.40625 12.132812-13.304687 13.820312-22.152344zm61.210938-36.253906c-4.257813-3.050781-9.125-5.136719-14.273438-6.117188l-32.148438-6.132812 32.148438-6.132812c7.890625-1.503907 15.050781-5.589844 20.355469-11.617188h263.488281v30zm269.570312-202v158h-255.808594c3.640625-12.65625.117188-26.289062-9.191406-35.597656-9.3125-9.3125-22.945312-12.832032-35.601562-9.195313v-146.207031h267.601562c18.214844.019531 32.980469 14.785156 33 33zm-393-33h34.398438v145.65625c-12.457032-2.746094-25.445313 1.265625-34.179688 10.566406-8.738281 9.300782-11.933594 22.511719-8.410156 34.777344h-24.808594v-158c.019531-18.214844 14.785156-32.980469 33-33zm-33 290v-41h26.878906c-5.902344 12.488281-4.191406 27.246094 4.417969 38.050781 8.609375 10.804688 22.613281 15.769531 36.101563 12.804688v23.144531h-34.398438c-18.214844-.019531-32.980469-14.785156-33-33zm393 33h-267.601562v-23.710938c13.675781 3.925782 28.378906-.519531 37.589843-11.359374 9.210938-10.839844 11.21875-26.070313 5.132813-38.929688h257.878906v41c-.019531 18.214844-14.785156 32.980469-33 33zm0 0"/></svg>