<svg height="478pt" viewBox="0 -2 478.00086 478" width="478pt" xmlns="http://www.w3.org/2000/svg"><path d="m381.828125 201.453125c3.253906-8.59375 4.628906-17.785156 4.027344-26.957031-1.148438-16.734375-8.394531-32.464844-20.363281-44.214844-26.125-25.488281-67.808594-25.488281-93.929688 0-.199219.199219-.398438.414062-.601562.617188-14.824219-5.410157-30.492188-8.167969-46.273438-8.144532-73.164062 0-132.6875 58.390625-132.6875 130.171875 0 71.777344 59.523438 130.164063 132.6875 130.164063.894531 0 1.785156-.015625 2.675781-.03125.167969.011718.335938.035156.5.035156.3125-.003906.625-.027344.933594-.070312 71.265625-2.140626 128.574219-59.675782 128.574219-130.101563 0-3.3125-.15625-11.410156-.519532-17.515625l9.648438-10.070312c6.691406-6.828126 11.910156-14.957032 15.328125-23.882813zm-63.296875-76.289063c13.886719-.066406 27.242188 5.359376 37.144531 15.101563 9.53125 9.347656 15.300781 21.867187 16.21875 35.183594.460938 7.1875-.625 14.386719-3.183593 21.117187-2.757813 7.136719-6.949219 13.628906-12.316407 19.082032l-37.863281 39.523437-37.871094-39.527344c-5.367187-5.449219-9.558594-11.941406-12.316406-19.078125-2.558594-6.730468-3.640625-13.929687-3.179688-21.117187.914063-13.316407 6.6875-25.835938 16.214844-35.1875 9.90625-9.738281 23.257813-15.164063 37.148438-15.097657zm-212.308594 134.761719h39.878906c.496094 16.226563 3.3125 32.300781 8.371094 47.726563-8.195312 4.957031-15.816406 10.800781-22.726562 17.429687-15.117188-18.511719-24.046875-41.300781-25.523438-65.15625zm25.519532-79.160156c6.910156 6.628906 14.53125 12.476563 22.726562 17.429687-5.054688 15.429688-7.875 31.5-8.367188 47.730469h-39.878906c1.476563-23.859375 10.402344-46.648437 25.519532-65.164062zm157.472656 64.054687c.015625.367188.03125.734376.046875 1.105469h-57.574219v-28.5c9.839844-.488281 19.601562-2.054687 29.101562-4.667969 2.796876 4.527344 6.070313 8.742188 9.761719 12.578126zm-117.273438 69.277344c14.34375-6.835937 29.882813-10.800781 45.746094-11.671875v63.800781c-20.265625-11.441406-35.886719-29.507812-45.746094-52.128906zm45.746094-25.699218c-17.539062.871093-34.746094 5.128906-50.667969 12.546874-4.117187-13.308593-6.441406-27.105468-6.910156-41.027343h57.578125zm-57.578125-42.472657c.46875-13.921875 2.792969-27.71875 6.910156-41.027343 15.921875 7.417968 33.128907 11.679687 50.667969 12.546874v28.480469zm57.578125-106.308593v63.804687c-15.863281-.871094-31.402344-4.839844-45.746094-11.675781 9.859375-22.621094 25.480469-40.691406 45.746094-52.136719zm36.992188 60.261718c-7.53125 1.914063-15.230469 3.09375-22.992188 3.527344v-63.800781c8.457031 4.773437 16.1875 10.738281 22.949219 17.710937-1.878907 5.554688-3.035157 11.332032-3.441407 17.1875-.558593 8.605469.628907 17.234375 3.484376 25.371094zm-95.054688-14.960937c-6.617188-4.191407-12.789062-9.046875-18.425781-14.484375 13.992187-13.558594 31.089843-23.480469 49.800781-28.910156-13.441406 12.050781-24.144531 26.847656-31.375 43.390624zm0 136.011719c7.234375 16.539062 17.933594 31.332031 31.375 43.382812-18.710938-5.425781-35.808594-15.351562-49.800781-28.90625 5.636719-5.4375 11.8125-10.289062 18.425781-14.480469zm72.0625 45.300781v-63.804688c15.851562.902344 31.371094 4.933594 45.65625 11.871094-9.859375 22.527344-25.449219 40.519531-45.65625 51.929687zm57.9375-45.027344c6.542969 4.214844 12.648438 9.078125 18.226562 14.511719-13.933593 13.398437-30.910156 23.210937-49.476562 28.597656 13.367188-11.980469 24.023438-26.679688 31.25-43.109375zm-57.9375-32.796875v-28.480469h57.578125c-.472656 13.988281-2.820313 27.851563-6.976563 41.21875-15.871093-7.519531-33.0625-11.847656-50.601562-12.742187zm29.199219-144.574219c-.839844-.792969-1.691407-1.574219-2.554688-2.339843 1.121094.324218 2.238281.664062 3.351563 1.023437-.273438.429687-.53125.875-.796875 1.308594zm82.484375 109.09375c-.003906 26.453125-9.203125 52.078125-26.023438 72.5-6.847656-6.640625-14.40625-12.507812-22.535156-17.5 5.160156-15.644531 8.015625-31.953125 8.480469-48.414062l10.179687 10.625c1.320313 1.375 3.144532 2.15625 5.054688 2.15625 1.90625 0 3.734375-.78125 5.054687-2.15625l19.757813-20.625c.023437 1.320312.03125 2.496093.03125 3.414062zm0 0"/><path d="m318.527344 207.117188c13.300781.0625 25.332031-7.898438 30.46875-20.171876 5.136718-12.269531 2.363281-26.425781-7.019532-35.855468-9.382812-9.429688-23.527343-12.273438-35.824218-7.195313-12.296875 5.074219-20.316406 17.066407-20.316406 30.367188-.023438 18.09375 14.597656 32.789062 32.691406 32.855469zm0-51.707032c7.640625-.066406 14.5625 4.484375 17.53125 11.523438 2.972656 7.039062 1.398437 15.175781-3.980469 20.601562-5.378906 5.425782-13.5 7.070313-20.566406 4.160156-7.066407-2.90625-11.675781-9.792968-11.675781-17.433593-.03125-10.359375 8.328124-18.792969 18.691406-18.851563zm0 0"/><path d="m450.476562 139.890625c-3.566406 1.492187-5.25 5.589844-3.757812 9.15625 38.566406 92.464844 11.261719 199.289063-66.945312 261.902344-78.203126 62.613281-188.414063 65.890625-270.199219 8.035156l31.746093-43.089844c1.660157-2.257812 1.816407-5.289062.394532-7.703125-1.425782-2.417968-4.152344-3.75-6.933594-3.386718l-74.867188 9.71875c-1.894531.246093-3.605468 1.253906-4.734374 2.789062-1.132813 1.535156-1.589844 3.46875-1.265626 5.347656l12.894532 74.386719c.480468 2.765625 2.5625 4.976563 5.289062 5.621094 2.730469.644531 5.582032-.402344 7.246094-2.664063l21.921875-29.75c72.800781 51.640625 168.335937 58.339844 247.632813 17.367188 79.296874-40.976563 129.101562-122.773438 129.101562-212.03125.058594-31.566406-6.183594-62.824219-18.367188-91.945313-1.492187-3.566406-5.589843-5.246093-9.15625-3.753906zm-372.671874 298.605469-8.84375-51.027344 51.355468-6.671875-26.066406 35.382813c-.023438.027343-.050781.054687-.070312.085937-.039063.046875-.066407.097656-.101563.144531zm0 0"/><path d="m14 238.660156c.007812-83.972656 46.839844-160.933594 121.421875-199.523437 74.578125-38.589844 164.453125-32.367188 233.003906 16.128906l-31.746093 43.089844c-1.660157 2.257812-1.816407 5.289062-.394532 7.703125 1.425782 2.414062 4.152344 3.75 6.933594 3.386718l74.867188-9.71875c1.894531-.246093 3.605468-1.253906 4.738281-2.789062 1.132812-1.535156 1.589843-3.46875 1.261719-5.351562l-12.898438-74.386719c-.476562-2.761719-2.558594-4.972657-5.289062-5.617188-2.730469-.644531-5.582032.402344-7.246094 2.660157l-21.917969 29.753906c-72.804687-51.640625-168.335937-58.335938-247.632813-17.363282-79.296874 40.976563-129.101562 122.769532-129.101562 212.027344-.0585938 31.566406 6.183594 62.824219 18.367188 91.945313 1.511718 3.527343 5.589843 5.179687 9.132812 3.695312 3.542969-1.480469 5.230469-5.539062 3.78125-9.097656-11.464844-27.410156-17.339844-56.832031-17.28125-86.542969zm386.195312-202.90625 8.84375 51.027344-51.355468 6.667969 26.070312-35.378907c.023438-.03125.046875-.054687.070313-.085937.035156-.046875.0625-.097656.097656-.144531zm0 0"/></svg>