<svg height="414pt" viewBox="0 -14 414.13401 414" width="414pt" xmlns="http://www.w3.org/2000/svg"><path d="m400.214844 13.8125c-8.792969-8.828125-20.753906-13.7773438-33.214844-13.7460938h-.03125l-320 .1992188c-25.945312.046875-46.9570312 21.085937-46.96875 47.03125l.132812 215.890625c.019532 25.945312 21.054688 46.96875 47 46.96875h.03125l105.339844-.066406 42.691406 70.5625c.03125.046875.058594.09375.085938.140625 2.285156 3.601562 6.257812 5.78125 10.527344 5.773437h.007812c4.269532.007813 8.242188-2.179687 10.523438-5.789062.027344-.042969.058594-.089844.085937-.136719l42.605469-70.617187 108.132812-.066407c25.957032-.015625 46.988282-21.070312 46.96875-47.027343l-.132812-215.890626c.027344-12.472656-4.9375-24.4375-13.785156-33.226562zm-33.058594 282.144531-112.082031.066407c-2.453125.003906-4.722657 1.285156-5.988281 3.382812l-43.28125 71.734375-43.367188-71.679687c-1.269531-2.09375-3.539062-3.375-5.992188-3.375l-109.285156.066406h-.019531c-18.21875 0-32.988281-14.761719-33-32.976563l-.136719-215.890625c.011719-18.21875 14.761719-32.988281 32.980469-33.019531l320-.203125h.019531c18.210938.023438 32.96875 14.773438 33 32.980469l.136719 215.890625c-.011719 18.21875-14.765625 32.992187-32.984375 33.023437zm0 0"/><path d="m334.566406 196.3125h-255c-3.867187 0-7 3.132812-7 7s3.132813 7 7 7h255c3.867188 0 7-3.132812 7-7s-3.132812-7-7-7zm0 0"/><path d="m334.566406 146.3125h-255c-3.867187 0-7 3.132812-7 7s3.132813 7 7 7h255c3.867188 0 7-3.132812 7-7s-3.132812-7-7-7zm0 0"/><path d="m334.566406 96.3125h-255c-3.867187 0-7 3.132812-7 7s3.132813 7 7 7h255c3.867188 0 7-3.132812 7-7s-3.132812-7-7-7zm0 0"/></svg>