<svg height="472pt" viewBox="-19 0 472 472.64704" width="472pt" xmlns="http://www.w3.org/2000/svg"><path d="m289.6875 371.222656h-40.015625c-3.867187 0-7 3.132813-7 7 0 3.867188 3.132813 7 7 7h40.015625c3.863281 0 7-3.132812 7-7 0-3.867187-3.136719-7-7-7zm0 0"/><path d="m434.289062 95.078125c-.03125-.3125-.085937-.625-.160156-.929687-.015625-.058594-.03125-.117188-.046875-.179688-.078125-.300781-.179687-.601562-.296875-.890625-.125-.292969-.269531-.574219-.429687-.847656-.035157-.058594-.070313-.113281-.101563-.167969-.164062-.269531-.347656-.523438-.546875-.769531-.015625-.019531-.035156-.035157-.050781-.054688-.195312-.230469-.410156-.445312-.632812-.648437-.027344-.027344-.050782-.058594-.082032-.082032l-47.710937-41.921874v-8.769532c-.027344-21.980468-17.839844-39.7929685-39.820313-39.816406h-149.464844c-21.980468.0234375-39.789062 17.835938-39.816406 39.816406v8.515625l-49.664062 42.089844c-1.554688 1.324219-2.453125 3.261719-2.457032 5.300781-.007812.113282-.015624.226563-.015624.339844v32.148438c0 1.085937.25 2.15625.738281 3.128906.011719.027344.03125.066406.046875.09375 9.664062 18.632812 31.414062 27.507812 51.351562 20.953125v73.535156h-82.1875l-4.199218-43.132813c-.015626-.136718-.03125-.277343-.054688-.414062-2.394531-15.515625-15.773438-26.945312-31.472656-26.882812h-29.890625c-3.867188 0-7 3.136718-7 7 0 3.867187 3.132812 7 7 7h29.886719c8.726562-.035157 16.191406 6.273437 17.613281 14.882812l23.640625 242.566406c.015625.140625.03125.28125.054687.417969 2.394531 15.515625 15.777344 26.945313 31.472657 26.882813h2.402343c2.675781 10.8125 12.378907 18.40625 23.515625 18.40625 11.136719 0 20.839844-7.59375 23.515625-18.40625h37.511719c2.886719 11.660156 13.882812 19.441406 25.839844 18.292968 11.957031-1.152344 21.265625-10.890625 21.875-22.886718.609375-11.996094-7.664063-22.628907-19.445313-24.984376-11.777343-2.359374-23.503906 4.269532-27.558593 15.578126h-38.929688c-3.453125-9.628907-12.578125-16.050782-22.804688-16.050782-10.230468 0-19.355468 6.421875-22.804687 16.050782h-3.117187c-8.726563.035156-16.191407-6.269532-17.613282-14.882813l-7.625-78.238281h70.375v35.871094c.027344 21.980468 17.835938 39.792968 39.816406 39.816406h149.464844c21.980469-.023438 39.792969-17.835938 39.820313-39.816406v-229.976563c19.460937 5.339844 40.007812-3.648437 49.296875-21.566406.523437-1 .796875-2.109375.796875-3.238281v-32.449219c0-.199219-.015625-.402344-.03125-.601563-.003907-.027344 0-.054687-.003907-.082031zm-213.832031 343.113281c5.648438 0 10.230469 4.578125 10.230469 10.226563 0 5.648437-4.578125 10.226562-10.226562 10.230469-5.648438 0-10.226563-4.578126-10.230469-10.226563.003906-5.648437 4.582031-10.226563 10.226562-10.230469zm-84.542969 0c5.648438 0 10.226563 4.578125 10.226563 10.226563 0 5.648437-4.578125 10.226562-10.222656 10.230469-5.648438 0-10.230469-4.578126-10.234375-10.226563.003906-5.648437 4.582031-10.226563 10.230468-10.230469zm59.03125-424.191406h149.464844c14.253906.015625 25.800782 11.566406 25.820313 25.816406v4.757813h-201.101563v-4.757813c.015625-14.25 11.566406-25.800781 25.816406-25.816406zm-30.246093 44.574219h209.6875l34.363281 30.1875h-279.671875zm131.816406 181.347656-7.296875 23.765625h-212.59375l-2.320312-23.765625zm-16.511719 53.765625h-200.457031l-1.558594-16h206.929688zm-199.09375 14h194.792969l-4.15625 13.523438c-2.480469 7.003906-9.039063 11.738281-16.46875 11.890624h-2.726563v.015626h-168.964843zm263.5 101.117188h-149.464844c-14.25-.015626-25.800781-11.566407-25.816406-25.816407v-35.867187h85.578125c.121094 0 .246094-.011719.367188-.011719h115.15625v35.882813c-.019531 14.25-11.570313 25.796874-25.820313 25.8125zm25.816406-75.699219h-89.148437c1.5625-2.300781 2.820313-4.792969 3.738281-7.417969.027344-.078125.050782-.15625.074219-.238281l27.789063-90.46875c.652343-2.125.257812-4.429688-1.058594-6.214844-1.320313-1.785156-3.410156-2.839844-5.628906-2.839844h-136.863282v-81.328125c1.539063-1.285156 2.988282-2.675781 4.332032-4.164062 8.089843 8.992187 19.625 14.117187 31.722656 14.089844 12.097656.027343 23.632812-5.097657 31.726562-14.089844 8.089844 8.996094 19.632813 14.125 31.734375 14.097656 12.101563.027344 23.640625-5.097656 31.734375-14.09375 8.109375 8.976562 19.636719 14.097656 31.734375 14.097656 12.09375 0 23.625-5.121094 31.730469-14.097656 1.925781 2.140625 4.066406 4.078125 6.382812 5.789062zm25.359376-192.5625c-10.785157.101562-20.6875-5.9375-25.53125-15.570313-1.210938-2.308594-3.605469-3.757812-6.210938-3.753906h-.011719c-2.613281.007812-5.007812 1.46875-6.207031 3.789062-4.9375 9.539063-14.78125 15.527344-25.519531 15.527344-10.742188-.003906-20.582031-6-25.511719-15.542968-1.207031-2.320313-3.605469-3.777344-6.222656-3.773438-2.617188 0-5.015625 1.460938-6.214844 3.789062-4.933594 9.535157-14.773438 15.523438-25.511719 15.523438-10.734375 0-20.574219-5.988281-25.507812-15.523438-.070313-.132812-.144531-.269531-.222657-.398437-1.304687-2.175781-3.6875-3.472656-6.222656-3.394531-2.535156.082031-4.832031 1.527344-5.996094 3.78125-4.933593 9.539062-14.773437 15.527344-25.511718 15.527344-10.738282 0-20.578125-5.988282-25.511719-15.527344-1.203125-2.324219-3.601563-3.78125-6.21875-3.777344-2.617187 0-5.015625 1.460938-6.21875 3.789062-4.800781 9.277344-14.261719 15.214844-24.703125 15.511719s-20.222656-5.101562-25.539062-14.09375v-23.664062h303.332031v23.660156c-5.089844 8.828125-14.546875 14.226563-24.738281 14.117187zm0 0"/></svg>