<svg height="423pt" viewBox="-49 0 423 423" width="423pt" xmlns="http://www.w3.org/2000/svg"><path d="m182.765625 372.242188h-39.136719c-3.867187 0-7 3.132812-7 7 0 3.867187 3.132813 7 7 7h39.136719c3.867187 0 7-3.132813 7-7 0-3.867188-3.132813-7-7-7zm0 0"/><path d="m323.597656 165.316406c.015625-.027344.039063-.078125.054688-.105468.488281-.972657.738281-2.042969.738281-3.132813v-50c0-.039063-.003906-.082031-.003906-.125 0-.074219-.007813-.148437-.011719-.226563-.011719-.242187-.039062-.488281-.074219-.730468-.011719-.0625-.019531-.125-.03125-.1875-.054687-.300782-.128906-.59375-.21875-.886719-.011719-.027344-.023437-.054687-.03125-.082031-.089843-.265625-.195312-.523438-.316406-.777344-.027344-.050781-.050781-.105469-.078125-.160156-.136719-.269532-.292969-.535156-.464844-.785156-.023437-.03125-.046875-.0625-.070312-.089844-.160156-.226563-.335938-.445313-.523438-.648438-.027344-.03125-.046875-.0625-.074218-.09375l-47.097657-50.117187v-18.066407c-.027343-21.585937-17.515625-39.0781245-39.101562-39.101562h-146.195313c-21.582031.0234375-39.074218 17.515625-39.101562 39.101562v17.78125l-49.011719 50.316407c-1.269531 1.308593-1.9765625 3.0625-1.96875 4.890625 0 .097656-.015625.191406-.015625.292968v49.699219c0 1.125.269531 2.230469.785156 3.226563 9.449219 18.222656 30.683594 26.945312 50.210938 20.628906v197.960938c.027344 21.585937 17.519531 39.078124 39.101562 39.101562h146.199219c21.585937-.023438 39.078125-17.515625 39.101563-39.101562v-197.355469c19.058593 5.121093 39.109374-3.707031 48.199218-21.226563zm-233.5-151.316406h146.199219c13.855469.015625 25.085937 11.242188 25.101563 25.101562v13.628907h-196.402344v-13.628907c.015625-13.859374 11.246094-25.085937 25.101562-25.101562zm-29.144531 52.730469h204.21875l36.039063 38.347656h-277.617188zm175.34375 342.269531h-146.199219c-13.855468-.015625-25.085937-11.242188-25.101562-25.101562v-34.945313h196.402344v34.945313c-.015626 13.859374-11.246094 25.085937-25.101563 25.101562zm25.101563-74.046875h-196.402344v-156.78125c1.449218-1.210937 2.8125-2.515625 4.082031-3.910156 7.953125 8.730469 19.21875 13.707031 31.03125 13.707031s23.078125-4.976562 31.035156-13.707031c7.957031 8.734375 19.222657 13.714843 31.039063 13.714843s23.085937-4.980468 31.039062-13.714843c7.941406 8.757812 19.21875 13.738281 31.042969 13.714843 11.820313.023438 23.097656-4.957031 31.039063-13.714843 1.84375 2.03125 3.882812 3.871093 6.089843 5.5zm24.957031-160.96875c-10.476563.105469-20.097657-5.75-24.816407-15.097656-.023437-.046875-.058593-.113281-.085937-.15625-1.242187-2.277344-3.644531-3.679688-6.238281-3.644531-2.59375.035156-4.953125 1.5-6.136719 3.808593-4.804687 9.269531-14.378906 15.089844-24.820313 15.085938-10.441406-.003907-20.007812-5.832031-24.804687-15.105469-.019531-.03125-.042969-.078125-.0625-.113281-1.222656-2.265625-3.589844-3.679688-6.164063-3.675781h-.058593c-2.597657.019531-4.96875 1.480468-6.160157 3.785156-4.800781 9.28125-14.371093 15.105468-24.816406 15.105468-10.445312 0-20.019531-5.824218-24.820312-15.105468-.066406-.128906-.144532-.265625-.21875-.390625-1.292969-2.191407-3.683594-3.496094-6.222656-3.402344-2.539063.078125-4.835938 1.527344-6 3.78125-4.800782 9.277344-14.371094 15.105469-24.816407 15.105469-10.445312 0-20.019531-5.828125-24.816406-15.105469-1.167969-2.253906-3.464844-3.699219-6-3.773437-2.542969-.101563-4.9375 1.203124-6.226563 3.398437-.078124.125-.148437.253906-.214843.386719-4.667969 9.019531-13.863281 14.796875-24.015625 15.089844-10.148438.292968-19.660156-4.945313-24.839844-13.683594v-41.199219h296.398438v41.199219c-4.957032 8.574218-14.144532 13.8125-24.046876 13.707031zm0 0"/></svg>