<svg height="354pt" viewBox="0 0 354.00032 354" width="354pt" xmlns="http://www.w3.org/2000/svg"><path d="m0 177c0 97.601562 79.398438 177 177 177s177-79.398438 177-177c.042969-23.410156-4.585938-46.59375-13.621094-68.191406-1.515625-3.527344-5.589844-5.179688-9.132812-3.699219-3.542969 1.484375-5.234375 5.542969-3.785156 9.101563 8.320312 19.886718 12.582031 41.234374 12.539062 62.789062 0 89.878906-73.121094 163-163 163s-163-73.121094-163-163 73.121094-163 163-163c18.265625-.023438 36.40625 3.035156 53.65625 9.039062 2.363281.839844 5 .347657 6.902344-1.285156 1.902344-1.636718 2.785156-4.167968 2.3125-6.632812s-2.230469-4.488282-4.605469-5.300782c-18.730469-6.523437-38.429687-9.8437495-58.265625-9.820312-97.601562 0-177 79.398438-177 177zm0 0"/><path d="m233.460938 101.128906c0-3.867187-3.132813-7-7-7h-98.921876c-3.867187 0-7 3.132813-7 7 0 3.867188 3.132813 7 7 7h28.304688c16.871094.019532 31.394531 11.910156 34.746094 28.445313h-63.050782c-3.867187 0-7 3.132812-7 7 0 3.863281 3.132813 7 7 7h63.050782c-3.351563 16.53125-17.875 28.417969-34.746094 28.441406h-28.304688c-2.867187 0-5.441406 1.75-6.503906 4.410156-1.058594 2.664063-.386718 5.703125 1.695313 7.675781l70.75 66.855469c1.816406 1.726563 4.417969 2.351563 6.820312 1.636719 2.398438-.714844 4.238281-2.660156 4.816407-5.097656.574218-2.4375-.195313-5-2.019532-6.714844l-57.960937-54.769531h10.707031c24.589844-.03125 45.429688-18.105469 48.941406-42.441407h21.675782c3.867187 0 7-3.136718 7-7 0-3.867187-3.132813-7-7-7h-21.675782c-1.554687-10.828124-6.660156-20.835937-14.515625-28.445312h36.191407c3.867187 0 7-3.132812 7-6.996094zm0 0"/><path d="m246.394531 45.523438c-2.734375-2.734376-7.167969-2.734376-9.902343 0-2.730469 2.734374-2.730469 7.167968 0 9.902343l32.574218 32.574219c2.691406 2.691406 7.035156 2.738281 9.785156.113281l57.425782-54.851562c2.796875-2.671875 2.898437-7.101563.230468-9.898438-2.671874-2.792969-7.101562-2.894531-9.898437-.226562l-52.480469 50.125zm0 0"/></svg>