<svg height="463pt" viewBox="0 -44 463.99106 463" width="463pt" xmlns="http://www.w3.org/2000/svg"><path d="m340.835938 246.804688-.394532-2.488282c-1.257812-8.144531-8.28125-14.144531-16.523437-14.113281h-11.691407c-3.867187 0-7 3.132813-7 7s3.132813 7 7 7h11.691407c1.34375-.007813 2.492187.972656 2.699219 2.300781l9.257812 58.476563c.9375 6.054687 5.125 11.101562 10.902344 13.144531-5.992188 3.59375-8.9375 10.675781-7.257813 17.460938 1.679688 6.78125 7.59375 11.671874 14.570313 12.050781 6.976562.378906 13.382812-3.839844 15.789062-10.398438 2.40625-6.5625.25-13.921875-5.316406-18.144531h20.816406c-5.4375 4.125-7.632812 11.257812-5.457031 17.726562s8.238281 10.828126 15.0625 10.828126 12.886719-4.359376 15.0625-10.828126-.019531-13.601562-5.457031-17.726562h5.027344c3.867187 0 7-3.136719 7-7 0-3.867188-3.132813-7-7-7h-57.21875c-1.34375.007812-2.492188-.972656-2.699219-2.300781l-.640625-4.066407h52.652344c7.125-.003906 13.46875-4.519531 15.804687-11.25l10.875-31.382812c.738281-2.136719.398437-4.503906-.914063-6.347656-1.3125-1.847656-3.4375-2.941406-5.703124-2.941406zm54.144531 86.8125c-1.046875 0-1.890625-.847657-1.890625-1.894532 0-1.042968.84375-1.890625 1.890625-1.890625s1.894531.847657 1.894531 1.890625c0 1.046875-.847656 1.894532-1.894531 1.894532zm-40.027344 0c-1.046875 0-1.894531-.847657-1.894531-1.894532 0-1.042968.847656-1.890625 1.894531-1.890625 1.042969 0 1.890625.847657 1.890625 1.890625 0 1.046875-.847656 1.894532-1.890625 1.894532zm49.335937-50.726563c-.382812 1.097656-1.417968 1.835937-2.578124 1.835937h-54.871094l-3.789063-23.921874h68.890625zm0 0"/><path d="m176.566406 91.519531c10.921875.191407 20.875-6.242187 25.183594-16.277343 4.3125-10.035157 2.128906-21.679688-5.527344-29.472657-7.65625-7.789062-19.261718-10.175781-29.371094-6.042969-10.109374 4.132813-16.714843 13.972657-16.714843 24.894532-.113281 14.71875 11.710937 26.753906 26.429687 26.898437zm0-39.789062c5.257813-.191407 10.101563 2.828125 12.246094 7.628906 2.148438 4.800781 1.160156 10.425781-2.488281 14.210937-3.648438 3.789063-9.234375 4.980469-14.109375 3.015626-4.878906-1.96875-8.074219-6.699219-8.078125-11.957032-.121094-6.992187 5.441406-12.761718 12.429687-12.898437zm0 0"/><path d="m113.160156 91.519531c10.917969.191407 20.871094-6.242187 25.183594-16.277343 4.308594-10.035157 2.125-21.679688-5.53125-29.472657-7.652344-7.789062-19.257812-10.175781-29.367188-6.042969-10.109374 4.132813-16.714843 13.972657-16.71875 24.894532-.109374 14.71875 11.714844 26.753906 26.433594 26.898437zm0-39.789062c5.253906-.191407 10.101563 2.828125 12.246094 7.628906s1.160156 10.425781-2.492188 14.210937c-3.648437 3.789063-9.230468 4.980469-14.109374 3.015626-4.878907-1.96875-8.074219-6.699219-8.078126-11.957032-.121093-6.992187 5.441407-12.761718 12.433594-12.898437zm0 0"/><path d="m53.636719 91.519531c10.921875.191407 20.871093-6.242187 25.183593-16.277343 4.3125-10.035157 2.128907-21.679688-5.527343-29.472657-7.65625-7.789062-19.261719-10.175781-29.371094-6.042969-10.109375 4.132813-16.714844 13.972657-16.71875 24.894532-.109375 14.71875 11.714844 26.75 26.433594 26.898437zm0-39.789062c5.253906-.191407 10.101562 2.824219 12.246093 7.628906 2.144532 4.800781 1.160157 10.425781-2.488281 14.210937-3.648437 3.789063-9.234375 4.980469-14.113281 3.015626-4.875-1.96875-8.074219-6.699219-8.078125-11.957032-.117187-6.992187 5.441406-12.761718 12.433594-12.898437zm0 0"/><path d="m374 182.164062v-134.667968c-.027344-25.945313-21.054688-46.972656-47-47h-280c-25.945312.027344-46.9726562 21.054687-47 47v231.414062c.0273438 25.945313 21.054688 46.972656 47 47h235.136719c22.488281 40.597656 70.578125 59.582032 114.730469 45.285156 44.152343-14.292968 71.996093-57.859374 66.421874-103.933593-5.574218-46.074219-43-81.742188-89.289062-85.097657zm-327-167.667968h280c18.214844.019531 32.980469 14.78125 33 33v66.214844h-346v-66.214844c.019531-18.21875 14.785156-32.980469 33-33zm-33 264.414062v-151.199218h346v54.453124c-30.292969 2.21875-57.800781 18.480469-74.339844 43.953126-16.542968 25.476562-20.207031 57.222656-9.90625 85.792968h-228.753906c-18.214844-.019531-32.980469-14.78125-33-33zm353 83c-45.839844 0-83-37.160156-83-83s37.160156-83 83-83 83 37.160156 83 83c.109375 22.046875-8.597656 43.222656-24.1875 58.8125s-36.765625 24.300782-58.8125 24.1875zm0 0"/></svg>