<svg height="394pt" viewBox="0 -8 394 394" width="394pt" xmlns="http://www.w3.org/2000/svg"><path d="m378.800781 73.089844c-.625-.929688-1.460937-1.695313-2.445312-2.230469l-128-70c-3.390625-1.855469-7.644531-.609375-9.5 2.78125s-.609375 7.644531 2.785156 9.5l104.644531 57.226563h-292.570312l104.644531-57.226563c3.390625-1.855469 4.636719-6.109375 2.78125-9.5s-6.109375-4.636719-9.5-2.78125l-127.355469 69.644531c-13.78125 1.410156-24.269531 13.011719-24.285156 26.863282v259.0625c.015625 12.605468 10.230469 22.820312 22.832031 22.832031h348.335938c12.601562-.011719 22.816406-10.226563 22.832031-22.832031v-259.0625c-.011719-10.332032-5.910156-19.753907-15.199219-24.277344zm-232.078125 11.277344h100.625c-.714844 1.121093-1.097656 2.421874-1.101562 3.75v82.179687l-6.640625-7.085937c-1.324219-1.410157-3.171875-2.210938-5.109375-2.210938-1.933594 0-3.78125.800781-5.105469 2.210938l-13.636719 14.550781-13.644531-14.550781c-1.324219-1.410157-3.171875-2.210938-5.105469-2.210938-1.9375 0-3.785156.800781-5.109375 2.210938l-13.644531 14.554687-13.648438-14.554687c-1.324218-1.410157-3.171874-2.210938-5.105468-2.210938s-3.78125.800781-5.105469 2.210938l-6.648437 7.089843v-82.300781c0-1.28125-.351563-2.539062-1.019532-3.632812zm233.277344 272.0625c-.007812 4.875-3.957031 8.828124-8.832031 8.832031h-348.335938c-4.875-.003907-8.824219-3.957031-8.832031-8.832031v-259.0625c.007812-7.175782 5.824219-12.992188 13-13h107.769531c-.667969 1.09375-1.023437 2.351562-1.023437 3.632812v100c0 2.871094 1.753906 5.453125 4.425781 6.507812 2.671875 1.058594 5.71875.375 7.683594-1.71875l13.644531-14.558593 13.648438 14.554687c1.324218 1.410156 3.171874 2.210938 5.105468 2.210938s3.785156-.800782 5.105469-2.210938l13.648437-14.554687 13.644532 14.554687c1.320312 1.410156 3.171875 2.210938 5.105468 2.210938 1.933594 0 3.785157-.800782 5.105469-2.210938l13.636719-14.550781 13.640625 14.554687c1.964844 2.09375 5.011719 2.777344 7.683594 1.71875 2.671875-1.054687 4.425781-3.636718 4.425781-6.507812v-99.882812c0-1.328126-.378906-2.628907-1.097656-3.75h107.847656c7.175781.007812 12.992188 5.824218 13 13zm0 0"/><path d="m107 261.261719h-60c-3.867188 0-7 3.132812-7 7v34c0 3.863281 3.132812 7 7 7h60c3.867188 0 7-3.136719 7-7v-34c0-3.867188-3.132812-7-7-7zm-7 34h-46v-20h46zm0 0"/><path d="m232 261.261719h-91c-3.867188 0-7 3.132812-7 7 0 3.863281 3.132812 7 7 7h91c3.867188 0 7-3.136719 7-7 0-3.867188-3.132812-7-7-7zm0 0"/><path d="m187 287.261719h-46c-3.867188 0-7 3.132812-7 7 0 3.863281 3.132812 7 7 7h46c3.867188 0 7-3.136719 7-7 0-3.867188-3.132812-7-7-7zm0 0"/></svg>