<svg height="428pt" viewBox="0 -19 428.30527 428" width="428pt" xmlns="http://www.w3.org/2000/svg"><path d="m21.171875 391.074219h311.660156c11.683594-.011719 21.15625-9.476563 21.171875-21.160157v-175.507812l50.84375-54.15625c8.078125-8.421875 14.355469-18.398438 18.457032-29.324219 3.90625-10.542969 5.554687-21.785156 4.835937-33.007812-1.34375-20.449219-10.046875-39.722657-24.5-54.253907-15.003906-15.050781-35.382813-23.511718-56.636719-23.511718-21.25 0-41.628906 8.460937-56.632812 23.511718-10.921875 10.976563-18.625 24.738282-22.269532 39.789063h-187.378906c-7.234375-.011719-13.972656 3.679687-17.855468 9.789063l-61.765626 96.910156c-.71875 1.125-1.101562 2.429687-1.101562 3.761718v196c.015625 11.683594 9.488281 21.152344 21.171875 21.160157zm196.335937-14h-81.007812v-141.699219l81.007812 33.964844zm115.324219 0h-101.324219v-112.394531c-.003906-2.820313-1.695312-5.363282-4.292968-6.453126l-95.007813-39.835937c-2.160156-.90625-4.632812-.667969-6.582031.628906-1.953125 1.296875-3.125 3.484375-3.125 5.828125v152.226563h-101.328125c-3.953125 0-7.160156-3.203125-7.167969-7.160157v-189h313.328125l12.671875 13.5v175.5c-.007812 3.957032-3.214844 7.160157-7.171875 7.160157zm-53-298.21875c1.121094-17.078125 8.386719-33.171875 20.453125-45.3125 12.378906-12.414063 29.1875-19.390625 46.71875-19.390625s34.339844 6.976562 46.71875 19.390625c12.066406 12.140625 19.328125 28.234375 20.449219 45.3125.585937 9.269531-.78125 18.5625-4.019531 27.269531-3.453125 9.148438-8.730469 17.5-15.511719 24.542969l-47.636719 50.746093-47.636718-50.738281c-6.78125-7.046875-12.054688-15.398437-15.507813-24.550781-3.238281-8.707031-4.609375-18-4.023437-27.269531zm-9.132812 32.070312c4.101562 10.925781 10.382812 20.902344 18.460937 29.324219l25.027344 26.664062h-130.183594v-89.460937h81.902344c-.011719.15625-.03125.3125-.039062.464844-.722657 11.222656.925781 22.464843 4.835937 33.007812zm-196.03125-30.148437c1.316406-2.070313 3.601562-3.328125 6.054687-3.324219h89.28125v89.460937h-150.234375zm0 0"/><path d="m347.003906 125.570312c25.914063 0 47-21.566406 47-48.074218 0-26.507813-21.085937-48.074219-47-48.074219-25.917968 0-47 21.566406-47 48.074219 0 26.503906 21.082032 48.074218 47 48.074218zm0-82.148437c18.199219 0 33 15.285156 33 34.074219 0 18.789062-14.800781 34.074218-33 34.074218-18.199218 0-33-15.285156-33-34.074218 0-18.789063 14.804688-34.074219 33-34.074219zm0 0"/></svg>