<svg height="433pt" viewBox="0 -1 433.99451 433" width="433pt" xmlns="http://www.w3.org/2000/svg"><path d="m408.167969 127.121094c-3.566407 1.492187-5.25 5.589844-3.757813 9.15625 10.339844 24.730468 15.640625 51.277344 15.589844 78.082031 0 111.761719-90.925781 202.691406-202.6875 202.691406-41.726562.125-82.457031-12.75-116.53125-36.835937l28.335938-38.457032c1.664062-2.257812 1.816406-5.289062.394531-7.703124-1.421875-2.417969-4.152344-3.75-6.933594-3.390626l-67.765625 8.800782c-1.894531.246094-3.605469 1.25-4.738281 2.789062-1.132813 1.535156-1.589844 3.46875-1.261719 5.347656l11.671875 67.332032c.476563 2.765625 2.558594 4.976562 5.289063 5.621094 2.730468.644531 5.582031-.402344 7.246093-2.664063l19.453125-26.398437c78.933594 55.570312 185.105469 52.242187 260.402344-8.164063 75.300781-60.40625 101.574219-163.328125 64.445312-252.4375-1.484374-3.570313-5.585937-5.257813-9.152343-3.769531zm-336.6875 269.257812-7.625-43.976562 44.257812-5.746094-22.671875 30.773438c-.019531.023437-.042968.046874-.058594.070312-.03125.039062-.054687.082031-.085937.125zm0 0"/><path d="m14 217.140625c0-111.761719 90.925781-202.691406 202.6875-202.691406 41.726562-.125 82.457031 12.75 116.53125 36.835937l-28.335938 38.457032c-1.660156 2.257812-1.816406 5.289062-.394531 7.707031 1.425781 2.414062 4.152344 3.75 6.933594 3.386719l67.765625-8.800782c1.894531-.242187 3.605469-1.25 4.738281-2.785156 1.132813-1.539062 1.589844-3.46875 1.261719-5.351562l-11.675781-67.332032c-.476563-2.765625-2.558594-4.976562-5.289063-5.621094-2.730468-.640624-5.582031.40625-7.242187 2.664063l-19.457031 26.40625c-78.933594-55.574219-185.109376-52.246094-260.40625 8.164063-75.300782 60.40625-101.574219 163.332031-64.441407 252.4375 1.515625 3.53125 5.589844 5.179687 9.132813 3.699218 3.542968-1.480468 5.230468-5.539062 3.785156-9.097656-10.34375-24.730469-15.644531-51.273438-15.59375-78.078125zm348.519531-182.019531 7.625 43.972656-44.257812 5.746094 22.671875-30.773438c.019531-.023437.042968-.042968.058594-.070312.03125-.039063.054687-.082032.085937-.121094zm0 0"/><path d="m333.738281 179.347656c-.011719-.035156-.019531-.074218-.027343-.109375-.089844-.289062-.195313-.578125-.316407-.855469-.019531-.042968-.042969-.082031-.0625-.125-.113281-.242187-.242187-.476562-.378906-.699218-.019531-.03125-.03125-.0625-.050781-.089844l-39.96875-62.703125c-2.960938-4.667969-8.105469-7.492187-13.632813-7.476563h-124.601562c-5.527344-.015624-10.671875 2.808594-13.632813 7.476563l-39.96875 62.699219c-.019531.03125-.03125.0625-.050781.089844-.140625.226562-.265625.460937-.378906.703124-.019531.039063-.042969.082032-.0625.125-.125.277344-.230469.5625-.316407.855469-.011718.035157-.019531.070313-.027343.109375-.070313.25-.125.507813-.164063.765625-.011718.070313-.027344.140625-.035156.214844-.039062.296875-.0625.597656-.0625.898437v126.824219c.007812 8.921875 7.242188 16.15625 16.167969 16.164063h201.664062c8.925781-.007813 16.15625-7.242188 16.167969-16.164063v-126.824219c0-.300781-.023438-.601562-.0625-.902343-.011719-.070313-.023438-.140625-.035156-.210938-.039063-.257812-.09375-.511719-.164063-.765625zm-52.613281-57.0625 33.113281 51.941406h-90.238281v-52.945312h55.300781c.738281 0 1.429688.378906 1.824219 1.003906zm-128.25 0c.398438-.625 1.085938-1 1.828125-1h55.296875v52.945313h-90.238281zm87.863281 187.933594h-47.476562v-85.507812l47.476562 19.898437zm77.097657 0h-63.097657v-70.257812c0-2.820313-1.695312-5.367188-4.292969-6.457032l-61.476562-25.773437c-2.160156-.90625-4.628906-.671875-6.582031.625s-3.125 3.484375-3.125 5.828125v96.03125h-63.097657c-1.195312-.003906-2.164062-.972656-2.164062-2.164063v-119.824219h206v119.824219c0 1.195313-.96875 2.164063-2.167969 2.164063zm0 0"/></svg>