<svg height="432pt" viewBox="0 0 432 431" width="432pt" xmlns="http://www.w3.org/2000/svg"><path d="m388.574219.5h-204.902344c-23.972656.027344-43.398437 19.453125-43.425781 43.425781v6.742188l-97.234375 81.070312c-.179688.148438-.351563.304688-.511719.472657-8 8.105468-12.472656 19.042968-12.445312 30.429687v178.449219h-23.054688c-3.867188 0-7 3.132812-7 7v75.585937c0 3.863281 3.132812 7 7 7h195.800781c3.863281 0 7-3.136719 7-7v-75.585937c0-3.867188-3.136719-7-7-7h-16.683593v-22.992188c20.992187-3.457031 36.398437-21.589844 36.429687-42.863281v-72.84375c0-.714844-.109375-1.425781-.324219-2.109375h166.351563c23.972656-.027344 43.402343-19.457031 43.425781-43.429688v-112.925781c-.027344-23.972656-19.453125-43.398437-43.425781-43.425781zm-234.332031 64.089844h263.757812v22.425781h-263.757812zm29.429687-50.085938h204.898437c16.246094.015625 29.410157 13.179688 29.429688 29.421875v6.664063h-263.757812v-6.660156c.019531-16.246094 13.183593-29.410157 29.429687-29.429688zm12.128906 402.175782h-181.800781v-61.589844h181.800781zm12.746094-214.289063v72.851563c-.019531 16.246093-13.183594 29.410156-29.429687 29.429687-3.863282 0-7 3.132813-7 7v29.417969h-128.0625v-178.449219c-.019532-7.601563 2.921874-14.914063 8.199218-20.382813l87.984375-73.363281v68.207031c.003907.359376.035157.714844.089844 1.070313l-56.789063 44.964844c-3.027343 2.398437-3.539062 6.804687-1.140624 9.832031 2.398437 3.03125 6.800781 3.542969 9.832031 1.144531l82.601562-65.398437 2.03125 2.03125c7.921875 7.941406 7.921875 20.796875 0 28.734375l-38.636719 38.636719c-1.214843 1.214843-1.9375 2.832031-2.039062 4.542968l-.488281 8.429688c-.007813.132812-.011719.269531-.011719.398437.039062 6.398438 1.5 12.707031 4.273438 18.472657 6.238281 13.398437 5.066406 29.074218-3.097657 41.394531-.765625 1.148437-1.175781 2.5-1.175781 3.878906v18.214844c0 3.867187 3.136719 7 7 7 3.867188 0 7-3.132813 7-7v-16.167969c9.816406-16.152344 10.921875-36.136719 2.945312-53.269531-1.867187-3.847657-2.871093-8.054688-2.945312-12.328125l.324219-5.550782 11.777343-11.78125c6.644532 3.871094 14.191407 5.914063 21.878907 5.925782h25.199219c-.214844.683594-.324219 1.394531-.320313 2.113281zm180.027344-16.109375h-204.902344c-3.941406.007812-7.84375-.785156-11.472656-2.328125l14.570312-14.570313c13.378907-13.410156 13.378907-35.121093 0-48.535156l-6.441406-6.441406c-2.511719-2.515625-6.511719-2.746094-9.300781-.535156l-16.785156 13.289062v-26.144531h263.757812v55.835937c-.019531 16.242188-13.183594 29.40625-29.425781 29.425782zm0 0"/><path d="m46.613281 365.679688c-8.582031-.1875-16.421875 4.839843-19.835937 12.714843-3.414063 7.878907-1.722656 17.035157 4.28125 23.171875 6.003906 6.136719 15.121094 8.027344 23.070312 4.785156 7.949219-3.242187 13.144532-10.972656 13.144532-19.554687.113281-11.53125-9.128907-20.976563-20.660157-21.117187zm0 28.230468c-2.921875.195313-5.664062-1.417968-6.914062-4.0625-1.253907-2.644531-.761719-5.789062 1.238281-7.925781s5.101562-2.835937 7.824219-1.757813c2.722656 1.074219 4.511719 3.703126 4.511719 6.632813.117187 3.800781-2.859376 6.980469-6.660157 7.113281zm0 0"/><path d="m354.421875 116.15625c-4.753906-.011719-9.4375 1.125-13.660156 3.316406-12.523438-6.46875-27.867188-3.265625-36.757813 7.675782-8.890625 10.9375-8.890625 26.609374 0 37.550781 8.890625 10.9375 24.234375 14.140625 36.757813 7.671875 10.96875 5.664062 24.292969 3.972656 33.496093-4.253906 9.203126-8.226563 12.375-21.28125 7.972657-32.8125-4.402344-11.53125-15.464844-19.148438-27.808594-19.152344zm-43.085937 29.765625c0-8.707031 7.058593-15.765625 15.765624-15.765625 8.710938 0 15.765626 7.0625 15.765626 15.769531s-7.058594 15.765625-15.765626 15.761719c-8.703124-.011719-15.753906-7.0625-15.765624-15.765625zm43.085937 15.765625c-.671875 0-1.347656-.039062-2.015625-.125.070312-.113281.128906-.226562.195312-.339844.210938-.355468.414063-.710937.613282-1.074218.109375-.199219.222656-.40625.328125-.613282.199219-.390625.394531-.792968.578125-1.199218.082031-.175782.167968-.347657.242187-.523438.253907-.582031.496094-1.167969.710938-1.765625.019531-.050781.035156-.101563.054687-.15625.191406-.546875.371094-1.097656.535156-1.652344.058594-.199219.109376-.40625.164063-.609375.113281-.414062.21875-.828125.3125-1.246094.050781-.230468.097656-.464843.144531-.699218.082032-.398438.152344-.800782.21875-1.207032.035156-.238281.070313-.472656.097656-.710937.058594-.429687.101563-.867187.140626-1.296875.019531-.207031.039062-.410156.054687-.617188.042969-.640624.066406-1.285156.066406-1.929687s-.023437-1.304687-.066406-1.953125c-.011719-.207031-.035156-.410156-.050781-.617188-.039063-.441406-.082032-.878906-.136719-1.316406-.03125-.238281-.066406-.472656-.101563-.707031-.0625-.40625-.132812-.8125-.210937-1.21875-.046875-.230469-.09375-.464844-.144531-.699219-.09375-.421875-.199219-.835937-.308594-1.25-.054688-.199218-.097656-.40625-.160156-.605468-.160156-.550782-.335938-1.101563-.527344-1.640626-.019531-.054687-.035156-.109374-.054688-.164062-.214843-.589844-.449218-1.175781-.699218-1.75-.082032-.183594-.167969-.359375-.253906-.542969-.179688-.390625-.363282-.78125-.558594-1.164062-.113282-.210938-.226563-.421875-.339844-.628907-.191406-.351562-.386719-.695312-.59375-1.035156-.070312-.117187-.128906-.238281-.199219-.355468 5.820313-.726563 11.566407 1.835937 14.910157 6.65625 3.347656 4.816406 3.738281 11.097656 1.019531 16.296874-2.714844 5.195313-8.09375 8.457032-13.960938 8.460938zm0 0"/></svg>