<svg height="411pt" viewBox="-39 0 411 411.22317" width="411pt" xmlns="http://www.w3.org/2000/svg"><path d="m167.09375 0c-43.640625-.128906-85.507812 17.253906-116.226562 48.25-29.742188 29.910156-47.652344 69.574219-50.417969 111.664062-1.476563 23.035157 1.910156 46.121094 9.9375 67.761719 7.867187 21.554688 20.667969 41.871094 38.046875 60.386719l113.5625 120.953125c1.324218 1.40625 3.167968 2.207031 5.101562 2.207031s3.78125-.800781 5.105469-2.207031l113.554687-120.953125c17.378907-18.515625 30.179688-38.832031 38.042969-60.386719 8.027344-21.640625 11.417969-44.726562 9.941407-67.761719-2.765626-42.089843-20.675782-81.753906-50.417969-111.664062-30.71875-30.996094-72.589844-48.378906-116.230469-48.25zm143.554688 222.875c-7.210938 19.769531-19.019532 38.476562-35.097657 55.601562l-108.457031 115.523438-108.453125-115.519531c-16.078125-17.128907-27.886719-35.835938-35.101563-55.601563-7.355468-19.808594-10.464843-40.941406-9.125-62.027344 2.542969-38.71875 19.015626-75.203124 46.371094-102.71875 28.164063-28.25 66.417969-44.128906 106.308594-44.128906 39.894531 0 78.148438 15.878906 106.3125 44.128906 27.355469 27.515626 43.824219 64 46.367188 102.714844 1.34375 21.085938-1.765626 42.222656-9.125 62.027344zm0 0"/><path d="m167.09375 39.613281c-63.917969 0-115.921875 53.3125-115.921875 118.847657 0 65.53125 52.003906 118.851562 115.921875 118.851562 63.921875 0 115.921875-53.320312 115.921875-118.851562 0-65.535157-52-118.847657-115.921875-118.847657zm0 223.699219c-56.199219 0-101.921875-47.035156-101.921875-104.847656s45.722656-104.851563 101.921875-104.851563c56.203125 0 101.921875 47.035157 101.921875 104.847657s-45.71875 104.851562-101.921875 104.851562zm0 0"/><path d="m207.09375 150.53125h-80c-3.863281 0-7 3.132812-7 7s3.136719 7 7 7h80c3.867188 0 7-3.132812 7-7s-3.132812-7-7-7zm0 0"/></svg>