<svg height="334pt" viewBox="0 -8 334.00076 334" width="334pt" xmlns="http://www.w3.org/2000/svg" fill="currentColor" id="072"><path d="m33.066406 202.691406-2.5 50.179688c-.164062 3.289062 1.988282 6.246094 5.164063 7.105468l48.5 13.125 27.46875 42.070313c1.800781 2.757813 5.277343 3.886719 8.355469 2.714844l46.945312-17.886719 46.949219 17.882812c3.074219 1.171876 6.550781.042969 8.351562-2.710937l27.46875-42.066406 48.5-13.125c3.179688-.859375 5.328125-3.816407 5.164063-7.105469l-2.5-50.179688 31.519531-39.125c2.0625-2.566406 2.0625-6.21875 0-8.785156l-31.519531-39.125 2.5-50.179687c.164062-3.289063-1.984375-6.246094-5.164063-7.105469l-48.5-13.125-27.46875-42.078125c-1.800781-2.753906-5.277343-3.886719-8.355469-2.710937l-46.945312 17.886718-46.949219-17.882812c-3.074219-1.171875-6.550781-.042969-8.351562 2.707031l-27.46875 42.070313-48.5 13.125c-3.179688.859374-5.328125 3.816406-5.164063 7.105468l2.5 50.179688-31.515625 39.128906c-2.066406 2.566406-2.066406 6.21875 0 8.785156zm12.578125-80.328125c1.078125-1.335937 1.625-3.023437 1.539063-4.738281l-2.355469-47.210938 45.628906-12.351562c1.660157-.449219 3.09375-1.492188 4.03125-2.929688l25.847657-39.578124 44.171874 16.828124c1.605469.609376 3.378907.609376 4.984376 0l44.171874-16.828124 25.847657 39.578124c.9375 1.4375 2.371093 2.480469 4.03125 2.929688l45.625 12.351562-2.351563 47.210938c-.085937 1.714844.460938 3.402344 1.539063 4.738281l29.65625 36.808594-29.65625 36.8125c-1.078125 1.335937-1.625 3.023437-1.539063 4.738281l2.351563 47.210938-45.625 12.351562c-1.660157.449219-3.09375 1.492188-4.03125 2.929688l-25.847657 39.578125-44.171874-16.828125c-1.605469-.609375-3.378907-.609375-4.984376 0l-44.171874 16.828125-25.847657-39.578125c-.9375-1.4375-2.371093-2.480469-4.03125-2.929688l-45.628906-12.351562 2.355469-47.210938c.085937-1.714844-.460938-3.402344-1.539063-4.738281l-29.65625-36.8125zm0 0"/><path d="m128.300781 145.0625c16.011719 0 28.988281-12.976562 28.988281-28.988281.003907-16.011719-12.976562-28.992188-28.988281-28.992188s-28.988281 12.980469-28.988281 28.992188c.015625 16 12.984375 28.96875 28.988281 28.988281zm0-43.980469c8.277344 0 14.988281 6.710938 14.988281 14.992188.003907 8.277343-6.707031 14.988281-14.988281 14.988281-8.277343 0-14.988281-6.710938-14.988281-14.988281.007812-8.273438 6.714844-14.980469 14.988281-14.992188zm0 0"/><path d="m174.953125 204.03125c0 16.011719 12.980469 28.992188 28.988281 28.992188 16.011719 0 28.992188-12.980469 28.992188-28.992188s-12.980469-28.988281-28.992188-28.988281c-16.003906.019531-28.96875 12.988281-28.988281 28.988281zm43.980469 0c0 8.28125-6.710938 14.992188-14.992188 14.992188-8.277344 0-14.988281-6.710938-14.988281-14.992188 0-8.277344 6.710937-14.988281 14.988281-14.988281 8.277344.007812 14.980469 6.714843 14.992188 14.988281zm0 0"/><path d="m113.699219 240.902344c3.238281 2.113281 7.578125 1.199218 9.6875-2.039063l98.953125-151.730469c1.375-2.09375 1.523437-4.765624.390625-7-1.132813-2.234374-3.371094-3.691406-5.871094-3.828124-2.5-.132813-4.882813 1.078124-6.246094 3.179687l-98.953125 151.730469c-2.113281 3.238281-1.199218 7.574218 2.039063 9.6875zm0 0"/></svg>