<svg height="354pt" viewBox="0 -1 354.50863 354" width="354pt" xmlns="http://www.w3.org/2000/svg"><path d="m49.058594 337.835938c.480468 2.765624 2.5625 4.976562 5.289062 5.621093 2.730469.640625 5.582032-.40625 7.246094-2.664062l15-20.359375c29.589844 20.65625 64.828125 31.675781 100.914062 31.566406 97.601563 0 177-79.402344 177-177 .046876-23.410156-4.585937-46.59375-13.621093-68.191406-.949219-2.328125-3.078125-3.972656-5.570313-4.296875-2.496094-.328125-4.976562.707031-6.492187 2.710937-1.519531 2.007813-1.847657 4.675782-.855469 6.988282 8.320312 19.886718 12.582031 41.234374 12.539062 62.789062 0 89.878906-73.121093 163-163 163-33.09375.101562-65.421874-9.964844-92.605468-28.84375l22.167968-30.085938c1.664063-2.257812 1.816407-5.289062.394532-7.707031-1.421875-2.414062-4.152344-3.746093-6.929688-3.386719l-54.945312 7.132813c-1.890625.246094-3.601563 1.253906-4.734375 2.789063-1.132813 1.535156-1.589844 3.46875-1.265625 5.351562zm37.011718-53.863282-16.535156 22.4375c-.015625.019532-.03125.035156-.042968.054688-.015626.019531-.042969.066406-.066407.101562l-9.371093 12.714844-5.414063-31.226562zm0 0"/><path d="m177 14.253906c33.09375-.101562 65.421875 9.964844 92.605469 28.84375l-22.167969 30.085938c-1.566406 2.128906-1.800781 4.953125-.613281 7.308594 1.191406 2.359374 3.605469 3.84375 6.246093 3.84375.300782 0 .601563-.019532.902344-.058594l54.941406-7.132813c1.890626-.246093 3.601563-1.253906 4.734376-2.789062 1.132812-1.535157 1.589843-3.46875 1.265624-5.347657l-9.460937-54.589843c-.476563-2.765625-2.558594-4.976563-5.289063-5.617188-2.730468-.644531-5.578124.402344-7.242187 2.660157l-15 20.359374c-29.59375-20.65625-64.835937-31.679687-100.921875-31.566406-97.601562 0-177 79.402344-177 177-.0429688 23.410156 4.585938 46.59375 13.621094 68.191406.949218 2.328126 3.078125 3.972657 5.570312 4.300782 2.496094.328125 4.976563-.710938 6.496094-2.714844 1.519531-2.007812 1.84375-4.675781.851562-6.988281-8.316406-19.886719-12.582031-41.230469-12.539062-62.789063 0-89.878906 73.121094-163 163-163zm117.453125 18.71875 5.414063 31.226563-31.429688 4.082031 16.53125-22.4375c.015625-.019531.03125-.035156.046875-.054688.015625-.019531.042969-.066406.066406-.101562zm0 0"/><path d="m177.253906 108.421875c16.523438.015625 29.914063 13.40625 29.933594 29.933594 0 3.863281 3.132812 7 7 7s7-3.136719 7-7c-.027344-21.550781-15.664062-39.910157-36.933594-43.371094v-13.855469c0-3.867187-3.132812-7-7-7-3.867187 0-7 3.132813-7 7v13.855469c-22.601562 3.65625-38.605468 24.058594-36.773437 46.878906 1.828125 22.820313 20.878906 40.410157 43.773437 40.421875 16.464844-.003906 29.835938 13.292969 29.933594 29.753906.09375 16.464844-13.125 29.914063-29.585938 30.101563-.117187-.003906-.230468-.015625-.347656-.015625-.117187 0-.230468.011719-.347656.015625-16.386719-.207031-29.566406-13.535156-29.585938-29.921875 0-3.867188-3.132812-7-7-7-3.863281 0-7 3.132812-7 7 .027344 21.550781 15.664063 39.910156 36.933594 43.371094v15.539062c0 3.863282 3.132813 7 7 7 3.867188 0 7-3.136718 7-7v-15.539062c22.601563-3.65625 38.605469-24.058594 36.773438-46.878906-1.828125-22.824219-20.878906-40.414063-43.773438-40.421876-16.464844-.09375-29.761718-13.46875-29.761718-29.933593 0-16.464844 13.296874-29.839844 29.761718-29.933594zm0 0"/></svg>