<svg height="354pt" viewBox="0 -1 354.50763 354" width="354pt" xmlns="http://www.w3.org/2000/svg"><path d="m233.714844 100.253906c0-3.863281-3.132813-7-7-7h-98.921875c-3.867188 0-7 3.136719-7 7 0 3.867188 3.132812 7 7 7h28.304687c16.871094.023438 31.394532 11.914063 34.746094 28.445313h-63.050781c-3.867188 0-7 3.132812-7 7 0 3.867187 3.132812 7 7 7h63.050781c-3.351562 16.53125-17.875 28.421875-34.746094 28.441406h-28.304687c-2.867188.003906-5.441407 1.75-6.503907 4.414063-1.058593 2.664062-.386718 5.703124 1.695313 7.671874l70.75 66.855469c2.808594 2.65625 7.242187 2.53125 9.894531-.28125 2.65625-2.808593 2.53125-7.238281-.277344-9.894531l-57.960937-54.765625h10.707031c24.589844-.035156 45.429688-18.109375 48.941406-42.445313h21.675782c3.867187 0 7-3.132812 7-7 0-3.867187-3.132813-7-7-7h-21.675782c-1.554687-10.828124-6.660156-20.832031-14.515624-28.441406h36.191406c3.867187 0 7-3.132812 7-7zm0 0"/><path d="m49.058594 337.835938c.480468 2.765624 2.5625 4.976562 5.289062 5.617187 2.730469.644531 5.582032-.402344 7.246094-2.660156l15-20.359375c29.589844 20.65625 64.828125 31.675781 100.914062 31.566406 97.597657 0 177-79.402344 177-177 .042969-23.410156-4.585937-46.59375-13.621093-68.191406-.949219-2.328125-3.078125-3.972656-5.570313-4.300782-2.496094-.328124-4.976562.710938-6.496094 2.714844-1.519531 2.007813-1.84375 4.675782-.851562 6.988282 8.316406 19.886718 12.582031 41.230468 12.539062 62.789062 0 89.878906-73.121093 163-163 163-33.09375.101562-65.421874-9.964844-92.609374-28.84375l22.171874-30.085938c1.660157-2.257812 1.816407-5.292968.394532-7.707031-1.425782-2.414062-4.152344-3.75-6.933594-3.386719l-54.941406 7.132813c-1.890625.246094-3.601563 1.253906-4.734375 2.789063-1.132813 1.535156-1.589844 3.46875-1.265625 5.347656zm37.011718-53.863282-16.535156 22.4375c-.015625.019532-.03125.035156-.042968.054688-.015626.019531-.042969.066406-.066407.101562l-9.371093 12.714844-5.414063-31.226562zm0 0"/><path d="m177 14.253906c33.09375-.101562 65.421875 9.964844 92.605469 28.839844l-22.167969 30.089844c-1.566406 2.125-1.800781 4.953125-.613281 7.308594 1.191406 2.355468 3.605469 3.84375 6.246093 3.84375.300782 0 .601563-.019532.902344-.058594l54.941406-7.132813c1.890626-.246093 3.601563-1.253906 4.734376-2.789062 1.132812-1.535157 1.589843-3.46875 1.265624-5.351563l-9.460937-54.585937c-.476563-2.765625-2.558594-4.976563-5.289063-5.621094-2.730468-.640625-5.578124.40625-7.242187 2.664063l-15 20.359374c-29.59375-20.65625-64.835937-31.679687-100.921875-31.566406-97.601562 0-177 79.402344-177 177-.0429688 23.410156 4.585938 46.59375 13.621094 68.191406.949218 2.328126 3.078125 3.972657 5.570312 4.296876 2.496094.328124 4.976563-.707032 6.496094-2.710938 1.519531-2.007812 1.84375-4.675781.851562-6.988281-8.316406-19.886719-12.582031-41.234375-12.539062-62.789063 0-89.878906 73.121094-163 163-163zm117.453125 18.714844 5.414063 31.230469-31.429688 4.082031 16.53125-22.4375c.015625-.019531.03125-.035156.046875-.054688.015625-.019531.042969-.066406.066406-.101562zm0 0"/></svg>