<svg height="462pt" viewBox="-54 0 462 462" width="462pt" xmlns="http://www.w3.org/2000/svg"><path d="m199.53125 407.738281h-42.871094c-3.867187 0-7 3.136719-7 7 0 3.867188 3.132813 7 7 7h42.871094c3.867188 0 7-3.132812 7-7 0-3.863281-3.132812-7-7-7zm0 0"/><path d="m353.964844 101.414062c-.03125-.3125-.085938-.625-.160156-.929687-.015626-.058594-.027344-.121094-.042969-.179687-.082031-.300782-.183594-.601563-.300781-.890626-.125-.292968-.269532-.574218-.429688-.847656-.035156-.058594-.066406-.113281-.101562-.167968-.164063-.269532-.347657-.527344-.546876-.769532-.015624-.019531-.035156-.035156-.046874-.054687-.199219-.226563-.410157-.445313-.636719-.648438-.027344-.027343-.050781-.058593-.082031-.082031l-51.289063-45.066406v-9.621094c-.027344-23.273438-18.890625-42.1289062-42.164063-42.15625h-160.140624c-23.273438.0273438-42.132813 18.886719-42.160157 42.160156v9.355469l-53.390625 45.246094c-1.570312 1.335937-2.472656 3.300781-2.457031 5.367187 0 .101563-.015625.199219-.015625.300782v34.441406c0 1.085937.253906 2.15625.738281 3.128906l.050781.101562c10.351563 19.984376 33.808594 29.34375 55.074219 21.96875v257.777344c.03125 23.273438 18.890625 42.125 42.160157 42.152344h160.140624c23.277344-.027344 42.136719-18.886719 42.164063-42.160156v-257.066406c20.792969 6.050781 42.960937-3.460938 52.898437-22.703126.511719-.988281.777344-2.085937.777344-3.199218v-34.769532c0-.203124-.011718-.402343-.03125-.601562-.003906-.03125-.003906-.058594-.007812-.085938zm-255.941406-87.414062h160.140624c15.546876.019531 28.144532 12.613281 28.164063 28.160156v5.601563h-216.464844v-5.601563c.019531-15.546875 12.617188-28.140625 28.160157-28.160156zm-32.59375 47.753906h225.042968l37.953125 33.347656h-302.339843zm192.734374 386.246094h-160.140624c-15.542969-.019531-28.140626-12.613281-28.160157-28.160156v-38.945313h216.464844v38.949219c-.019531 15.542969-12.617187 28.136719-28.164063 28.15625zm28.164063-81.109375h-216.464844v-212.699219c1.84375-1.523437 3.558594-3.195312 5.136719-4.992187 8.601562 9.761719 20.984375 15.351562 33.996094 15.351562 13.007812 0 25.390625-5.589843 33.992187-15.351562 8.585938 9.789062 20.984375 15.386719 34 15.359375 13.019531.027344 25.414063-5.570313 34-15.355469 8.601563 9.769531 20.988281 15.363281 34 15.363281 13.015625 0 25.402344-5.59375 34-15.363281 2.195313 2.496094 4.65625 4.746094 7.347657 6.699219zm26.671875-216.316406c-11.71875.121093-22.484375-6.429688-27.769531-16.886719-1.195313-2.335938-3.597657-3.808594-6.222657-3.8125s-5.03125 1.457031-6.238281 3.789062c-5.371093 10.386719-16.089843 16.90625-27.78125 16.902344-11.691406 0-22.40625-6.527344-27.777343-16.914062-1.203126-2.324219-3.601563-3.78125-6.21875-3.78125-2.617188.003906-5.019532 1.464844-6.222657 3.789062-5.371093 10.382813-16.085937 16.90625-27.773437 16.90625-11.691406 0-22.40625-6.523437-27.777344-16.90625-.042969-.082031-.089844-.171875-.136719-.25-1.269531-2.230468-3.65625-3.589844-6.222656-3.539062-2.566406.050781-4.898437 1.5-6.078125 3.78125-5.371094 10.382812-16.085938 16.90625-27.777344 16.90625s-22.40625-6.523438-27.777344-16.90625c-1.203124-2.324219-3.605468-3.78125-6.21875-3.78125-2.621093.003906-5.019531 1.464844-6.222656 3.789062-5.238281 10.128906-15.574218 16.605469-26.972656 16.902344s-22.054688-5.632812-27.8125-15.476562v-25.984376h326v25.980469c-5.523438 9.679688-15.855469 15.609375-27 15.492188zm0 0"/><path d="m230.292969 220.914062-50.703125-27.015624c-2.082032-1.109376-4.585938-1.09375-6.65625.039062l-49.300782 27.019531c-2.238281 1.226563-3.632812 3.578125-3.632812 6.132813v35.292968c.03125 30.789063 18.273438 58.644532 46.484375 70.976563l6.839844 2.984375c1.777343.773438 3.796875.777344 5.574219.007812l7.699218-3.324218c28.722656-12.074219 47.402344-40.191406 47.402344-71.347656v-34.589844c0-2.585938-1.425781-4.960938-3.707031-6.175782zm-10.292969 40.765626c-.007812 25.542968-15.332031 48.585937-38.882812 58.464843-.019532.007813-.035157.015625-.050782.023438l-4.929687 2.128906-4.046875-1.765625c-23.113282-10.101562-38.0625-32.921875-38.089844-58.148438v-31.144531l42.34375-23.207031 43.65625 23.261719zm0 0"/><path d="m161.101562 257.835938c-2.511718-2.9375-6.929687-3.285157-9.871093-.777344-2.9375 2.511718-3.289063 6.929687-.777344 9.871094l13.332031 15.613281c2.46875 2.890625 6.792969 3.28125 9.742188.882812l31.050781-25.261719c1.972656-1.570312 2.953125-4.074218 2.5625-6.566406-.390625-2.488281-2.089844-4.574218-4.449219-5.464844-2.355468-.886718-5.011718-.441406-6.945312 1.171876l-25.746094 20.949218zm0 0"/></svg>