<svg height="455pt" viewBox="-50 0 455 455.50067" width="455pt" xmlns="http://www.w3.org/2000/svg"><path d="m107.6875 135.597656-36.339844 57c-.019531.03125-.03125.0625-.046875.09375-.140625.226563-.269531.457032-.382812.699219-.019531.042969-.042969.082031-.0625.125-.121094.277344-.226563.5625-.3125.855469-.011719.039062-.019531.074218-.03125.109375-.070313.253906-.125.511719-.164063.769531-.011718.070312-.023437.140625-.035156.210938-.039062.296874-.058594.597656-.0625.902343v115.296875c.007812 8.464844 6.867188 15.324219 15.332031 15.332032h183.335938c8.464843-.007813 15.324219-6.867188 15.332031-15.332032v-115.292968c0-.304688-.023438-.605469-.0625-.902344-.011719-.070313-.023438-.140625-.035156-.214844-.039063-.257812-.09375-.511719-.164063-.765625-.011719-.035156-.019531-.074219-.027343-.109375-.089844-.292969-.195313-.578125-.316407-.855469-.019531-.042969-.042969-.085937-.0625-.128906-.113281-.238281-.242187-.472656-.378906-.699219-.019531-.027344-.03125-.058594-.050781-.089844l-36.339844-57c-2.804688-4.425781-7.683594-7.105468-12.925781-7.089843h-113.273438c-5.238281-.015625-10.121093 2.660156-12.925781 7.085937zm11.800781 7.527344c.242188-.386719.667969-.617188 1.121094-.617188h49.640625v46.859376h-80.234375zm78.699219 169.867188h-41.878906v-76.140626l41.882812 17.5625zm70.722656 0h-56.71875v-63.234376c0-2.820312-1.691406-5.363281-4.292968-6.453124l-55.882813-23.433594c-2.160156-.90625-4.632813-.667969-6.582031.628906-1.953125 1.296875-3.125 3.484375-3.125 5.828125v86.664063h-56.726563c-.734375 0-1.332031-.597657-1.332031-1.332032v-108.292968h186v108.292968c0 .734375-.597656 1.332032-1.332031 1.332032zm-33.898437-169.867188 29.476562 46.242188h-80.238281v-46.859376h49.636719c.457031 0 .878906.230469 1.125.617188zm0 0"/><path d="m350.542969 92.683594-172.386719-91.859375c-2.082031-1.113281-4.585938-1.097657-6.65625.039062l-167.613281 91.859375c-2.242188 1.226563-3.636719 3.582032-3.636719 6.136719v119.992187c.101562 98 58.164062 186.660157 147.957031 225.925782l23.265625 10.140625c1.773438.773437 3.792969.777343 5.570313.007812l26.214843-11.320312c91.472657-38.410157 150.984376-127.933594 150.992188-227.140625v-117.605469c0-2.585937-1.425781-4.960937-3.707031-6.175781zm-10.292969 123.78125c-.015625 93.589844-56.167969 178.035156-142.460938 214.253906l-.050781.019531-23.457031 10.132813-20.46875-8.921875c-84.695312-37.03125-139.464844-120.660157-139.5625-213.097657v-115.84375l160.660156-88.050781 165.339844 88.105469zm0 0"/></svg>