<svg height="384pt" viewBox="0 -32 384 384" width="384pt" xmlns="http://www.w3.org/2000/svg"><path d="m36.613281 146.304688-1.214843 24.421874c-.160157 3.289063 1.988281 6.246094 5.164062 7.105469l23.601562 6.390625 13.367188 20.472656c1.800781 2.757813 5.277344 3.890626 8.355469 2.714844l22.851562-8.703125 22.851563 8.703125c3.078125 1.171875 6.554687.042969 8.351562-2.714844l13.371094-20.472656 23.605469-6.390625c3.175781-.859375 5.324219-3.816406 5.160156-7.105469l-1.214844-24.421874 15.335938-19.042969c2.066406-2.5625 2.066406-6.21875 0-8.785157l-15.339844-19.042968 1.21875-24.421875c.160156-3.285157-1.988281-6.238281-5.164063-7.101563l-23.605468-6.386718-13.367188-20.476563c-1.800781-2.753906-5.277344-3.886719-8.355468-2.714844l-22.851563 8.707031-22.851563-8.707031c-3.074218-1.171875-6.554687-.042969-8.351562 2.714844l-13.371094 20.476563-23.601562 6.386718c-3.175782.859375-5.324219 3.816406-5.160156 7.101563l1.214843 24.421875-15.339843 19.042968c-2.066407 2.566407-2.066407 6.222657 0 8.785157zm12.578125-40.164063c1.074219-1.335937 1.625-3.023437 1.539063-4.738281l-1.070313-21.457032 20.734375-5.609374c1.660157-.449219 3.09375-1.492188 4.035157-2.929688l11.742187-17.988281 20.074219 7.648437c1.605468.613282 3.378906.613282 4.984375 0l20.074219-7.648437 11.746093 17.988281c.9375 1.4375 2.375 2.480469 4.03125 2.929688l20.734375 5.609374-1.070312 21.457032c-.082032 1.714844.464844 3.402344 1.542968 4.738281l13.476563 16.730469-13.476563 16.726562c-1.078124 1.339844-1.625 3.023438-1.542968 4.742188l1.070312 21.453125-20.734375 5.613281c-1.65625.449219-3.09375 1.492188-4.03125 2.929688l-11.746093 17.984374-20.074219-7.648437c-1.605469-.613281-3.378907-.613281-4.984375 0l-20.074219 7.644531-11.742187-17.984375c-.941407-1.4375-2.375-2.480469-4.035157-2.929687l-20.734375-5.613282 1.070313-21.453124c.085937-1.71875-.464844-3.40625-1.539063-4.742188l-13.476562-16.722656zm0 0"/><path d="m88.898438 119.050781c10.09375 0 18.273437-8.183593 18.273437-18.273437 0-10.09375-8.179687-18.273438-18.273437-18.273438-10.089844 0-18.269532 8.183594-18.269532 18.273438.011719 10.085937 8.183594 18.261718 18.269532 18.273437zm0-22.542969c2.359374 0 4.273437 1.910157 4.273437 4.269532s-1.914063 4.273437-4.273437 4.273437c-2.359376 0-4.269532-1.914062-4.269532-4.273437s1.914063-4.269532 4.269532-4.269532zm0 0"/><path d="m127.675781 127.59375c-10.089843 0-18.273437 8.179688-18.273437 18.269531 0 10.09375 8.179687 18.273438 18.273437 18.273438 10.089844 0 18.273438-8.179688 18.269531-18.273438-.011718-10.085937-8.183593-18.257812-18.269531-18.269531zm0 22.542969c-2.359375 0-4.273437-1.914063-4.273437-4.273438s1.914062-4.269531 4.273437-4.269531 4.269531 1.910156 4.269531 4.269531-1.910156 4.269531-4.269531 4.273438zm0 0"/><path d="m79.554688 167.621094c3.238281 2.109375 7.574218 1.199218 9.6875-2.039063l50.722656-77.773437c2.109375-3.238282 1.199218-7.578125-2.039063-9.6875-3.238281-2.113282-7.578125-1.199219-9.6875 2.039062l-50.722656 77.773438c-2.113281 3.238281-1.199219 7.574218 2.039063 9.6875zm0 0"/><path d="m27 285.738281h18.601562c3.410157 20.210938 20.910157 35.003907 41.402344 35.003907 20.496094 0 37.996094-14.792969 41.40625-35.003907h127.191406c3.410157 20.210938 20.910157 35.003907 41.402344 35.003907 20.496094 0 37.996094-14.792969 41.40625-35.003907h18.589844c14.90625-.015625 26.984375-12.09375 27-27v-89.566406c0-.058594-.007812-.117187-.007812-.175781 0-.125-.011719-.253906-.019532-.378906-.007812-.105469-.019531-.214844-.035156-.320313-.011719-.109375-.03125-.234375-.050781-.351563-.019531-.117187-.042969-.222656-.066407-.332031-.023437-.109375-.054687-.222656-.085937-.332031s-.0625-.21875-.101563-.328125c-.035156-.109375-.074218-.214844-.117187-.320313-.039063-.105468-.082031-.210937-.128906-.316406-.046875-.101562-.101563-.207031-.148438-.308594-.050781-.101562-.101562-.199218-.164062-.296874-.058594-.101563-.113281-.195313-.171875-.289063-.0625-.097656-.132813-.203125-.203125-.300781-.066407-.101563-.125-.175782-.191407-.257813-.078124-.101562-.160156-.203125-.242187-.292969-.039063-.046874-.074219-.089843-.113281-.132812l-51.511719-56.128906c-5.121094-5.5625-12.332031-8.734375-19.894531-8.742188h-93.265625v-72.566406c-.019531-14.90625-12.097657-26.9804688-27-27h-163.480469c-14.90625.015625-26.984375 12.09375-27 27v231.738281c.015625 14.90625 12.09375 26.984375 27 27zm60 21c-15.464844 0-28-12.535156-28-28 0-15.460937 12.535156-28 28-28s28 12.539063 28 28c-.019531 15.457031-12.542969 27.984375-28 28zm210 0c-15.464844 0-28-12.535156-28-28 0-15.460937 12.535156-28 28-28s28 12.539063 28 28c-.019531 15.457031-12.542969 27.984375-28 28zm73-48c-.007812 7.179688-5.824219 12.992188-13 13h-18.601562c-3.410157-20.207031-20.910157-35-41.402344-35-20.496094 0-37.996094 14.792969-41.40625 35h-38.109375v-95.566406h152.519531zm-59.253906-145.167969c3.640625.003907 7.113281 1.53125 9.578125 4.210938l40.75 44.398438h-143.601563v-48.609376zm-296.746094-86.570312c.007812-7.175781 5.824219-12.992188 13-13h163.480469c7.175781.007812 12.988281 5.824219 13 13v244.738281h-75.074219c-3.414062-20.207031-20.914062-35-41.40625-35s-37.992188 14.792969-41.40625 35h-18.59375c-7.175781-.007812-12.992188-5.820312-13-13zm0 0"/></svg>