<svg height="418pt" viewBox="-82 0 418 418.56618" width="418pt" xmlns="http://www.w3.org/2000/svg"><path d="m37.519531 404.5625c-10.496093.097656-19.964843-6.300781-23.785156-16.082031-1.492187-3.542969-5.5625-5.21875-9.117187-3.753907-3.554688 1.464844-5.265626 5.519532-3.828126 9.085938 5.226563 12.839844 16.761719 22.027344 30.445313 24.242188 13.683594 2.214843 27.53125-2.859376 36.539063-13.394532 7.578124 8.820313 18.628906 13.894532 30.253906 13.894532 11.628906 0 22.675781-5.074219 30.253906-13.894532 7.578125 8.820313 18.625 13.890625 30.25 13.886719 11.625 0 22.667969-5.078125 30.242188-13.894531 9.015624 10.523437 22.863281 15.59375 36.542968 13.371094 13.675782-2.21875 25.210938-11.40625 30.433594-24.242188 1.449219-3.582031-.277344-7.664062-3.863281-9.117188-3.582031-1.449218-7.664063.28125-9.113281 3.863282-3.769532 9.300781-12.613282 15.546875-22.636719 15.988281-10.023438.4375-19.382813-5.007813-23.949219-13.941406l58.671875-166.246094c1.066406-3.019531-.050781-6.375-2.714844-8.152344l-13.882812-9.253906v-113.921875c0-3.867188-3.132813-7-7-7h-33v-39c0-3.867188-3.132813-7-7-7h-28v-33c0-3.867188-3.132813-7-7-7h-56c-3.867188 0-7 3.132812-7 7v33h-28c-3.867188 0-7 3.132812-7 7v39h-33c-3.867188 0-7 3.132812-7 7v113.921875l-13.882813 9.257813c-2.664062 1.777343-3.785156 5.136718-2.71875 8.15625l58.6875 166.273437c-4.320312 8.628906-13.179687 14.042969-22.828125 13.953125zm144.140625-14.890625c-.078125.226563-.148437.453125-.199218.683594-4.394532 8.828125-13.46875 14.347656-23.328126 14.191406-9.859374-.15625-18.753906-5.960937-22.867187-14.921875v-234.542969l104.585937 69.722657zm-74.398437-375.671875h42v26h-42zm-35 40h112v32h-112zm-40 74h51v13h-51zm0 27h58c3.863281 0 7-3.132812 7-7v-27c0-3.867188-3.136719-7-7-7h-58v-14h192v97.585938l-92.074219-61.382813-.03125-.019531-.011719-.007813-.019531-.011719c-.257812-.167968-.527344-.320312-.808594-.453124-.050781-.027344-.105468-.054688-.160156-.078126-.28125-.128906-.574219-.242187-.871094-.332031-.027344-.007812-.054687-.015625-.078125-.019531-.265625-.078125-.539062-.136719-.8125-.179688-.078125-.015624-.152343-.027343-.226562-.035156-.292969-.042968-.589844-.0625-.886719-.066406h-.042969c-.296875.003906-.59375.023438-.886719.066406-.074218.007813-.148437.019532-.226562.035156-.273438.042969-.542969.101563-.8125.179688-.023438.003906-.050781.011719-.078125.019531-.296875.089844-.589844.203125-.871094.332031l-.160156.078126c-.28125.132812-.550781.285156-.808594.453124l-.015625.011719-.015625.007813-.03125.019531-92.070312 61.382813zm89 .078125v234.613281c-4.144531 8.964844-13.078125 14.746094-22.953125 14.859375-9.878906.113281-18.9375-5.464843-23.285156-14.335937-.046876-.183594-.101563-.363282-.164063-.542969l-58.183594-164.867187zm0 0"/></svg>