<svg height="487pt" viewBox="0 -11 487.09853 487" width="487pt" xmlns="http://www.w3.org/2000/svg"><path d="m156.863281 173.523438c6.699219 6.703124 17.566407 6.703124 24.265625 0 6.703125-6.699219 6.703125-17.566407 0-24.269532-6.699218-6.699218-17.566406-6.699218-24.265625.003906-3.246093 3.203126-5.074219 7.570313-5.074219 12.132813 0 4.558594 1.828126 8.929687 5.074219 12.132813zm9.898438-14.367188c1.234375-1.234375 3.234375-1.234375 4.46875 0s1.234375 3.234375 0 4.46875c-1.238281 1.207031-3.21875 1.195312-4.441407-.027344-1.222656-1.222656-1.234374-3.203125-.027343-4.445312zm0 0"/><path d="m433.859375 316.070312-16.25-116.589843-.015625-.121094c-1.773438-11.589844-11.765625-20.136719-23.488281-20.085937h-99.1875l-8.332031-59.789063-.019532-.117187c-2.007812-13.164063-13.355468-22.871094-26.671875-22.8125h-24.792969v-23.40625c0-40.371094-32.726562-73.0976568-73.097656-73.0976568-40.375 0-73.101562 32.7265628-73.101562 73.0976568v23.40625h-24.796875c-13.316407-.054688-24.664063 9.652343-26.671875 22.816406l-.019532.117187-37.3476558 267.949219c-.0429687.320312-.0664062.644531-.0664062.964844.0273438 25.945312 21.054688 46.972656 47 47h129.308594c4.675781 17.847656 20.792968 30.300781 39.242187 30.324218h192.898438c22.382812-.027343 40.523437-18.164062 40.550781-40.550781 0-.15625-.023438-.308593-.03125-.464843.539062-.363282 1.058594-.761719 1.554688-1.183594l30.652343-26.472656c7.144531-6.183594 7.9375-16.988282 1.765625-24.152344zm-330.960937-242.921874c0-32.640626 26.460937-59.097657 59.097656-59.097657 32.640625 0 59.101562 26.457031 59.101562 59.097657v23.40625h-118.199218zm-88.894532 315.71875 37.265625-267.382813c.992188-6.3125 6.445313-10.957031 12.835938-10.929687h24.792969v36.632812c0 3.863281 3.132812 7 7 7 3.867187 0 7-3.136719 7-7v-36.632812h112.199218l-17.246094 15.578124c-.175781-.015624-.355468-.03125-.535156-.03125l-42.886718-.214843c-1.871094-.011719-3.664063.726562-4.988282 2.050781l-53.914062 53.914062c-6.691406 6.707032-6.691406 17.566407 0 24.269532l28.738281 28.738281c6.699219 6.703125 17.566406 6.703125 24.265625 0l53.917969-53.917969c1.324219-1.320312 2.0625-3.113281 2.050781-4.984375l-.183594-36.792969 16.785156-15.164062v23.1875c0 3.863281 3.136719 7 7 7 3.867188 0 7-3.136719 7-7v-36.632812h24.792969c6.390625-.027344 11.84375 4.617187 12.835938 10.929687l8.050781 57.785156h-50.886719c-11.722656-.046875-21.714843 8.5-23.488281 20.089844l-.015625.117187-30.933594 221.925782h-128.457031c-18.035156-.019532-32.722656-14.5-32.996094-32.535156zm176.480469-215.757813-51.851563 51.851563c-1.234374 1.234374-3.234374 1.234374-4.46875 0l-28.738281-28.738282c-1.234375-1.234375-1.234375-3.234375 0-4.46875l51.851563-51.851562 33.042968.164062zm217.964844 278.617187h-192.898438c-14.476562-.015624-26.28125-11.617187-26.546875-26.089843l31.246094-224.15625c.75-4.742188 4.847656-8.226563 9.648438-8.207031h164.207031c4.800781-.019532 8.898437 3.464843 9.648437 8.207031l15.457032 110.878906-29.5625-2.011719-21.109376-25.460937c3.894532-8.277344 5.90625-17.3125 5.898438-26.460938v-32.09375c0-3.867187-3.132812-7-7-7-3.863281 0-7 3.132813-7 7v32.089844c0 26.753906-21.6875 48.441406-48.4375 48.441406-26.753906 0-48.441406-21.6875-48.441406-48.441406v-32.089844c0-3.867187-3.132813-7-7-7-3.867188 0-7 3.132813-7 7v32.089844c-.019532 26.523437 16.726562 50.160156 41.753906 58.9375 25.03125 8.773437 52.871094.769531 69.417969-19.960937l17.480469 21.082031-3.183594 40.652343c-.144532 1.863282.460937 3.707032 1.683594 5.121094l49.660156 57.507813c2.246094 2.609375 5.226562 4.472656 8.554687 5.351562-1.03125 13.863281-12.570312 24.59375-26.476562 24.613281zm64.648437-67.402343c-.058594.828125-.445312 1.597656-1.074218 2.136719l-30.648438 26.472656c-1.304688 1.128906-3.28125.984375-4.40625-.324219l-47.753906-55.292969 2.5625-32.789062 32.816406 2.234375 47.757812 55.292969c.539063.625.808594 1.441406.746094 2.269531zm0 0"/><path d="m412.648438 330.160156c-9.429688-.691406-17.636719 6.398438-18.328126 15.828125-.691406 9.433594 6.398438 17.640625 15.828126 18.332031.429687.03125.855468.046876 1.277343.046876 9.1875-.046876 16.703125-7.332032 17.03125-16.515626.328125-9.179687-6.648437-16.984374-15.808593-17.6875zm.792968 19.445313c-1.304687 1.125-3.277344.980469-4.40625-.324219-1.125-1.304688-.980468-3.277344.324219-4.40625s3.277344-.984375 4.40625.320312c1.125 1.308594.980469 3.28125-.328125 4.410157zm0 0"/></svg>