<svg height="465pt" viewBox="-8 0 465 465.676" width="465pt" xmlns="http://www.w3.org/2000/svg"><path d="m417.945312 199.429688c0-.039063-.007812-.078126-.015624-.117188-1.769532-11.59375-11.761719-20.136719-23.488282-20.089844h-99.183594l-8.335937-59.785156c0-.039062-.011719-.082031-.015625-.121094-2.011719-13.160156-13.359375-22.867187-26.675781-22.8125h-24.792969v-23.402344c0-40.375-32.726562-73.101562-73.097656-73.101562-40.375 0-73.101563 32.726562-73.101563 73.101562v23.40625h-24.792969c-13.316406-.058593-24.664062 9.648438-26.675781 22.8125-.003906.039063-.011719.078126-.015625.117188l-37.347656 267.949219c-.046875.320312-.070312.644531-.066406.96875.027344 25.945312 21.054687 46.96875 47 47h129.308594c4.675781 17.84375 20.789062 30.296875 39.238281 30.320312h192.898437c22.386719-.023437 40.527344-18.164062 40.554688-40.546875 0-.324218-.023438-.648437-.070313-.96875zm-314.707031-126.328126c0-32.640624 26.460938-59.101562 59.101563-59.101562 32.636718 0 59.097656 26.460938 59.097656 59.101562v23.40625h-118.199219zm-88.898437 315.714844 37.269531-267.378906c.988281-6.316406 6.441406-10.960938 12.835937-10.933594h24.792969v36.632813c0 3.867187 3.132813 7 7 7 3.867188 0 7-3.132813 7-7v-36.628907h118.199219v36.628907c0 3.867187 3.132812 7 7 7s7-3.132813 7-7v-36.628907h24.792969c6.390625-.03125 11.84375 4.613282 12.835937 10.929688l8.054688 57.785156h-50.882813c-11.726562-.050781-21.71875 8.496094-23.488281 20.085938-.003906.039062-.011719.082031-.015625.121094l-30.9375 221.925781h-128.457031c-18.039063-.019531-32.726563-14.503907-33-32.539063zm394.445312 62.859375h-192.898437c-14.480469-.015625-26.28125-11.613281-26.546875-26.089843l31.242187-224.15625c.75-4.742188 4.847657-8.226563 9.648438-8.207032h164.207031c4.800781-.019531 8.898438 3.464844 9.648438 8.207032l31.253906 224.15625c-.269532 14.476562-12.070313 26.074218-26.550782 26.089843zm0 0"/><path d="m367.777344 219.28125c-3.867188 0-7 3.132812-7 7v32.09375c0 26.75-21.6875 48.4375-48.4375 48.4375-26.753906 0-48.441406-21.6875-48.441406-48.4375v-32.09375c0-3.867188-3.132813-7-7-7-3.867188 0-7 3.132812-7 7v32.09375c0 34.484375 27.953124 62.4375 62.441406 62.4375 34.484375 0 62.4375-27.953125 62.4375-62.4375v-32.09375c0-3.867188-3.132813-7-7-7zm0 0"/></svg>