<svg height="478pt" viewBox="-7 0 478 478.138" width="478pt" xmlns="http://www.w3.org/2000/svg"><path d="m235.675781 233.707031h-58.8125c-3.867187 0-7 3.136719-7 7 0 3.867188 3.132813 7 7 7h58.8125c3.863281 0 7-3.132812 7-7 0-3.863281-3.136719-7-7-7zm0 0"/><path d="m235.675781 262.164062h-58.8125c-3.867187 0-7 3.136719-7 7 0 3.867188 3.132813 7 7 7h58.8125c3.863281 0 7-3.132812 7-7 0-3.863281-3.136719-7-7-7zm0 0"/><path d="m207.21875 290.621094h-30.355469c-3.867187 0-7 3.136718-7 7 0 3.867187 3.132813 7 7 7h30.355469c3.863281 0 7-3.132813 7-7 0-3.863282-3.136719-7-7-7zm0 0"/><path d="m77.460938 379.925781c2.210937 0 4-1.789062 4-4 0-2.207031-1.789063-4-4-4h-26.527344c-2.210938 0-4 1.792969-4 4 0 2.210938 1.789062 4 4 4h7.589844c2.828124.003907 5.402343 1.621094 6.632812 4.167969h-14.222656c-2.210938 0-4 1.789062-4 4 0 2.207031 1.789062 4 4 4h13.199218c-1.398437 1.648438-3.453124 2.597656-5.613281 2.597656h-7.585937c-1.640625 0-3.113282 1-3.71875 2.523438-.605469 1.519531-.21875 3.257812.96875 4.382812l18.976562 17.929688c1.609375 1.476562 4.109375 1.390625 5.609375-.199219 1.503907-1.589844 1.449219-4.089844-.117187-5.613281l-11.84375-11.195313c5.746094-.875 10.507812-4.90625 12.320312-10.425781h4.332032c2.210937 0 4-1.792969 4-4 0-2.210938-1.789063-4-4-4h-3.898438c-.3125-1.457031-.832031-2.863281-1.550781-4.167969zm0 0"/><path d="m124.414062 379.925781c2.210938 0 4-1.789062 4-4 0-2.207031-1.789062-4-4-4h-26.527343c-2.210938 0-4 1.792969-4 4 0 2.210938 1.789062 4 4 4h7.589843c2.828126.003907 5.402344 1.621094 6.636719 4.167969h-14.226562c-2.210938 0-4 1.789062-4 4 0 2.207031 1.789062 4 4 4h13.199219c-1.398438 1.648438-3.449219 2.597656-5.613282 2.597656h-7.589844c-1.640624 0-3.113281 1-3.71875 2.523438-.605468 1.519531-.21875 3.257812.972657 4.382812l18.972656 17.929688c1.609375 1.480468 4.109375 1.390625 5.613281-.199219 1.5-1.589844 1.449219-4.089844-.121094-5.613281l-11.832031-11.195313c5.742188-.875 10.503907-4.90625 12.320313-10.425781h4.332031c2.207031 0 4-1.792969 4-4 0-2.210938-1.792969-4-4-4h-3.902344c-.308593-1.457031-.832031-2.863281-1.546875-4.167969zm0 0"/><path d="m329.367188 353.097656h-37.128907c-3.867187 0-7 3.132813-7 7 0 3.867188 3.132813 7 7 7h37.128907c3.867187 0 7-3.132812 7-7 0-3.867187-3.132813-7-7-7zm0 0"/><path d="m463.816406 95.351562c-.164062-.613281-.414062-1.199218-.742187-1.746093-.03125-.054688-.0625-.109375-.097657-.160157-.167968-.265624-.351562-.519531-.554687-.761718-.027344-.03125-.058594-.0625-.085937-.09375-.199219-.226563-.410157-.441406-.636719-.640625-.023438-.019531-.039063-.042969-.066407-.066407l-44.042968-37.910156v-16.523437c-.023438-20.675781-16.777344-37.4257815-37.449219-37.449219h-138.679687c-20.671876.0234375-37.425782 16.773438-37.449219 37.449219v16.28125l-45.847657 38.074219c-1.597656 1.328124-2.519531 3.300781-2.515624 5.382812 0 .09375-.015626.1875-.015626.285156v37.660156c.003907 1.132813.277344 2.246094.800782 3.25 8.960937 17.265626 29 25.632813 47.578125 19.867188v34.261719h-12.648438c-27.800781.03125-50.332031 22.5625-50.363281 50.363281v87.722656h-68.886719c-27.800781.03125-50.332031 22.5625-50.363281 50.363282v55.511718l-14.691406.023438c-3.863282.003906-6.9882815 3.136718-6.9882815 7v5.960937c.015625 15.832031 12.8476565 28.664063 28.6796875 28.679688h102.265625c.085937 0 .171875 0 .257813-.003907.152343 0 .308593.003907.464843.003907 12.839844-.011719 23.246094-10.417969 23.261719-23.257813v-55h43.699219c6.125 13.480469 19.382812 22.308594 34.183593 22.75 14.800782.445313 28.566407-7.566406 35.484376-20.65625h111.773437c20.671875-.023437 37.425781-16.777344 37.449219-37.449218v-205.726563c18.121094 4.664063 37.066406-3.800781 45.679687-20.414063.523438-1.003906.800781-2.117187.800781-3.25v-37.945312c0-.554688-.070312-1.109375-.203124-1.652344-.019532-.0625-.03125-.121094-.050782-.183594zm-222.355468-81.351562h138.679687c12.945313.015625 23.433594 10.503906 23.449219 23.449219v12.566406h-185.578125v-12.566406c.015625-12.945313 10.503906-23.433594 23.449219-23.449219zm-27.921876 50.015625h192.640626c.960937.777344 2.113281 1.289063 3.335937 1.472656l28.691406 24.703125h-256.1875zm-184.789062 400.125c-7.707031-.007813-14.097656-5.964844-14.644531-13.652344l11.371093-.019531c2.054688 1.089844 4.519532 1.085938 6.570313-.011719l76.429687-.121093v4.546874c-.003906 3.183594.652344 6.339844 1.925782 9.257813zm112.25-9.257813c-.054688 5.078126-4.183594 9.164063-9.261719 9.164063s-9.207031-4.085937-9.261719-9.164063v-11.5625c0-3.863281-3.132812-7-7-7h-.007812l-79.714844.132813v-55.492187c.019532-20.074219 16.289063-36.34375 36.363282-36.363282h75.464843c-4.277343 5.828125-6.582031 12.871094-6.578125 20.097656zm14-69v-21.183593c0-11.101563 9-20.101563 20.101562-20.101563 11.097657 0 20.097657 9 20.097657 20.101563v19.105469c0 .703124.019531 1.390624.058593 2.082031zm103.894531-159.269531v157.191407c0 12.230468-8.902343 22.644531-20.984375 24.542968-12.082031 1.902344-23.75-5.273437-27.503906-16.914062-.074219-.34375-.175781-.679688-.300781-1.007813-.597657-2.15625-.898438-4.382812-.898438-6.621093v-19.105469c-.023437-17.300781-12.984375-31.851563-30.164062-33.867188-.578125-.152343-1.171875-.234375-1.769531-.234375h-22.269532v-87.722656c.019532-20.074219 16.285156-36.34375 36.359375-36.363281h74.105469c-4.277344 5.828125-6.582031 12.871093-6.574219 20.101562zm54.199219 0v29.859375h-40.199219v-29.859375c0-11.101562 8.996094-20.097656 20.097657-20.097656 11.101562 0 20.101562 8.996094 20.101562 20.097656zm67.046875 161.359375h-107.472656c.148437-1.382812.226562-2.773437.226562-4.160156v-52.082031h130.699219v32.792969c-.015625 12.945312-10.507812 23.4375-23.453125 23.449218zm23.449219-70.242187h-130.699219v-47.257813h47.199219c3.863281 0 7-3.136718 7-7v-36.859375c-.023438-18.824219-15.277344-34.078125-34.101563-34.097656h-74.976562v-41.945313c1.238281-1.042968 2.410156-2.160156 3.507812-3.34375 7.605469 8.179688 18.269531 12.828126 29.441407 12.828126 11.167968 0 21.832031-4.648438 29.4375-12.828126 7.585937 8.203126 18.265624 12.859376 29.441406 12.835938 11.175781.023438 21.855468-4.632812 29.445312-12.835938 7.601563 8.1875 18.269532 12.835938 29.441406 12.835938 11.171876 0 21.839844-4.648438 29.445313-12.835938 1.652344 1.785157 3.464844 3.414063 5.417969 4.867188zm24.03125-171.660157c-9.820313.09375-18.835938-5.40625-23.246094-14.179687-1.183594-2.257813-3.5-3.691406-6.046875-3.746094-2.550781-.054687-4.925781 1.277344-6.207031 3.476563-.0625.101562-.117188.207031-.171875.3125-4.492188 8.679687-13.449219 14.128906-23.222657 14.128906-9.769531 0-18.726562-5.449219-23.21875-14.128906-.015624-.035156-.042968-.082032-.058593-.113282-1.222657-2.265624-3.589844-3.679687-6.167969-3.679687h-.058594c-2.59375.027344-4.964844 1.484375-6.160156 3.789063-4.492188 8.679687-13.449219 14.132812-23.21875 14.132812-9.773438 0-18.730469-5.453125-23.222656-14.132812-.066406-.128907-.144532-.269532-.21875-.394532-1.308594-2.175781-3.6875-3.476562-6.226563-3.394531-2.535156.078125-4.832031 1.527344-5.996093 3.78125-4.488282 8.679687-13.445313 14.132813-23.21875 14.132813-9.777344 0-18.734376-5.453126-23.222657-14.132813-1.1875-2.292969-3.535156-3.742187-6.117187-3.78125h-.097656c-2.546876.003906-4.886719 1.382813-6.121094 3.605469-.035156.0625-.066406.121094-.101563.183594-1.667969 3.253906-3.996093 6.128906-6.832031 8.4375-1.054688.414062-1.996094 1.078124-2.738281 1.933593-4.117188 2.488281-8.839844 3.789063-13.648438 3.761719-9.226562.09375-17.792969-4.761719-22.445312-12.730469v-29.144531h280.433593v29.140625c-4.648437 7.972656-13.21875 12.839844-22.449218 12.742187zm0 0"/></svg>