<svg height="422pt" viewBox="-25 0 422 422.41594" width="422pt" xmlns="http://www.w3.org/2000/svg"><path d="m349.835938 256.894531c-9.398438-9.46875-21.140626-16.265625-34.03125-19.699219l-20.246094-114.289062c-2.085938-13.445312-13.691406-23.34375-27.296875-23.285156h-25.820313v-24.386719c0-41.550781-33.683594-75.234375-75.234375-75.234375s-75.234375 33.683594-75.234375 75.234375v24.386719h-25.816406c-13.605469-.054688-25.210938 9.84375-27.300781 23.285156l-38.539063 217.582031c-.074218.402344-.109375.8125-.109375 1.222657.03125 26.660156 21.636719 48.261718 48.296875 48.289062h214.230469l28.359375 30.207031c1.320312 1.410157 3.167969 2.207031 5.101562 2.207031 1.933594 0 3.78125-.796874 5.105469-2.207031l49.679688-52.917969c7.648437-7.976562 13.59375-17.421874 17.472656-27.765624 3.703125-9.980469 5.261719-20.632813 4.578125-31.257813-1.273438-19.363281-9.511719-37.609375-23.195312-51.371094zm-243.863282-181.660156c0-33.820313 27.417969-61.234375 61.234375-61.234375 33.820313 0 61.234375 27.414062 61.234375 61.234375v24.386719h-122.46875zm-57.46875 300.765625c-18.699218-.019531-33.941406-15.003906-34.285156-33.699219l38.4375-217.011719c.007812-.042968.015625-.089843.023438-.132812 1.015624-6.652344 6.75-11.558594 13.480468-11.53125h25.816406v38.035156c0 3.867188 3.136719 7 7 7 3.867188 0 7-3.132812 7-7v-38.039062h122.464844v38.035156c0 3.867188 3.132813 7 7 7 3.867188 0 7-3.132812 7-7v-38.035156h25.820313c6.726562-.027344 12.460937 4.878906 13.480469 11.527344.003906.046874.015624.09375.019531.136718l19.402343 109.523438c-1.648437-.109375-3.300781-.179688-4.96875-.179688-20.140624-.058594-39.460937 7.960938-53.640624 22.265625-13.683594 13.761719-21.921876 32.007813-23.199219 51.371094-.679688 10.625.878906 21.273437 4.578125 31.257813 3.882812 10.34375 9.828125 19.789062 17.472656 27.761718l8.183594 8.714844zm306.800782-41.277344c-3.238282 8.566406-8.179688 16.386719-14.53125 22.980469l-44.578126 47.484375-44.578124-47.480469c-6.351563-6.597656-11.292969-14.414062-14.527344-22.980469-3.03125-8.148437-4.3125-16.847656-3.761719-25.527343 1.046875-15.988281 7.847656-31.054688 19.144531-42.421875 11.585938-11.617188 27.316406-18.144532 43.722656-18.144532s32.136719 6.527344 43.722657 18.144532c11.296875 11.367187 18.097656 26.433594 19.144531 42.421875.550781 8.679687-.730469 17.375-3.757812 25.523437zm0 0"/><path d="m296.195312 270.351562c-20.257812 0-36.738281 16.839844-36.738281 37.539063s16.480469 37.539063 36.738281 37.539063c20.257813 0 36.738282-16.839844 36.738282-37.539063 0-20.695313-16.480469-37.539063-36.738282-37.539063zm0 61.078126c-12.539062 0-22.738281-10.558594-22.738281-23.539063 0-12.976563 10.199219-23.539063 22.738281-23.539063 12.539063 0 22.738282 10.5625 22.738282 23.539063 0 12.980469-10.199219 23.539063-22.738282 23.539063zm0 0"/></svg>