<svg height="384pt" viewBox="0 -32 384 384" width="384pt" xmlns="http://www.w3.org/2000/svg"><path d="m27 285.738281h18.601562c3.410157 20.210938 20.910157 35.003907 41.402344 35.003907 20.496094 0 37.996094-14.792969 41.40625-35.003907h127.191406c3.410157 20.210938 20.910157 35.003907 41.402344 35.003907 20.496094 0 37.996094-14.792969 41.40625-35.003907h18.589844c14.90625-.015625 26.984375-12.09375 27-27v-89.566406c0-.058594-.007812-.117187-.007812-.175781 0-.125-.011719-.253906-.019532-.378906-.007812-.105469-.019531-.214844-.035156-.320313-.011719-.109375-.03125-.234375-.050781-.351563-.019531-.117187-.042969-.222656-.066407-.332031-.023437-.109375-.054687-.222656-.085937-.332031s-.0625-.21875-.101563-.328125c-.035156-.109375-.074218-.214844-.117187-.320313-.039063-.105468-.082031-.210937-.128906-.316406-.046875-.101562-.101563-.207031-.148438-.308594-.050781-.101562-.101562-.199218-.164062-.296874-.058594-.101563-.113281-.195313-.171875-.289063-.0625-.097656-.132813-.203125-.203125-.300781-.066407-.101563-.125-.175782-.191407-.257813-.078124-.101562-.160156-.203125-.242187-.292969-.039063-.046874-.074219-.089843-.113281-.132812l-51.511719-56.128906c-5.121094-5.5625-12.332031-8.734375-19.894531-8.742188h-93.265625v-72.566406c-.019531-14.90625-12.097657-26.9804688-27-27h-163.480469c-14.90625.015625-26.984375 12.09375-27 27v231.738281c.015625 14.90625 12.09375 26.984375 27 27zm60 21c-15.464844 0-28-12.535156-28-28 0-15.460937 12.535156-28 28-28s28 12.539063 28 28c-.019531 15.457031-12.542969 27.984375-28 28zm210 0c-15.464844 0-28-12.535156-28-28 0-15.460937 12.535156-28 28-28s28 12.539063 28 28c-.019531 15.457031-12.542969 27.984375-28 28zm73-48c-.007812 7.179688-5.824219 12.992188-13 13h-18.601562c-3.410157-20.207031-20.910157-35-41.402344-35-20.496094 0-37.996094 14.792969-41.40625 35h-38.109375v-95.566406h152.519531zm-59.253906-145.167969c3.640625.003907 7.113281 1.53125 9.578125 4.210938l40.75 44.398438h-143.601563v-48.609376zm-296.746094-86.570312c.007812-7.175781 5.824219-12.992188 13-13h163.480469c7.175781.007812 12.988281 5.824219 13 13v244.738281h-75.074219c-3.414062-20.207031-20.914062-35-41.40625-35s-37.992188 14.792969-41.40625 35h-18.59375c-7.175781-.007812-12.992188-5.820312-13-13zm0 0"/><path d="m108.738281 158.363281c17.917969 0 32.492188-14.882812 32.492188-33.175781s-14.574219-33.175781-32.492188-33.175781c-17.914062 0-32.492187 14.882812-32.492187 33.175781s14.578125 33.175781 32.492187 33.175781zm0-52.351562c10.199219 0 18.492188 8.601562 18.492188 19.175781 0 10.578125-8.292969 19.175781-18.492188 19.175781-10.195312 0-18.492187-8.601562-18.492187-19.175781s8.296875-19.175781 18.492187-19.175781zm0 0"/><path d="m61.050781 176.78125 42.585938 45.359375c1.324219 1.410156 3.167969 2.210937 5.101562 2.210937 1.933594 0 3.78125-.800781 5.105469-2.210937l42.582031-45.359375c6.648438-6.933594 11.816407-15.144531 15.1875-24.136719 3.222657-8.6875 4.578125-17.957031 3.984375-27.203125-1.109375-16.835937-8.273437-32.703125-20.171875-44.667968-12.371093-12.40625-29.167969-19.378907-46.6875-19.378907s-34.316406 6.972657-46.683593 19.378907c-11.898438 11.964843-19.066407 27.832031-20.171876 44.671874-.597656 9.246094.761719 18.511719 3.980469 27.199219 3.371094 8.992188 8.539063 17.207031 15.1875 24.136719zm-5.199219-50.410156c.882813-13.464844 6.609376-26.152344 16.121094-35.722656 9.742188-9.769532 22.96875-15.261719 36.765625-15.261719s27.027344 5.492187 36.769531 15.261719c9.511719 9.570312 15.238282 22.257812 16.121094 35.722656.460938 7.296875-.617187 14.613281-3.167968 21.46875-2.726563 7.214844-6.890626 13.804687-12.242188 19.359375l-37.480469 39.921875-37.480469-39.921875c-5.351562-5.554688-9.515624-12.140625-12.242187-19.355469-2.546875-6.855469-3.628906-14.171875-3.164063-21.472656zm0 0"/></svg>