<svg height="426pt" viewBox="-6 0 426 426.82255" width="426pt" xmlns="http://www.w3.org/2000/svg"><path d="m216.96875 42.316406 23.441406-20.097656v82.785156c0 3.863282 3.136719 7 7 7 3.867188 0 7-3.136718 7-7v-82.785156l23.445313 20.101562c2.933593 2.515626 7.355469 2.175782 9.871093-.761718 2.515626-2.933594 2.175782-7.351563-.757812-9.871094l-35-30c-.011719-.007812-.027344-.015625-.035156-.023438-.292969-.246093-.601563-.464843-.929688-.660156l-.128906-.078125c-.316406-.179687-.648438-.335937-.988281-.464843l-.164063-.058594c-.335937-.121094-.6875-.210938-1.039062-.277344-.054688-.011719-.109375-.015625-.164063-.023438-.363281-.0624995-.730469-.09765575-1.097656-.101562h-.015625c-.367188.00390625-.738281.0390625-1.101562.101562-.050782.007813-.105469.011719-.160157.023438-.355469.066406-.703125.15625-1.042969.277344-.054687.019531-.105468.039062-.160156.058594-.339844.128906-.671875.285156-.988281.464843l-.128906.078125c-.328125.195313-.636719.414063-.929688.660156-.011719.007813-.023437.015626-.035156.023438l-35 30c-2.933594 2.519531-3.273437 6.9375-.757813 9.871094 2.515626 2.9375 6.933594 3.277344 9.871094.761718zm0 0"/><path d="m407.410156 133.679688h-312l-3.277344-24.578126c-.007812-.054687-.015624-.113281-.027343-.167968-3.191407-20.703125-21.050781-35.957032-42-35.871094h-42.695313c-3.863281 0-7 3.132812-7 7 0 3.863281 3.136719 7 7 7h42.699219c14.023437-.058594 25.984375 10.128906 28.160156 23.980469l33.792969 253.425781c.007812.054688.015625.109375.023438.167969 3.195312 20.703125 21.054687 35.957031 42 35.875h5.875c2.578124 15.191406 15.742187 26.3125 31.15625 26.3125 15.410156 0 28.574218-11.121094 31.152343-26.3125h58.472657c2.707031 15.863281 16.898437 27.160156 32.964843 26.238281 16.070313-.917969 28.878907-13.765625 29.757813-29.832031.878906-16.070313-10.457032-30.234375-26.328125-32.902344-15.871094-2.664063-31.210938 7.019531-35.632813 22.496094h-60c-3.871094-13.574219-16.273437-22.9375-30.386718-22.9375-14.113282 0-26.519532 9.363281-30.390626 22.9375h-6.636718c-14.023438.054687-25.984375-10.132813-28.160156-23.984375l-10.183594-76.382813h218.402344c18.113281-.007812 34.238281-11.484375 40.179687-28.597656l39.699219-114.578125c.742187-2.140625.402344-4.507812-.914063-6.351562-1.3125-1.84375-3.4375-2.941407-5.703125-2.9375zm-95.519531 243.90625c9.726563 0 17.609375 7.882812 17.609375 17.609374 0 9.726563-7.882812 17.613282-17.609375 17.613282s-17.613281-7.886719-17.613281-17.613282c.011718-9.722656 7.890625-17.597656 17.613281-17.609374zm-120.78125 0c9.726563 0 17.613281 7.882812 17.613281 17.609374 0 9.726563-7.882812 17.613282-17.609375 17.613282-9.726562 0-17.613281-7.886719-17.613281-17.613282.011719-9.722656 7.890625-17.597656 17.609375-17.609374zm169.988281-124.621094c-3.984375 11.480468-14.796875 19.179687-26.949218 19.183594h-220.277344l-16.597656-124.46875h300.300781zm0 0"/></svg>