<svg height="446pt" viewBox="0 -18 446.33203 446" width="446pt" xmlns="http://www.w3.org/2000/svg"><path d="m347 .167969c-48.089844-.007813-89.273438 34.449219-97.753906 81.785156h-168.527344c-7.234375-.011719-13.972656 3.683594-17.851562 9.789063l-61.667969 96.75-.019531.027343-.082032.132813c-.011718.019531-.023437.042968-.035156.0625-.152344.246094-.289062.5-.414062.761718-.007813.027344-.023438.050782-.035157.078126-.128906.285156-.238281.582031-.328125.882812-.003906.023438-.011718.046875-.015625.074219-.074219.261719-.132812.53125-.175781.804687-.0078125.0625-.0195312.128906-.03125.191406-.0390625.296876-.05859375.597657-.0625.898438v196.011719c.0195312 11.679687 9.488281 21.144531 21.171875 21.152343h311.65625c11.683594-.007812 21.15625-9.476562 21.171875-21.160156v-189.855468c53.363281-3.761719 94.15625-49.113282 92.269531-102.574219-1.886719-53.460938-45.773437-95.820313-99.269531-95.8125zm0 184.636719c-.515625 0-1.03125-.007813-1.554688-.019532-14.53125-.234375-28.757812-4.203125-41.3125-11.519531 1.6875-22.417969 20.359376-39.75 42.839844-39.765625 22.480469-.015625 41.175782 17.296875 42.890625 39.710938-13.003906 7.605468-27.800781 11.605468-42.863281 11.59375zm-49.890625.601562h-113.109375v-89.453125h63.761719c-.042969 1.175781-.082031 2.347656-.082031 3.53125-.0625 26.0625 10.179687 51.09375 28.5 69.632813 6.21875 6.339843 13.257812 11.820312 20.929687 16.292968zm-222.445313-86.128906c1.316407-2.070313 3.601563-3.324219 6.054688-3.324219h89.28125v89.457031h-150.234375zm142.839844 296.292968h-81.007812v-141.699218l81.007812 33.964844zm115.324219 0h-101.324219v-112.386718c0-2.820313-1.691406-5.367188-4.292968-6.457032l-95.007813-39.832031c-2.160156-.90625-4.632813-.671875-6.582031.625-1.953125 1.296875-3.125 3.484375-3.125 5.828125v152.222656h-101.324219c-3.957031 0-7.164063-3.203124-7.171875-7.160156v-189h326v189.007813c-.007812 3.953125-3.214844 7.152343-7.171875 7.152343zm69.800781-231.476562c-5.804687-26.070312-28.941406-44.613281-55.652344-44.601562-26.710937.011718-49.828124 18.574218-55.609374 44.652343-1.789063-1.539062-3.53125-3.144531-5.203126-4.847656-15.730468-15.925781-24.53125-37.429687-24.476562-59.816406 0-2.675781.125-5.320313.371094-7.890625 3.523437-38.28125 32.207031-69.476563 70.054687-76.191406 37.847657-6.710938 75.511719 12.714843 91.984375 47.445312s7.683594 76.191406-21.464844 101.25zm0 0"/><path d="m347 33.996094c-20.433594 0-37 16.566406-37 37s16.566406 37 37 37 37-16.566406 37-37c-.023438-20.425782-16.574219-36.976563-37-37zm0 60c-12.703125 0-23-10.296875-23-23s10.296875-23 23-23 23 10.296875 23 23c-.015625 12.695312-10.304688 22.984375-23 23zm0 0"/></svg>