<svg height="486pt" viewBox="-32 0 486 486.03473" width="486pt" xmlns="http://www.w3.org/2000/svg"><path d="m421.273438 283.546875c0-50.683594-42.28125-91.917969-94.257813-91.917969-40.605469 0-75.296875 25.171875-88.527344 60.351563-22.351562-10.542969-46.757812-16.003907-71.472656-15.980469-45.082031 0-87.039063 17.511719-118.140625 49.304688-31.503906 32.210937-48.859375 76.28125-48.859375 124.101562 0 3.867188 3.136719 7 7 7h253.949219v62.628906c0 2.78125 1.648437 5.300782 4.199218 6.414063 2.550782 1.113281 5.515626.613281 7.558594-1.277344l54.292969-50.292969 54.300781 50.292969c2.042969 1.890625 5.011719 2.390625 7.558594 1.277344 2.550781-1.113281 4.199219-3.632813 4.199219-6.414063v-129.984375c17.964843-17.058593 28.160156-40.730469 28.199219-65.503906zm-94.257813-77.917969c44.253906 0 80.257813 34.953125 80.257813 77.917969-.050782 21.277344-8.953126 41.574219-24.566407 56.027344-.953125.527343-1.773437 1.265625-2.394531 2.160156-30.660156 26.304687-75.925781 26.304687-106.589844 0-.617187-.894531-1.4375-1.636719-2.394531-2.160156-15.613281-14.453125-24.515625-34.75-24.566406-56.027344 0-42.964844 36-77.917969 80.253906-77.917969zm-312.863281 196.773438c1.59375-41.414063 17.335937-79.300782 44.730468-107.308594 28.449219-29.078125 66.847657-45.09375 108.132813-45.09375 23.417969-.03125 46.527344 5.3125 67.550781 15.625-6.199218 30.5 3.78125 62.042969 26.398438 83.425781v53.351563zm364.917968 60.597656-47.300781-43.808594c-2.683593-2.484375-6.828125-2.484375-9.511719 0l-47.296874 43.808594v-102.863281c31.691406 20.433593 72.410156 20.433593 104.101562 0zm0 0"/><path d="m274.847656 275.808594 25.5 18.035156-9.71875 29.097656c-.957031 2.871094.035156 6.03125 2.464844 7.835938 2.429688 1.804687 5.746094 1.84375 8.214844.097656l25.710937-18.175781 25.707031 18.175781c2.472657 1.746094 5.785157 1.707031 8.214844-.097656 2.429688-1.804688 3.425782-4.964844 2.46875-7.835938l-9.71875-29.097656 25.5-18.035156c2.488282-1.761719 3.554688-4.929688 2.628906-7.835938-.921874-2.90625-3.621093-4.878906-6.671874-4.878906h-31.726563l-9.765625-29.25c-.957031-2.859375-3.628906-4.785156-6.640625-4.785156s-5.6875 1.925781-6.640625 4.785156l-9.765625 29.25h-31.726563c-3.050781 0-5.75 1.972656-6.671874 4.878906-.921876 2.90625.140624 6.074219 2.628906 7.835938zm40.8125 1.285156c3.011719 0 5.683594-1.925781 6.636719-4.785156l4.726563-14.148438 4.722656 14.15625c.953125 2.855469 3.628906 4.78125 6.640625 4.78125h14.746093l-11.769531 8.316406c-2.519531 1.78125-3.578125 5.003907-2.601562 7.933594l4.601562 13.765625-12.300781-8.699219c-2.421875-1.710937-5.660156-1.710937-8.082031 0l-12.300781 8.699219 4.601562-13.765625c.976562-2.925781-.078125-6.148437-2.601562-7.933594l-11.761719-8.316406zm0 0"/><path d="m64.015625 103c0 56.886719 46.117187 103 103 103 56.886719 0 103-46.113281 103-103s-46.113281-103-103-103c-56.855469.0664062-102.933594 46.140625-103 103zm192 0c0 49.152344-39.84375 89-89 89-49.152344 0-89-39.847656-89-89s39.847656-89 89-89c49.132813.054688 88.945313 39.871094 89 89zm0 0"/></svg>